<svg xmlns="http://www.w3.org/2000/svg" width="48" height="52.368" viewBox="0 0 48 52.368">
  <g id="Group_51243" data-name="Group 51243" transform="translate(-782.789 -4888.376)">
    <g id="Group_51201" data-name="Group 51201" transform="translate(782.789 4888.376)">
      <g id="Group_51197" data-name="Group 51197">
        <g id="Group_51190" data-name="Group 51190">
          <g id="Group_51189" data-name="Group 51189">
            <path id="Path_44732" data-name="Path 44732" d="M802.116,4937.988H785.166a2.369,2.369,0,0,1-2.377-2.377v-44.858a2.354,2.354,0,0,1,2.377-2.377h35.777a2.369,2.369,0,0,1,2.377,2.377v44.858a2.384,2.384,0,0,1-2.377,2.377h-1.807" transform="translate(-782.789 -4888.376)" fill="#0092ff"/>
          </g>
        </g>
        <g id="Group_51192" data-name="Group 51192" transform="translate(26.672 49.613)">
          <g id="Group_51191" data-name="Group 51191">
            <line id="Line_136" data-name="Line 136" x1="2.306" fill="#0092ff"/>
          </g>
        </g>
        <g id="Group_51194" data-name="Group 51194" transform="translate(7.044 20.483)">
          <g id="Group_51193" data-name="Group 51193">
            <line id="Line_137" data-name="Line 137" x2="7.371" fill="#0092ff"/>
          </g>
        </g>
        <g id="Group_51196" data-name="Group 51196" transform="translate(7.044 11.854)">
          <g id="Group_51195" data-name="Group 51195">
            <line id="Line_138" data-name="Line 138" x2="16.586" fill="#0092ff"/>
          </g>
        </g>
      </g>
      <g id="Group_51200" data-name="Group 51200" transform="translate(6.988 10.322)">
        <g id="Group_51198" data-name="Group 51198">
          <path id="Path_44733" data-name="Path 44733" d="M815.756,4907.2H794.989a1.532,1.532,0,1,1,0-3.064h20.767a1.532,1.532,0,1,1,0,3.064Z" transform="translate(-793.457 -4904.133)" fill="#01165b"/>
        </g>
        <g id="Group_51199" data-name="Group 51199" transform="translate(0 8.63)">
          <path id="Path_44734" data-name="Path 44734" d="M806.564,4920.37H794.989a1.532,1.532,0,1,1,0-3.063h11.575a1.532,1.532,0,1,1,0,3.063Z" transform="translate(-793.457 -4917.306)" fill="#01165b"/>
        </g>
      </g>
    </g>
    <g id="Group_51206" data-name="Group 51206" transform="translate(803.73 4913.685)">
      <circle id="Ellipse_1674" data-name="Ellipse 1674" cx="13.53" cy="13.53" r="13.53" transform="translate(0 0)" fill="#01165b"/>
      <g id="Group_51205" data-name="Group 51205" transform="translate(6.21 6.21)">
        <g id="Group_51204" data-name="Group 51204">
          <g id="Group_51202" data-name="Group 51202" transform="translate(0 5.788)">
            <path id="Path_44735" data-name="Path 44735" d="M837.343,4948.39H825.768a1.532,1.532,0,1,1,0-3.063h11.575a1.532,1.532,0,1,1,0,3.063Z" transform="translate(-824.236 -4945.326)" fill="#0092ff"/>
          </g>
          <g id="Group_51203" data-name="Group 51203" transform="translate(5.788)">
            <path id="Path_44736" data-name="Path 44736" d="M836.135,4938.022V4949.6a1.532,1.532,0,0,1-3.064,0v-11.575a1.532,1.532,0,0,1,3.064,0Z" transform="translate(-833.071 -4936.491)" fill="#0092ff"/>
          </g>
        </g>
      </g>
    </g>
  </g>
</svg>
