<svg xmlns="http://www.w3.org/2000/svg" width="24.027" height="24.027" viewBox="0 0 24.027 24.027">
  <path id="Path_37730" data-name="Path 37730" d="M32.513,973.362a11.513,11.513,0,1,0,11.513,11.513A11.525,11.525,0,0,0,32.513,973.362Zm0,1.588a9.925,9.925,0,1,1-9.925,9.925A9.913,9.913,0,0,1,32.513,974.95Zm0,2.382a.794.794,0,0,0-.794.794v6.749a.786.786,0,0,0,.236.558l4.206,4.218a.8.8,0,0,0,1.129-1.129l-3.983-3.97v-6.427A.794.794,0,0,0,32.513,977.332Z" transform="translate(-20.5 -972.862)" fill="#4090f7" stroke="#4090f7" stroke-width="1"/>
</svg>
