<?xml version="1.0" encoding="utf-8"?>
<!-- Generator: Adobe Illustrator 25.4.1, SVG Export Plug-In . SVG Version: 6.00 Build 0)  -->
<svg version="1.1" id="katman_1" xmlns="http://www.w3.org/2000/svg" xmlns:xlink="http://www.w3.org/1999/xlink" x="0px" y="0px"
	 viewBox="0 0 30 30" style="enable-background:new 0 0 30 30;" xml:space="preserve">
<style type="text/css">
	.st0{fill:#FDFFFF;}
	.st1{fill:#3098FA;}
</style>
<g>
	<g>
		<path class="st0" d="M23.2,17.2v-6.4c0-0.4-0.2-0.7-0.4-0.9l-6.7-5.6c-0.4-0.4-1.1-0.4-1.6,0L7.9,9.8c-0.3,0.2-0.4,0.6-0.4,0.9
			v6.4H4.9c-0.7,0-1.2,0.5-1.2,1.2v10.2c0,0.7,0.5,1.2,1.2,1.2h20.8c0.7,0,1.2-0.5,1.2-1.2V18.4c0-0.7-0.5-1.2-1.2-1.2H23.2z"/>
	</g>
	<g>
		<rect x="11.2" y="20.4" class="st1" width="8.3" height="9.4"/>
	</g>
	<g>
		<polygon class="st1" points="15.3,0.2 15.3,3.9 18.5,2 		"/>
	</g>
	<g>
		<circle class="st1" cx="15.3" cy="11.7" r="2.8"/>
	</g>
</g>
</svg>
