<svg xmlns="http://www.w3.org/2000/svg" width="18.675" height="22.05" viewBox="0 0 18.675 22.05">
  <g id="travelguide" transform="translate(-1.375 -0.1)">
    <path id="Path_37934" data-name="Path 37934" d="M19.713,10.3v3.45a.948.948,0,0,1-1.05,1.05h-7.2v5.55h2.1a1.782,1.782,0,0,1,1.5,1.8H5.913a1.782,1.782,0,0,1,1.5-1.8h2.1v-5.4H4.562a1.739,1.739,0,0,1-1.5-.6,13.524,13.524,0,0,0-1.35-1.5.844.844,0,0,1,0-1.35l1.5-1.5a1.926,1.926,0,0,1,1.5-.6h5.1V7.45h-7.5c-.3,0-.6,0-.75-.3a.9.9,0,0,1-.15-.6V2.95c0-.6.45-.9,1.05-.9h7.35V.1h1.8V1.9h5.1a2.256,2.256,0,0,1,1.65.6l1.35,1.35a1,1,0,0,1,0,1.5L18.362,6.7a1.926,1.926,0,0,1-1.5.6h-5.4V9.1h7.35a.907.907,0,0,1,.9.45Z" transform="translate(0)" fill="#c2d7e0"/>
  </g>
</svg>
