<svg xmlns="http://www.w3.org/2000/svg" width="18.965" height="18.965" viewBox="0 0 18.965 18.965">
  <g id="Group_46350" data-name="Group 46350" transform="translate(18.965) rotate(90)">
    <path id="Path_26807" data-name="Path 26807" d="M5.823,8.987a5.793,5.793,0,0,0,3.163-.935A9.6,9.6,0,0,0,.935,0,5.822,5.822,0,0,0,5.823,8.987" transform="translate(9.978 0)" fill="#c8d7e0"/>
    <path id="Path_26808" data-name="Path 26808" d="M8.987,3.164A5.8,5.8,0,0,0,8.052,0,9.594,9.594,0,0,0,0,8.052,5.822,5.822,0,0,0,8.987,3.164" transform="translate(0 0)" fill="#c8d7e0"/>
    <path id="Path_26809" data-name="Path 26809" d="M0,5.823A5.8,5.8,0,0,0,.935,8.987,9.6,9.6,0,0,0,8.987.935,5.822,5.822,0,0,0,0,5.823" transform="translate(9.978 9.978)" fill="#c8d7e0"/>
    <path id="Path_26810" data-name="Path 26810" d="M3.164,0A5.8,5.8,0,0,0,0,.935,9.6,9.6,0,0,0,8.052,8.987,5.822,5.822,0,0,0,3.164,0" transform="translate(0 9.978)" fill="#c8d7e0"/>
  </g>
</svg>
