<svg xmlns="http://www.w3.org/2000/svg" width="24.541" height="15.057" viewBox="0 0 24.541 15.057">
  <g id="Eye_Icon" data-name="Eye Icon" opacity="0.15">
    <path id="Path_294" data-name="Path 294" d="M12.284,98.943c-4.89,0-9.278,2.913-12.271,7.528C3.006,111.086,7.394,114,12.284,114s9.277-2.913,12.27-7.528C21.561,101.856,17.174,98.943,12.284,98.943Zm0,12.233a4.7,4.7,0,1,1,4.7-4.7A4.709,4.709,0,0,1,12.284,111.176Z" transform="translate(-0.013 -98.943)" fill="#0f2851"/>
    <path id="Path_295" data-name="Path 295" d="M199.966,197.111a2.823,2.823,0,1,0,2.822,2.823A2.825,2.825,0,0,0,199.966,197.111Z" transform="translate(-187.695 -192.405)" fill="#0f2851"/>
  </g>
</svg>
