<?xml version="1.0" encoding="utf-8"?>
<!-- Generator: Adobe Illustrator 25.4.1, SVG Export Plug-In . SVG Version: 6.00 Build 0)  -->
<svg version="1.1" id="katman_1" xmlns="http://www.w3.org/2000/svg" xmlns:xlink="http://www.w3.org/1999/xlink" x="0px" y="0px"
	 viewBox="0 0 30 30" style="enable-background:new 0 0 30 30;" xml:space="preserve">
<style type="text/css">
	.st0{fill:#FDFFFF;}
	.st1{fill:#3098FA;}
</style>
<g>
	<g>
		<path class="st0" d="M27.3,8.3L19,17.6l-1.7,1.9l-1.1,1.2l-1.7,1.9l-5.2,5.8c-0.5,0.6-1.4,0.6-2,0.1l-5.8-5.2
			c-0.6-0.5-0.6-1.4-0.1-2l5.5-6.2l1.7-1.9l1.1-1.2l1.7-1.9l8-8.9c0.5-0.6,1.4-0.6,2-0.1l5.8,5.2C27.8,6.8,27.9,7.7,27.3,8.3z"/>
	</g>
	<g>
		<ellipse transform="matrix(0.7082 -0.706 0.706 0.7082 -16.3456 10.9852)" class="st1" cx="5.1" cy="25.3" rx="2.7" ry="5.2"/>
	</g>
	<path class="st1" d="M14.4,22.8l0.8,6.2c0,0.2,0.2,0.3,0.4,0.3l1.6-2.8l2.2,2.3c0.2,0,0.3-0.2,0.3-0.4l-0.8-6.6l2.4,1.7
		c0.1,0.1,0.3,0.1,0.4-0.1l-0.7-2.1l2.3,0c0.1-0.1,0.1-0.3-0.1-0.4l-3.9-2.7c0-0.2,0-0.4-0.1-0.6c-0.3-1.4-1.3-3.1-2.8-4.6
		c-1.2-1.2-2.5-2.1-3.7-2.7c-0.7-0.3-1.5-0.2-2.1,0.4l0,0c-0.8,0.7-1.4,1.6-1.8,2.6l0,0L14.4,22.8z"/>
	<g>
		<path class="st0" d="M17.3,19.5l-1.1,1.2l-1.9,2.1c-1.5-0.2-3.1-1.4-4.7-3c-1.5-1.5-2.4-3.2-2.8-4.6l1.7-1.9l0.1-0.2
			c0.6-0.7,1.7-1,2.6-0.6c1.1,0.5,2.2,1.3,3.3,2.3C16,16.4,17,18.1,17.3,19.5z"/>
	</g>
	<g>
		<ellipse transform="matrix(0.7082 -0.706 0.706 0.7082 3.4857 17.9003)" class="st0" cx="23.4" cy="4.7" rx="2.7" ry="5.2"/>
	</g>
</g>
</svg>
