<svg xmlns="http://www.w3.org/2000/svg" width="45.031" height="48.639" viewBox="0 0 45.031 48.639">
  <g id="Group_49624" data-name="Group 49624" transform="translate(-1182 -296.001)">
    <g id="sertifika" transform="translate(1182 296.001)">
      <g id="Group_49601" data-name="Group 49601" transform="translate(2.283 2.477)">
        <path id="Path_37905" data-name="Path 37905" d="M41.243,12.315,28.537,26.553l-2.6,2.909L24.25,31.3l-2.6,2.909-7.961,8.879a2.171,2.171,0,0,1-3.062.153L1.746,35.279a2.171,2.171,0,0,1-.153-3.062l8.42-9.492,2.6-2.909L14.3,17.98l2.6-2.909L29.149,1.446a2.171,2.171,0,0,1,3.062-.153L41.09,9.254A2.045,2.045,0,0,1,41.243,12.315Z" transform="translate(-1.037 -0.737)" fill="#0092ff"/>
      </g>
      <g id="Group_49602" data-name="Group 49602" transform="translate(0 31.527)">
        <ellipse id="Ellipse_321" data-name="Ellipse 321" cx="4.133" cy="7.961" rx="4.133" ry="7.961" transform="matrix(0.708, -0.706, 0.706, 0.708, 0, 5.836)" fill="#01165b"/>
      </g>
      <path id="Path_37906" data-name="Path 37906" d="M17.373,29.523,18.6,39.015c0,.306.306.459.612.459l2.449-4.286,3.368,3.521c.306,0,.459-.306.459-.612l-1.225-10.1,3.674,2.6a.379.379,0,0,0,.612-.153l-1.072-3.215H31a.379.379,0,0,0-.153-.612l-5.97-4.133a1.942,1.942,0,0,0-.153-.919,15.345,15.345,0,0,0-4.286-7.042,22.155,22.155,0,0,0-5.664-4.133A2.841,2.841,0,0,0,11.556,11h0A10.357,10.357,0,0,0,8.8,14.98h0Z" transform="translate(5.369 6.73)" fill="#01165b"/>
      <g id="Group_49603" data-name="Group 49603" transform="translate(11.107 20.211)">
        <path id="Path_37907" data-name="Path 37907" d="M22.874,23.311,21.19,25.148l-2.909,3.215c-2.3-.306-4.746-2.143-7.2-4.593A16.791,16.791,0,0,1,6.8,16.729L9.4,13.82l.153-.306a3.516,3.516,0,0,1,3.98-.919,20.19,20.19,0,0,1,5.052,3.521A16.53,16.53,0,0,1,22.874,23.311Z" transform="translate(-6.8 -12.321)" fill="#0092ff"/>
      </g>
      <g id="Group_49604" data-name="Group 49604" transform="translate(27.936)">
        <ellipse id="Ellipse_322" data-name="Ellipse 322" cx="4.133" cy="7.961" rx="4.133" ry="7.961" transform="matrix(0.708, -0.706, 0.706, 0.708, 0, 5.836)" fill="#0092ff"/>
      </g>
    </g>
  </g>
</svg>
