<svg xmlns="http://www.w3.org/2000/svg" width="23.969" height="23.969" viewBox="0 0 23.969 23.969">
  <g id="Group_47431" data-name="Group 47431" transform="translate(0.5 0.5)">
    <path id="Path_25925" data-name="Path 25925" d="M32.485,973.362a11.485,11.485,0,1,0,11.485,11.485A11.5,11.5,0,0,0,32.485,973.362Zm0,1.584a9.9,9.9,0,1,1-9.9,9.9A9.889,9.889,0,0,1,32.485,974.946Zm0,2.376a.792.792,0,0,0-.792.792v6.732a.785.785,0,0,0,.235.557l4.2,4.208a.8.8,0,0,0,1.126-1.126l-3.973-3.96v-6.411A.792.792,0,0,0,32.485,977.323Z" transform="translate(-21 -973.362)" fill="#77db77" stroke="#77db77" stroke-width="1"/>
  </g>
</svg>
