<svg xmlns="http://www.w3.org/2000/svg" width="46.973" height="46.973" viewBox="0 0 46.973 46.973">
  <g id="workandstudy" transform="translate(-0.3 -1.3)">
    <g id="Group_50272" data-name="Group 50272" transform="translate(0.3 36.488)">
      <path id="Path_38314" data-name="Path 38314" d="M47.273,34.285H5.943A5.6,5.6,0,0,1,.3,28.641v-.5A5.6,5.6,0,0,1,5.943,22.5h41.33Z" transform="translate(-0.3 -22.5)" fill="#3098fa"/>
    </g>
    <g id="Group_50273" data-name="Group 50273" transform="translate(7.769 24.704)">
      <path id="Path_38315" data-name="Path 38315" d="M4.8,27.185H37.5a5.6,5.6,0,0,0,5.643-5.643v-.5A5.6,5.6,0,0,0,37.5,15.4H4.8Z" transform="translate(-4.8 -15.4)" fill="#001f5a"/>
    </g>
    <g id="Group_50274" data-name="Group 50274" transform="translate(1.96 12.919)">
      <path id="Path_38316" data-name="Path 38316" d="M39.642,20.085H6.943A5.6,5.6,0,0,1,1.3,14.441v-.5A5.6,5.6,0,0,1,6.943,8.3h32.7V20.085Z" transform="translate(-1.3 -8.3)" fill="#3098fa"/>
    </g>
    <g id="Group_50275" data-name="Group 50275" transform="translate(25.695 1.3)">
      <circle id="Ellipse_362" data-name="Ellipse 362" cx="6.473" cy="6.473" r="6.473" fill="#001f5a"/>
    </g>
    <g id="Group_50276" data-name="Group 50276" transform="translate(11.255 1.3)">
      <circle id="Ellipse_363" data-name="Ellipse 363" cx="6.473" cy="6.473" r="6.473" fill="#001f5a"/>
    </g>
    <g id="Group_50277" data-name="Group 50277" transform="translate(19.388 6.943)">
      <path id="Path_38317" data-name="Path 38317" d="M20.431,6.692H12.8a.957.957,0,0,1-1-1,1.071,1.071,0,0,1,1-1h7.635a.957.957,0,0,1,1,1A1.071,1.071,0,0,1,20.431,6.692Z" transform="translate(-11.8 -4.7)" fill="#001f5a"/>
    </g>
    <g id="Group_50278" data-name="Group 50278" transform="translate(16.689 8.726)">
      <path id="Path_38318" data-name="Path 38318" d="M11.877,9.137a2.105,2.105,0,0,1-1-.166,1.129,1.129,0,0,1-.664-1.328,1.129,1.129,0,0,1,1.328-.664.7.7,0,0,0,1-.5,1.129,1.129,0,0,1,1.328-.664c.664.332,1,1,.664,1.494A2.554,2.554,0,0,1,11.877,9.137Z" transform="translate(-10.174 -5.774)" fill="#3098fa"/>
    </g>
    <g id="Group_50279" data-name="Group 50279" transform="translate(31.96 8.726)">
      <path id="Path_38319" data-name="Path 38319" d="M21.077,9.137a2.105,2.105,0,0,1-1-.166,1.129,1.129,0,0,1-.664-1.328,1.129,1.129,0,0,1,1.328-.664.7.7,0,0,0,1-.5,1.129,1.129,0,0,1,1.328-.664c.664.332,1,1,.664,1.494A2.554,2.554,0,0,1,21.077,9.137Z" transform="translate(-19.374 -5.774)" fill="#3098fa"/>
    </g>
  </g>
</svg>
