<svg xmlns="http://www.w3.org/2000/svg" width="29" height="26.2" viewBox="0 0 29 26.2">
  <g id="Message" transform="translate(0.5 0.5)">
    <path id="Message-2" data-name="Message" d="M20.915,25.2H7.084A7.085,7.085,0,0,1,0,18.13V7.07A7.085,7.085,0,0,1,7.084,0H20.915a7.128,7.128,0,0,1,5.012,2.074A7.016,7.016,0,0,1,28,7.07V18.13A7.086,7.086,0,0,1,20.915,25.2ZM5.648,7.344a1.026,1.026,0,0,0-.748.315,1.07,1.07,0,0,0-.1,1.4l.184.181,6.369,4.971a4.381,4.381,0,0,0,2.73.951,4.451,4.451,0,0,0,2.742-.951l6.316-5.054.112-.112a1.084,1.084,0,0,0-.016-1.4,1.164,1.164,0,0,0-.74-.364l-.059,0a1.064,1.064,0,0,0-.727.281L15.4,12.6a2.191,2.191,0,0,1-1.4.5,2.229,2.229,0,0,1-1.4-.5L6.3,7.56A1.089,1.089,0,0,0,5.648,7.344Z" transform="translate(0 0)" fill="#4090f7" stroke="#4090f7" stroke-width="1"/>
  </g>
</svg>
