<svg xmlns="http://www.w3.org/2000/svg" xmlns:xlink="http://www.w3.org/1999/xlink" width="13.185" height="13.184" viewBox="0 0 13.185 13.184">
  <defs>
    <clipPath id="clip-path">
      <rect id="Rectangle_7710" data-name="Rectangle 7710" width="13.185" height="13.184" fill="#044a75"/>
    </clipPath>
  </defs>
  <g id="Group_14676" data-name="Group 14676" opacity="0.7" clip-path="url(#clip-path)">
    <path id="Path_26649" data-name="Path 26649" d="M13.184,4.834V3.14a1.8,1.8,0,0,0-1.766-1.821h-.871V.44a.439.439,0,1,0-.879,0v.879H3.516V.44a.439.439,0,1,0-.879,0v.879H1.766A1.8,1.8,0,0,0,0,3.14V4.834Z" transform="translate(0 0)" fill="#044a75"/>
    <path id="Path_26650" data-name="Path 26650" d="M0,227.5v5.65a1.8,1.8,0,0,0,1.766,1.821h9.653a1.8,1.8,0,0,0,1.766-1.821V227.5Z" transform="translate(0 -221.787)" fill="#044a75"/>
  </g>
</svg>
