<svg xmlns="http://www.w3.org/2000/svg" width="35.986" height="37.678" viewBox="0 0 35.986 37.678">
  <g id="Search" transform="translate(-0.002 0)">
    <g id="Search_Icon" data-name="Search Icon" transform="translate(0.002 0)">
      <path id="Path_3" data-name="Path 3" d="M37.453,40.091a1.888,1.888,0,0,1-1.345-.586l-6.7-6.9a1.848,1.848,0,0,1,.042-2.635,1.872,1.872,0,0,1,2.649.042l6.7,6.939a1.848,1.848,0,0,1-.042,2.635A1.885,1.885,0,0,1,37.453,40.091Z" transform="translate(-3.344 -2.413)" fill="#fff"/>
      <path id="Path_4" data-name="Path 4" d="M18.6,34.157A16.994,16.994,0,0,1,1.488,17.3,16.967,16.967,0,0,1,18.6.449,16.994,16.994,0,0,1,35.71,17.3,17.02,17.02,0,0,1,18.6,34.157Zm0-29.986A13.29,13.29,0,0,0,5.188,17.3,13.29,13.29,0,0,0,18.6,30.435,13.28,13.28,0,0,0,31.968,17.3,13.28,13.28,0,0,0,18.6,4.171Z" transform="translate(-1.488 -0.449)" fill="#fff"/>
    </g>
  </g>
</svg>
