<svg xmlns="http://www.w3.org/2000/svg" width="70.448" height="38.884" viewBox="0 0 70.448 38.884">
  <g id="Group_49627" data-name="Group 49627" transform="translate(-1265.998 -1203.002)">
    <g id="join" transform="translate(1265.998 1203.002)">
      <g id="Group_49573" data-name="Group 49573" transform="translate(0 0.309)">
        <g id="Group_49572" data-name="Group 49572" transform="translate(0 0)">
          <path id="Path_37884" data-name="Path 37884" d="M70.2,22.06a5.81,5.81,0,0,1-1.969,2.215c-1.969,1.477-4.43,1.969-6.891,2.461a33.274,33.274,0,0,0-7.137,1.23c-5.168,1.723-9.106,6.152-13.043,10.09s-9.106,7.383-14.766,6.4c.738-3.938,1.477-8.121,2.215-12.059A33.379,33.379,0,0,1,4.738,30.428C3.015,29.689,1.046,28.459.8,26.49a.9.9,0,0,1,.246-.738.9.9,0,0,1,.738-.246c1.477-.246,2.707-.492,4.184-.738-1.477-4.922-3.2-9.6-4.676-14.274,2.461,0,4.922-1.723,7.383-.984.738.492,1.23.984,1.969,1.477,3.2,2.953,6.4,5.66,9.6,8.613A5.106,5.106,0,0,0,22.7,21.076a8.25,8.25,0,0,0,2.461,0l33.223-5.906a21.74,21.74,0,0,1,6.891-.492c1.969.246,4.922,1.23,5.906,3.2A6.6,6.6,0,0,1,70.2,22.06Z" transform="translate(-0.8 -9.325)" fill="#0092ff"/>
        </g>
      </g>
      <g id="Group_49574" data-name="Group 49574" transform="translate(0.246)">
        <path id="Path_37885" data-name="Path 37885" d="M23.049,21.5,5.822,24.458C4.1,19.782,2.623,15.352.9,10.43c1.23-.246,2.215-.492,3.445-.738C5.33,9.446,6.314,9.446,7.3,9.2a1.808,1.808,0,0,1,1.477.492c4.184,3.691,8.613,7.629,12.8,11.321l.246.246C22.311,21.5,22.557,21.751,23.049,21.5Z" transform="translate(-0.9 -9.2)" fill="#01165b"/>
      </g>
      <g id="Group_49575" data-name="Group 49575" transform="translate(5.869 26.541)">
        <path id="Path_37886" data-name="Path 37886" d="M5.191,24.7a1.9,1.9,0,0,1-1.969-1.723,1.961,1.961,0,0,1,1.723-2.215l7.137-.738a1.984,1.984,0,0,1,.492,3.938L5.191,24.7Z" transform="translate(-3.184 -19.984)" fill="#01165b"/>
      </g>
      <g id="Group_49576" data-name="Group 49576" transform="translate(1.191 33.432)">
        <path id="Path_37887" data-name="Path 37887" d="M3.292,28.237a1.9,1.9,0,0,1-1.969-1.723A1.961,1.961,0,0,1,3.045,24.3L15.1,22.823A1.984,1.984,0,0,1,15.6,26.76l-12.3,1.477Z" transform="translate(-1.284 -22.784)" fill="#01165b"/>
      </g>
    </g>
  </g>
</svg>
