<?xml version="1.0" encoding="utf-8"?>
<!-- Generator: Adobe Illustrator 25.4.1, SVG Export Plug-In . SVG Version: 6.00 Build 0)  -->
<svg version="1.1" id="katman_1" xmlns="http://www.w3.org/2000/svg" xmlns:xlink="http://www.w3.org/1999/xlink" x="0px" y="0px"
	 viewBox="0 0 30 30" style="enable-background:new 0 0 30 30;" xml:space="preserve">
<style type="text/css">
	.st0{fill:#FDFFFF;}
	.st1{fill:#3098FA;}
</style>
<g>
	<g>
		<path class="st0" d="M29.7,15c0,0.5,0,1-0.1,1.5c-0.4,4.2-2.6,7.9-5.8,10.3c-0.2,0.1-0.3,0.3-0.5,0.4c-2.4,1.6-5.2,2.6-8.3,2.6
			C6.8,29.7,0.2,23.1,0.2,15c0-1.9,0.4-3.7,1-5.4c1.5-3.8,4.5-6.8,8.3-8.3c1.7-0.7,3.5-1,5.4-1c1.5,0,3,0.2,4.4,0.7
			c4,1.3,7.3,4.2,9,8.1C29.2,10.9,29.7,12.9,29.7,15z"/>
	</g>
	<g>
		<path class="st1" d="M6.6,15.6c1.7-2.5,7.9-2.1,9,0c1.3,2.6-1.7,1.8-2.6,5.1c-1.2,4.3,0.8,6.4,0,6.4c-3.8,0-3.4-3.6-5.1-6.4
			C6.5,18.4,5.6,17.2,6.6,15.6z"/>
	</g>
	<g>
		<path class="st1" d="M29.6,16.5c-0.4,4.2-2.6,7.9-5.8,10.3l-0.5,0.4c0,0,0,0,0,0c-2.9-0.4,0-2.1,0-3.8c0-1.4-2.3-0.8-2.9-3.1
			c-0.5-1.8,0.3-3.3,0.3-4.6c0-1.1,3.2-2.8,4.5,2.7C25.5,19.7,28.1,16,29.6,16.5z"/>
	</g>
	<g>
		<path class="st1" d="M9.2,9.2c-1,1-4.8,1.3-7.9,0.4c1.5-3.8,4.5-6.8,8.3-8.3c1.3,1,3.9,2.3,4.8,4.1C15,6.8,10.7,7.7,9.2,9.2z"/>
	</g>
	<g>
		<path class="st1" d="M28.4,9c-1.6,0.6-3,1.2-3.8,1.5c-1.5,0.5-0.8-2-2.6-3.8c-1.4-1.4-2.8-3.4-2.6-5.7C23.4,2.2,26.7,5.2,28.4,9z"
			/>
	</g>
</g>
</svg>
