<svg xmlns="http://www.w3.org/2000/svg" xmlns:xlink="http://www.w3.org/1999/xlink" width="69.277" height="69.277" viewBox="0 0 69.277 69.277">
  <defs>
    <clipPath id="clip-path">
      <rect id="Rectangle_8705" data-name="Rectangle 8705" width="27.894" height="27.969" fill="#9ab6c8"/>
    </clipPath>
  </defs>
  <g id="Group_50391" data-name="Group 50391" transform="translate(-915.445 -52.224)">
    <g id="Rectangle_8533" data-name="Rectangle 8533" transform="translate(915.445 52.224)" fill="#fff" stroke="rgba(214,221,232,0.6)" stroke-width="1">
      <rect width="69.277" height="69.277" rx="34.638" stroke="none"/>
      <rect x="0.5" y="0.5" width="68.277" height="68.277" rx="34.138" fill="none"/>
    </g>
    <g id="Group_49629" data-name="Group 49629" transform="translate(936.137 73.454)">
      <g id="Group_49075" data-name="Group 49075" transform="translate(0 0)" clip-path="url(#clip-path)">
        <path id="Path_37760" data-name="Path 37760" d="M23.809,4.085a13.946,13.946,0,0,0-21.53,17.5L.132,27.969l6.106-2.4A13.946,13.946,0,0,0,23.809,4.085M13.947,25.86A11.822,11.822,0,0,1,6.968,23.6l-.451-.327L3.453,24.477l1.082-3.216-.3-.422a11.911,11.911,0,1,1,9.713,5.02" transform="translate(0 0)" fill="#9ab6c8"/>
        <path id="Path_37761" data-name="Path 37761" d="M32.524,31.663a1.872,1.872,0,0,0-1.205,1.054c-.211.342-.394.638-.67.714-.881.243-4.952-3.566-5.288-4.388.014-.229.334-.556.617-.846a3.125,3.125,0,0,0,.762-1.016c.048-.132.2-.536-.442-1.876-.318-.669-1.305-2.462-2.044-2.719a3.03,3.03,0,0,0-2.544.91c-.805.757-1.619,2.182-.921,4.678,1.17,4.186,4.792,7.545,10.2,9.457a6.374,6.374,0,0,0,2.111.405,3.62,3.62,0,0,0,1.892-.493A4.771,4.771,0,0,0,36.976,34.2a.965.965,0,0,0-.253-.818,6.847,6.847,0,0,0-4.2-1.715" transform="translate(-14.851 -16.305)" fill="#9ab6c8"/>
      </g>
    </g>
  </g>
</svg>
