<svg xmlns="http://www.w3.org/2000/svg" xmlns:xlink="http://www.w3.org/1999/xlink" width="15.672" height="15.671" viewBox="0 0 15.672 15.671">
  <defs>
    <clipPath id="clip-path">
      <rect id="Rectangle_7710" data-name="Rectangle 7710" width="15.672" height="15.671" fill="#044a75"/>
    </clipPath>
  </defs>
  <g id="Group_14676" data-name="Group 14676" opacity="0.7" clip-path="url(#clip-path)">
    <path id="Path_26649" data-name="Path 26649" d="M15.672,5.746V3.732a2.135,2.135,0,0,0-2.1-2.165H12.537V.523a.522.522,0,1,0-1.045,0V1.567H4.179V.523a.522.522,0,1,0-1.045,0V1.567H2.1A2.135,2.135,0,0,0,0,3.732V5.746Z" transform="translate(0 0)" fill="#044a75"/>
    <path id="Path_26650" data-name="Path 26650" d="M0,227.5v6.716a2.135,2.135,0,0,0,2.1,2.165H13.573a2.135,2.135,0,0,0,2.1-2.165V227.5Z" transform="translate(0 -220.709)" fill="#044a75"/>
  </g>
</svg>
