<svg xmlns="http://www.w3.org/2000/svg" width="21.606" height="25.718" viewBox="0 0 21.606 25.718">
  <g id="Group_50392" data-name="Group 50392" transform="translate(-649.338 -2569.281)">
    <path id="Vector" d="M19.175,2.837,12.14.2A4.451,4.451,0,0,0,9.492.2L2.456,2.837A4.072,4.072,0,0,0,0,6.38V16.742A4.247,4.247,0,0,0,1.509,19.76l7.036,5.258a3.989,3.989,0,0,0,4.516,0L20.1,19.76a4.271,4.271,0,0,0,1.509-3.019V6.38A4.047,4.047,0,0,0,19.175,2.837ZM15.261,10l-5.5,5.5a.957.957,0,0,1-1.356,0L6.358,13.428a.959.959,0,0,1,1.356-1.356L9.1,13.454l4.823-4.823c.371-.371,1.356,0,1.356,0S15.645,9.629,15.261,10Z" transform="translate(649.338 2569.281)" fill="#4090f7"/>
  </g>
</svg>
