<svg xmlns="http://www.w3.org/2000/svg" width="51.342" height="51.342" viewBox="0 0 51.342 51.342">
  <g id="Group_49651" data-name="Group 49651" transform="translate(-1190.001 -371.999)">
    <g id="erasmus" transform="translate(1190.001 371.999)">
      <g id="Group_49551" data-name="Group 49551">
        <path id="Path_37868" data-name="Path 37868" d="M51.542,25.884a13.173,13.173,0,0,1-.174,2.611A25.476,25.476,0,0,1,41.274,46.421c-.348.174-.522.522-.87.7a25.84,25.84,0,0,1-14.445,4.525A25.924,25.924,0,0,1,.2,25.884a28.134,28.134,0,0,1,1.74-9.4A25.635,25.635,0,0,1,16.386,2.04,24.378,24.378,0,0,1,25.784.3a22.768,22.768,0,0,1,7.658,1.218,25.636,25.636,0,0,1,15.664,14.1A22.881,22.881,0,0,1,51.542,25.884Z" transform="translate(-0.2 -0.3)" fill="#0092ff"/>
      </g>
      <g id="Group_49552" data-name="Group 49552" transform="translate(10.399 23.621)">
        <path id="Path_37869" data-name="Path 37869" d="M6.915,16.88c2.959-4.351,13.749-3.655,15.664,0,2.263,4.525-2.959,3.133-4.525,8.876-2.089,7.484,1.392,11.139,0,11.139-6.614,0-5.917-6.266-8.876-11.139C6.741,21.753,5.174,19.664,6.915,16.88Z" transform="translate(-6.175 -13.872)" fill="#01165b"/>
      </g>
      <g id="Group_49553" data-name="Group 49553" transform="translate(34.87 24.82)">
        <path id="Path_37870" data-name="Path 37870" d="M36.534,17.936A25.476,25.476,0,0,1,26.439,35.862l-.87.7h0c-5.047-.7,0-3.655,0-6.614,0-2.437-4-1.392-5.047-5.4-.87-3.133.522-5.743.522-8.006,0-1.914,5.569-4.873,7.832,4.7C29.4,23.506,33.923,17.066,36.534,17.936Z" transform="translate(-20.236 -14.56)" fill="#01165b"/>
      </g>
      <g id="Group_49554" data-name="Group 49554" transform="translate(1.915 1.74)">
        <path id="Path_37871" data-name="Path 37871" d="M15.049,15.049c-1.74,1.74-8.354,2.263-13.749.7A25.635,25.635,0,0,1,15.745,1.3c2.263,1.74,6.788,4,8.354,7.136C25.144,10.872,17.66,12.439,15.049,15.049Z" transform="translate(-1.3 -1.3)" fill="#01165b"/>
      </g>
      <g id="Group_49555" data-name="Group 49555" transform="translate(33.383 1.219)">
        <path id="Path_37872" data-name="Path 37872" d="M35.078,14.923c-2.785,1.044-5.221,2.089-6.614,2.611-2.611.87-1.392-3.481-4.525-6.614C21.5,8.484,19.066,5,19.414,1A25.366,25.366,0,0,1,35.078,14.923Z" transform="translate(-19.381 -1)" fill="#01165b"/>
      </g>
    </g>
  </g>
</svg>
