<svg xmlns="http://www.w3.org/2000/svg" xmlns:xlink="http://www.w3.org/1999/xlink" width="22" height="22" viewBox="0 0 22 22">
  <defs>
    <clipPath id="clip-path">
      <rect id="Rectangle_8694" data-name="Rectangle 8694" width="22" height="22" transform="translate(-0.407 -0.406)" fill="#4090f7"/>
    </clipPath>
  </defs>
  <g id="Group_48867" data-name="Group 48867" transform="translate(0.407 0.406)" clip-path="url(#clip-path)">
    <path id="Path_37728" data-name="Path 37728" d="M21.187,7.769V5.045a2.887,2.887,0,0,0-2.838-2.927h-1.4V.706a.706.706,0,1,0-1.412,0V2.119H5.65V.706a.706.706,0,1,0-1.412,0V2.119h-1.4A2.887,2.887,0,0,0,0,5.045V7.769Z" transform="translate(0 0)" fill="#4090f7"/>
    <path id="Path_37729" data-name="Path 37729" d="M0,227.5v9.079a2.887,2.887,0,0,0,2.838,2.927H18.349a2.887,2.887,0,0,0,2.838-2.927V227.5Z" transform="translate(0 -218.319)" fill="#4090f7"/>
  </g>
</svg>
