<svg xmlns="http://www.w3.org/2000/svg" width="18.201" height="18.182" viewBox="0 0 18.201 18.182">
  <path id="contact" d="M17.3,12.921c-.629-.252-1.258-.629-2.013-.881-.629-.252-1.258-.5-2.013-.755-.5-.252-1.007,0-1.51.377a1.737,1.737,0,0,0-.5.377,1.634,1.634,0,0,1-2.39,0c-.881-.629-1.51-1.384-2.265-2.013a2.076,2.076,0,0,1,0-2.516l.629-.629a1.55,1.55,0,0,0,.252-1.258,8.018,8.018,0,0,0-.252-.881l-1.51-3.4A1.81,1.81,0,0,0,3.585.213,4.523,4.523,0,0,0,.817,2.478a7.024,7.024,0,0,0-.5,3.9,15.825,15.825,0,0,0,3.523,7.3,15.322,15.322,0,0,0,5.284,3.649c.629.252,1.384.5,2.139.755a13.864,13.864,0,0,0,2.265.252,7.426,7.426,0,0,0,1.761-.252,4.364,4.364,0,0,0,3.02-2.894A1.668,1.668,0,0,0,17.3,12.921Z" transform="translate(-0.248 -0.149)" fill="#c8d7e0"/>
</svg>
