<svg xmlns="http://www.w3.org/2000/svg" width="42.341" height="49.869" viewBox="0 0 42.341 49.869">
  <g id="dilokulu" transform="translate(-2.9 -0.7)">
    <path id="Path_37941" data-name="Path 37941" d="M42.628,43.215H30.082L19.8,50.185a2.494,2.494,0,0,1-3.833-2.091l.174-4.879H5.339A2.382,2.382,0,0,1,2.9,40.776V3.139A2.382,2.382,0,0,1,5.339.7H42.8a2.382,2.382,0,0,1,2.439,2.439V40.776A2.532,2.532,0,0,1,42.628,43.215Z" transform="translate(0 0)" fill="#3098fa"/>
    <g id="Group_49723" data-name="Group 49723" transform="translate(14.749 15.162)">
      <path id="Path_37942" data-name="Path 37942" d="M11.094,27.3a1.31,1.31,0,0,1-1.22-.871,1.225,1.225,0,0,1,.7-1.742c7.841-3.136,12.2-9.583,14.114-12.72H11.094A1.5,1.5,0,0,1,9.7,10.568,1.526,1.526,0,0,1,11.094,9H26.95a1.315,1.315,0,0,1,1.22.7,1.53,1.53,0,0,1,.174,1.22,31.2,31.2,0,0,1-16.553,16.2C11.442,27.121,11.268,27.3,11.094,27.3Z" transform="translate(-9.7 -9)" fill="#001f5a"/>
    </g>
    <g id="Group_49724" data-name="Group 49724" transform="translate(16.877 21.473)">
      <path id="Path_37943" data-name="Path 37943" d="M23.6,24.607a.64.64,0,0,1-.523-.174C13.5,20.425,11.058,14.675,11.058,14.5a1.225,1.225,0,0,1,.7-1.742,1.225,1.225,0,0,1,1.742.7s2.265,4.879,10.629,8.364a1.41,1.41,0,0,1,.7,1.917C24.824,24.258,24.3,24.607,23.6,24.607Z" transform="translate(-10.922 -12.622)" fill="#001f5a"/>
    </g>
    <g id="Group_49725" data-name="Group 49725" transform="translate(22.59 11.329)">
      <path id="Path_37944" data-name="Path 37944" d="M15.594,13.073A1.5,1.5,0,0,1,14.2,11.679V8.194A1.5,1.5,0,0,1,15.594,6.8h0a1.5,1.5,0,0,1,1.394,1.394v3.485a1.374,1.374,0,0,1-1.394,1.394Z" transform="translate(-14.2 -6.8)" fill="#001f5a"/>
    </g>
  </g>
</svg>
