<?xml version="1.0" encoding="utf-8"?>
<!-- Generator: Adobe Illustrator 25.4.1, SVG Export Plug-In . SVG Version: 6.00 Build 0)  -->
<svg version="1.1" id="katman_1" xmlns="http://www.w3.org/2000/svg" xmlns:xlink="http://www.w3.org/1999/xlink" x="0px" y="0px"
	 viewBox="0 0 30 30" style="enable-background:new 0 0 30 30;" xml:space="preserve">
<style type="text/css">
	.st0{fill:#FDFFFF;}
	.st1{fill:#3098FA;}
</style>
<path class="st0" d="M25.7,25.1h-7.2l-5.9,4c-1,0.6-2.2-0.1-2.2-1.2l0.1-2.8H4.3c-0.8,0-1.4-0.6-1.4-1.4V2.1c0-0.8,0.6-1.4,1.4-1.4
	h21.5c0.8,0,1.4,0.6,1.4,1.4v21.6C27.2,24.5,26.5,25.1,25.7,25.1z"/>
<path class="st1" d="M20.3,10.1c0.1-0.2,0.1-0.5-0.1-0.7S19.8,9,19.5,9h-3.7l0-1.5c0-0.4-0.4-0.8-0.8-0.8c0,0,0,0,0,0
	c-0.4,0-0.8,0.4-0.8,0.8l0,1.4h-3.7C10,9,9.7,9.4,9.7,9.8s0.4,0.8,0.8,0.8h7.8c-0.7,1.2-1.9,3.1-3.9,4.8c-1.4-1.2-1.8-2.2-1.9-2.3
	c-0.2-0.4-0.6-0.6-1-0.4c-0.4,0.2-0.6,0.6-0.4,1c0,0.1,0.5,1.2,2,2.7c-0.9,0.6-1.8,1.1-2.9,1.6c-0.4,0.2-0.6,0.6-0.4,1
	c0.1,0.3,0.4,0.5,0.7,0.5c0.1,0,0.2,0,0.3-0.1c1.4-0.5,2.5-1.2,3.6-2c0.9,0.7,2.1,1.4,3.6,2c0.1,0,0.2,0.1,0.3,0.1
	c0.3,0,0.6-0.2,0.7-0.5c0.2-0.4,0-0.9-0.4-1.1c-1.2-0.5-2.1-1-2.9-1.6C18.9,13.5,20.2,10.3,20.3,10.1z"/>
</svg>
