<svg xmlns="http://www.w3.org/2000/svg" width="48" height="50.638" viewBox="0 0 48 50.638">
  <g id="Group_51238" data-name="Group 51238" transform="translate(-1732.932 -8299.428)">
    <path id="Path_44752" data-name="Path 44752" d="M1738.339,8370.169a7.28,7.28,0,0,1-3.054-1.3,6.115,6.115,0,0,1,5.74-10.608.494.494,0,0,0,.683-.207c.854-1.169,4.9-6.722,5.777-7.881l2.368,1.782c-.852,1.136-4.857,6.678-5.726,7.792a.617.617,0,0,0-.016.885,6.119,6.119,0,0,1-3.97,9.438,2.351,2.351,0,0,0-.318.1Z" transform="translate(0 -20.103)" fill="#01165b"/>
    <path id="Path_44753" data-name="Path 44753" d="M1781.48,8355.848c-.694-.564-7.958-5.934-8.651-6.5l1.866-2.3c.685.551,7.962,5.924,8.643,6.471a8.19,8.19,0,0,1,11.381.85,8.115,8.115,0,0,1-9.955,12.492,7.931,7.931,0,0,1-3.908-4.824A8.148,8.148,0,0,1,1781.48,8355.848Z" transform="translate(-15.806 -18.867)" fill="#0092ff"/>
    <path id="Path_44754" data-name="Path 44754" d="M1773.4,8321.061l-2.325-1.831c1.334-1.7,6.445-8.226,7.791-9.939a6.78,6.78,0,0,1-1.216-2.89,6.124,6.124,0,1,1,7.32,5.118,5.686,5.686,0,0,1-3.351-.249.5.5,0,0,0-.7.2c-1.127,1.461-6.053,7.737-7.193,9.188C1773.615,8320.8,1773.5,8320.933,1773.4,8321.061Z" transform="translate(-15.109)" fill="#0092ff"/>
    <path id="Path_44755" data-name="Path 44755" d="M1748.227,8323.8l-1.958,2.229c-.544-.476-4.768-3.944-5.295-4.438a.527.527,0,0,0-.723-.1,4.97,4.97,0,0,1-5.765-.846,5.037,5.037,0,1,1,8.234-1.963.5.5,0,0,0,.167.664C1743.463,8319.807,1747.675,8323.316,1748.227,8323.8Z" transform="translate(-0.002 -4.968)" fill="#01165b"/>
    <path id="Path_44756" data-name="Path 44756" d="M1759.939,8345.544a9.718,9.718,0,1,1,9.721-9.715A9.738,9.738,0,0,1,1759.939,8345.544Z" transform="translate(-6.856 -10.57)" fill="#01165b"/>
  </g>
</svg>
