<svg xmlns="http://www.w3.org/2000/svg" width="45.13" height="53.71" viewBox="0 0 45.13 53.71">
  <g id="Group_49646" data-name="Group 49646" transform="translate(18787.002 23445.003)">
    <g id="master" transform="translate(-18787.002 -23445.002)">
      <g id="Group_49590" data-name="Group 49590" transform="translate(0 12.971)">
        <g id="Group_49589" data-name="Group 49589" transform="translate(0)">
          <path id="Path_37893" data-name="Path 37893" d="M21.241,48.138H6.809A2.027,2.027,0,0,1,4.8,46.128V9.409A2.027,2.027,0,0,1,6.809,7.4H36.952a2.027,2.027,0,0,1,2.009,2.009V46.128a2.027,2.027,0,0,1-2.009,2.009H35.49" transform="translate(-4.8 -7.4)" fill="#0092ff"/>
        </g>
      </g>
      <g id="Group_49592" data-name="Group 49592" transform="translate(22.652 53.709)">
        <g id="Group_49591" data-name="Group 49591">
          <line id="Line_132" data-name="Line 132" x1="1.827" fill="#0092ff"/>
        </g>
      </g>
      <g id="Group_49594" data-name="Group 49594" transform="translate(4.385 29.412)">
        <g id="Group_49593" data-name="Group 49593">
          <path id="Path_37894" data-name="Path 37894" d="M15.055,19.688H8.844a1.644,1.644,0,1,1,0-3.288h6.211a1.644,1.644,0,1,1,0,3.288Z" transform="translate(-7.2 -16.4)" fill="#01165b"/>
        </g>
      </g>
      <g id="Group_49596" data-name="Group 49596" transform="translate(4.385 22.287)">
        <g id="Group_49595" data-name="Group 49595" transform="translate(0 0)">
          <path id="Path_37895" data-name="Path 37895" d="M22.911,15.788H8.844a1.644,1.644,0,1,1,0-3.288H22.911a1.637,1.637,0,0,1,1.644,1.644C24.372,15.058,23.824,15.788,22.911,15.788Z" transform="translate(-7.2 -12.5)" fill="#01165b"/>
        </g>
      </g>
      <path id="Path_37896" data-name="Path 37896" d="M42.944,12.54,31.069.483A.671.671,0,0,0,30.521.3L13.715,1.4a.807.807,0,0,0-.548,1.279L16.82,6.511l-2.74,7.307c-.183.365,0,.731.365,1.1a28.077,28.077,0,0,0,16.076,7.125l-.183,4.384c0,.731.548,1.279,1.1.913l2.558-2.923,2.375,4.2c.365.731,1.1.365,1.1-.365l.548-14.066,4.567-.365A.808.808,0,0,0,42.944,12.54Z" transform="translate(1.996 -0.301)" fill="#01165b"/>
    </g>
  </g>
</svg>
