<svg xmlns="http://www.w3.org/2000/svg" width="48" height="46.526" viewBox="0 0 48 46.526">
  <g id="Group_51250" data-name="Group 51250" transform="translate(-2723.578 -5513.495)">
    <g id="Group_51183" data-name="Group 51183" transform="translate(2723.578 5513.495)">
      <circle id="Ellipse_1673" data-name="Ellipse 1673" cx="23.263" cy="23.263" r="23.263" fill="#0092ff"/>
    </g>
    <g id="Group_51184" data-name="Group 51184" transform="translate(2732.058 5517.717)">
      <path id="Path_44727" data-name="Path 44727" d="M2751.089,5540.6c.229-.269.343-.423.476-.556q9.3-9.311,18.611-18.616a3,3,0,0,1,3.615-.725,4.055,4.055,0,0,1,.873.633c.43.393.833.816,1.242,1.231a3.024,3.024,0,0,1,.005,4.527q-2.88,2.9-5.779,5.784-8.7,8.706-17.4,17.416a2.048,2.048,0,0,1-2.259.645,2.38,2.38,0,0,1-.856-.559q-5.61-5.585-11.2-11.193a3.013,3.013,0,0,1-.007-4.49c.419-.427.841-.854,1.27-1.27a3,3,0,0,1,4.39.016q3.337,3.313,6.65,6.65A4.725,4.725,0,0,1,2751.089,5540.6Z" transform="translate(-2737.407 -5520.381)" fill="#01165b"/>
    </g>
  </g>
</svg>
