<svg xmlns="http://www.w3.org/2000/svg" xmlns:xlink="http://www.w3.org/1999/xlink" width="17.406" height="17.406" viewBox="0 0 17.406 17.406">
  <defs>
    <clipPath id="clip-path">
      <rect id="Rectangle_8144" data-name="Rectangle 8144" width="17.406" height="17.406" fill="#618da8"/>
    </clipPath>
  </defs>
  <g id="Group_46723" data-name="Group 46723" opacity="0.35" clip-path="url(#clip-path)">
    <path id="Path_36942" data-name="Path 36942" d="M17.406,6.382V4.145a2.371,2.371,0,0,0-2.331-2.4h-1.15V.58a.58.58,0,1,0-1.16,0v1.16H4.642V.58a.58.58,0,1,0-1.16,0v1.16H2.331A2.371,2.371,0,0,0,0,4.145V6.382Z" transform="translate(0 0)" fill="#618da8"/>
    <path id="Path_36943" data-name="Path 36943" d="M0,227.5v7.459a2.371,2.371,0,0,0,2.331,2.4H15.075a2.371,2.371,0,0,0,2.331-2.4V227.5Z" transform="translate(0 -219.958)" fill="#618da8"/>
  </g>
</svg>
