<svg xmlns="http://www.w3.org/2000/svg" width="25.701" height="25.69" viewBox="0 0 25.701 25.69">
  <g id="Group_46497" data-name="Group 46497" transform="translate(0.199 0.2)">
    <g id="Group_46359" data-name="Group 46359" transform="translate(-0.001 0)">
      <path id="Path_25807" data-name="Path 25807" d="M25.24,20.035a2.991,2.991,0,0,0-.169-.578,3.95,3.95,0,0,0-.594-1.033A9.6,9.6,0,0,0,21.134,15.9a3.784,3.784,0,0,0-4.226.677c-.405.351-.795.742-1.171,1.12l-.356.355a.489.489,0,0,1-.661.092,22.353,22.353,0,0,1-7.6-7.637.975.975,0,0,0-.1-.144l-.194-.239.266-.155c.035-.02.073-.039.11-.057a.538.538,0,0,0,.112-.064c.163-.173.33-.344.5-.515A14.5,14.5,0,0,0,9.008,8a3.65,3.65,0,0,0,.4-3.816,9.907,9.907,0,0,0-1.915-2.77,3.9,3.9,0,0,0-1.67-1.2C5.633.153,5.438.106,5.243.06L5,0H4.264A1.275,1.275,0,0,1,4.1.042,3.459,3.459,0,0,0,2,1.148,7.609,7.609,0,0,0,.049,5.774,12.087,12.087,0,0,0,.676,10.78a19.906,19.906,0,0,0,3.179,5.678,23.079,23.079,0,0,0,5.629,5.689c.059.046.117.1.176.141a.853.853,0,0,0,.237.13,17.424,17.424,0,0,0,3.568,1.8,14.216,14.216,0,0,0,4.369,1.046A8.409,8.409,0,0,0,23.7,23.684a3.756,3.756,0,0,0,1.478-2.07c.034-.132.062-.266.09-.4l.036-.169V20.3c-.023-.087-.042-.175-.062-.263" transform="translate(0)" fill="#044a75" stroke="#fff" stroke-width="0.4"/>
    </g>
  </g>
</svg>
