<svg xmlns="http://www.w3.org/2000/svg" width="48" height="55.301" viewBox="0 0 48 55.301">
  <g id="Group_51245" data-name="Group 51245" transform="translate(-780.876 -5542.109)">
    <g id="Group_51208" data-name="Group 51208" transform="translate(780.876 5561.194)">
      <path id="Path_44737" data-name="Path 44737" d="M803.333,5593.941a11.258,11.258,0,1,1,11.289-11.2A11.26,11.26,0,0,1,803.333,5593.941Z" transform="translate(-784.802 -5571.425)" fill="#0092ff"/>
      <path id="Rectangle_9192" data-name="Rectangle 9192" d="M18.473,0h.2A18.473,18.473,0,0,1,37.143,18.473v0a0,0,0,0,1,0,0H0a0,0,0,0,1,0,0v0A18.473,18.473,0,0,1,18.473,0Z" transform="translate(0 17.743)" fill="#0092ff"/>
    </g>
    <g id="Group_51211" data-name="Group 51211" transform="translate(783.069 5542.109)">
      <g id="Group_51209" data-name="Group 51209" transform="translate(16.464 25.717)">
        <path id="Path_44738" data-name="Path 44738" d="M827.276,5599.4a8.894,8.894,0,1,1,8.917-8.848A8.9,8.9,0,0,1,827.276,5599.4Z" transform="translate(-812.635 -5581.612)" fill="#01165b"/>
        <path id="Rectangle_9193" data-name="Rectangle 9193" d="M14.594,0h.156A14.594,14.594,0,0,1,29.344,14.594v0a0,0,0,0,1,0,0H0a0,0,0,0,1,0,0v0A14.594,14.594,0,0,1,14.594,0Z" transform="translate(0 14.989)" fill="#01165b"/>
      </g>
      <g id="Group_51210" data-name="Group 51210">
        <path id="Path_44739" data-name="Path 44739" d="M802.992,5542.109c-.766.641-1.523,1.291-2.3,1.922q-8.092,6.6-16.189,13.186c-.079.064-.15.136-.262.238l18.808,15.374V5563.3c1.018.14,1.991.216,2.939.412a21.158,21.158,0,0,1,15.18,11.371,40.193,40.193,0,0,1,1.757,4c.129.3.665-.437.853-.144.007-.092.485-1.45.485-1.542,0-2.62.006-.937-.006-3.557a22.371,22.371,0,0,0-18.308-21.879c-.818-.15-1.652-.215-2.478-.319-.127-.016-.255-.029-.4-.047v-9.483Z" transform="translate(-784.244 -5542.109)" fill="#01165b"/>
      </g>
    </g>
  </g>
</svg>
