<svg xmlns="http://www.w3.org/2000/svg" width="42.342" height="54.023" viewBox="0 0 42.342 54.023">
  <g id="Group_49623" data-name="Group 49623" transform="translate(-824.001 -366.001)">
    <g id="universty" transform="translate(824.001 366.001)">
      <g id="Group_49613" data-name="Group 49613" transform="translate(0 6.936)">
        <path id="Path_37914" data-name="Path 37914" d="M39.29,28.091V16.411a2.313,2.313,0,0,0-.73-1.643L26.331,4.548a2.217,2.217,0,0,0-2.92,0L11.365,14.586a1.982,1.982,0,0,0-.73,1.643V27.909H5.89A2.109,2.109,0,0,0,3.7,30.1V48.715a2.109,2.109,0,0,0,2.19,2.19H43.852a2.109,2.109,0,0,0,2.19-2.19V30.282a2.109,2.109,0,0,0-2.19-2.19H39.29Z" transform="translate(-3.7 -4)" fill="#0092ff"/>
      </g>
      <g id="Group_49614" data-name="Group 49614" transform="translate(13.688 36.867)">
        <rect id="Rectangle_8769" data-name="Rectangle 8769" width="15.148" height="17.156" fill="#01165b"/>
      </g>
      <g id="Group_49615" data-name="Group 49615" transform="translate(21.17)">
        <path id="Path_37915" data-name="Path 37915" d="M15.3.2V6.953l5.84-3.468Z" transform="translate(-15.3 -0.2)" fill="#01165b"/>
      </g>
      <g id="Group_49616" data-name="Group 49616" transform="translate(16.061 15.877)">
        <circle id="Ellipse_324" data-name="Ellipse 324" cx="5.11" cy="5.11" r="5.11" fill="#01165b"/>
      </g>
    </g>
  </g>
</svg>
