<svg id="Group_51133" data-name="Group 51133" xmlns="http://www.w3.org/2000/svg" width="158.559" height="37.531" viewBox="0 0 158.559 37.531">
  <g id="Group_51098" data-name="Group 51098">
    <g id="Group_51083" data-name="Group 51083">
      <path id="Path_44678" data-name="Path 44678" d="M632.6,2591.1l-5.765,5.726L609.912,2579.6a2.851,2.851,0,0,1,2.934-.022Z" transform="translate(-607.598 -2579.178)" fill="#fff"/>
      <path id="Path_44679" data-name="Path 44679" d="M630.678,2683.74l-19.9,11.608a2.865,2.865,0,0,1-3.443-.41l17.434-17.231Z" transform="translate(-605.533 -2658.213)" fill="#fff"/>
      <path id="Path_44680" data-name="Path 44680" d="M711.773,2652.507l-5.7,3.328-.045.027-5.907-6.033,5.765-5.726.045.026,5.846,3.411A2.876,2.876,0,0,1,711.773,2652.507Z" transform="translate(-679.956 -2631.257)" fill="#fff"/>
      <path id="Path_44681" data-name="Path 44681" d="M599.1,2620.413l-.036-.035a2.836,2.836,0,0,1-.845-2.039v-29.926a2.845,2.845,0,0,1,1.347-2.436l.044-.027,16.925,17.232Z" transform="translate(-598.219 -2584.61)" fill="#fff"/>
    </g>
    <g id="Group_51095" data-name="Group 51095" transform="translate(48.309 15.245)">
      <g id="Group_51090" data-name="Group 51090">
        <g id="Group_51084" data-name="Group 51084">
          <path id="Path_44682" data-name="Path 44682" d="M858.972,2663.826H850.7v2.292h5.8a6.015,6.015,0,1,1-1.733-6.009l1.622-1.622a8.306,8.306,0,1,0,2.614,6.048C859,2664.3,858.992,2664.06,858.972,2663.826Z" transform="translate(-842.389 -2656.23)" fill="#fff"/>
        </g>
        <g id="Group_51086" data-name="Group 51086" transform="translate(17.808 5.879)">
          <g id="Group_51085" data-name="Group 51085">
            <path id="Path_44683" data-name="Path 44683" d="M937.709,2685.943a5.347,5.347,0,1,0,5.312,5.347A5.329,5.329,0,0,0,937.709,2685.943Zm0,8.57a3.148,3.148,0,1,1,2.907-3.139A3.03,3.03,0,0,1,937.709,2694.513Z" transform="translate(-932.397 -2685.943)" fill="#fff"/>
          </g>
        </g>
        <g id="Group_51088" data-name="Group 51088" transform="translate(29.627 5.879)">
          <g id="Group_51087" data-name="Group 51087">
            <path id="Path_44684" data-name="Path 44684" d="M997.445,2685.943a5.347,5.347,0,1,0,5.312,5.347A5.329,5.329,0,0,0,997.445,2685.943Zm0,8.57a3.148,3.148,0,1,1,2.907-3.139A3.029,3.029,0,0,1,997.445,2694.513Z" transform="translate(-992.133 -2685.943)" fill="#fff"/>
          </g>
        </g>
        <g id="Group_51089" data-name="Group 51089" transform="translate(52.476)">
          <rect id="Rectangle_9171" data-name="Rectangle 9171" width="2.293" height="16.784" fill="#fff"/>
        </g>
        <path id="Path_44685" data-name="Path 44685" d="M1133.479,2692.363a3.131,3.131,0,0,1-5.285.546l7.788-3.051-.12-.405c-.045-.15-.1-.3-.15-.438a5.418,5.418,0,1,0-.149,4.3l.2-.429-2.093-.915Zm-.72-3.7-5.209,2.04a3.132,3.132,0,0,1,5.209-2.04Z" transform="translate(-1069.284 -2679.765)" fill="#fff"/>
        <path id="Path_44686" data-name="Path 44686" d="M1059.412,2685.943v.942a4.467,4.467,0,0,0-2.729-.942,5.376,5.376,0,0,0,0,10.693,4.469,4.469,0,0,0,2.729-.942v1.154a2.521,2.521,0,0,1-2.639,2.494,2.909,2.909,0,0,1-2.772-1.934l-2.078.969s.781,3.052,5.056,3.052a4.347,4.347,0,0,0,4.117-2.576,6.079,6.079,0,0,0,.609-2.69v-10.219Zm-2.729,8.57a3.187,3.187,0,1,1,2.635-3.139A2.92,2.92,0,0,1,1056.683,2694.513Z" transform="translate(-1010.423 -2680.064)" fill="#fff"/>
      </g>
      <g id="Group_51093" data-name="Group 51093" transform="translate(74.643)">
        <g id="Group_51091" data-name="Group 51091">
          <rect id="Rectangle_9172" data-name="Rectangle 9172" width="2.293" height="16.784" fill="#fff"/>
        </g>
        <g id="Group_51092" data-name="Group 51092" transform="translate(5.502)">
          <path id="Path_44687" data-name="Path 44687" d="M1247.47,2656.23v2.293a3.148,3.148,0,0,1,0,6.277v2.124a5.347,5.347,0,0,0,0-10.694Z" transform="translate(-1247.47 -2656.23)" fill="#fff"/>
        </g>
        <rect id="Rectangle_9173" data-name="Rectangle 9173" width="3.851" height="2.293" transform="translate(1.651)" fill="#fff"/>
        <rect id="Rectangle_9174" data-name="Rectangle 9174" width="3.851" height="2.123" transform="translate(1.651 8.57)" fill="#fff"/>
      </g>
      <g id="Group_51094" data-name="Group 51094" transform="translate(86.65)">
        <rect id="Rectangle_9175" data-name="Rectangle 9175" width="2.293" height="16.784" fill="#fff"/>
      </g>
      <path id="Path_44688" data-name="Path 44688" d="M1304.274,2696.041l.281-.3v1.605h1.93v-6.927a5.41,5.41,0,0,0-.231-1.673,2.505,2.505,0,0,0-.712-1.116,3.136,3.136,0,0,0-1.263-.648,7.292,7.292,0,0,0-1.9-.216,7.21,7.21,0,0,0-1.214.1,8.062,8.062,0,0,0-1.089.26,6.3,6.3,0,0,0-.769.3l.122,1.816c.141-.071.3-.146.477-.225a7.211,7.211,0,0,1,.971-.344,4.693,4.693,0,0,1,1.264-.158,3.2,3.2,0,0,1,.92.115,1.423,1.423,0,0,1,.635.381,1.5,1.5,0,0,1,.341.637,3.255,3.255,0,0,1,.1.839v.748h-1.106a11.543,11.543,0,0,0-2.234.192,4.774,4.774,0,0,0-1.578.58,2.549,2.549,0,0,0-.929.968,2.942,2.942,0,0,0-.312,1.392,3.193,3.193,0,0,0,.246,1.3,2.526,2.526,0,0,0,.688.923,3.047,3.047,0,0,0,1.06.566,4.607,4.607,0,0,0,1.367.193,3.811,3.811,0,0,0,1.627-.342A4.257,4.257,0,0,0,1304.274,2696.041Zm-1.2-.618a2.168,2.168,0,0,1-1.141.316,1.7,1.7,0,0,1-1.177-.389,1.38,1.38,0,0,1-.438-1.074,1.588,1.588,0,0,1,.152-.706,1.37,1.37,0,0,1,.484-.535,2.33,2.33,0,0,1,.816-.317,5.769,5.769,0,0,1,1.161-.1h1.2v1.872l-.041.046A4.568,4.568,0,0,1,1303.074,2695.424Z" transform="translate(-1207.838 -2680.723)" fill="#fff"/>
      <path id="Path_44689" data-name="Path 44689" d="M1354.936,2686.853l-1.676,3.875-1.03,2.383-.7-1.614-2.009-4.644h-2.5l3.257,7.532.726,1.679-1.891,4.62h2.5l1.644-4.18,1.249-2.888,2.925-6.763Z" transform="translate(-1247.184 -2680.794)" fill="#fff"/>
    </g>
    <g id="Group_51097" data-name="Group 51097" transform="translate(48.309 0.922)">
      <g id="Group_51096" data-name="Group 51096" transform="translate(9.457)">
        <path id="Path_44690" data-name="Path 44690" d="M894.643,2592.356a.774.774,0,0,1-.013.148.319.319,0,0,1-.042.109.2.2,0,0,1-.068.068.165.165,0,0,1-.083.022h-3.892a.41.41,0,0,1-.238-.087.364.364,0,0,1-.122-.318v-7.5a.365.365,0,0,1,.122-.318.412.412,0,0,1,.238-.087h3.834a.163.163,0,0,1,.083.022.177.177,0,0,1,.064.068.366.366,0,0,1,.038.112.846.846,0,0,1,.013.157.759.759,0,0,1-.013.148.321.321,0,0,1-.038.106.186.186,0,0,1-.064.064.161.161,0,0,1-.083.022h-3.41v2.921h2.941a.174.174,0,0,1,.09.023.185.185,0,0,1,.064.064.32.32,0,0,1,.038.109.838.838,0,0,1,.013.158.7.7,0,0,1-.013.145.284.284,0,0,1-.038.1.169.169,0,0,1-.064.058.2.2,0,0,1-.09.019h-2.941V2592h3.468a.163.163,0,0,1,.083.023.21.21,0,0,1,.068.064.29.29,0,0,1,.042.109A.869.869,0,0,1,894.643,2592.356Z" transform="translate(-890.186 -2584.283)" fill="#fff"/>
        <path id="Path_44691" data-name="Path 44691" d="M923.233,2584.752a.745.745,0,0,1-.013.148.32.32,0,0,1-.038.106.186.186,0,0,1-.064.064.161.161,0,0,1-.083.022h-2.479v7.481a.135.135,0,0,1-.019.071.132.132,0,0,1-.064.052.541.541,0,0,1-.122.032,1.322,1.322,0,0,1-.372,0,.544.544,0,0,1-.122-.032.132.132,0,0,1-.064-.052.135.135,0,0,1-.019-.071v-7.481h-2.479a.156.156,0,0,1-.087-.022.2.2,0,0,1-.061-.064.314.314,0,0,1-.039-.106.741.741,0,0,1-.013-.148.827.827,0,0,1,.013-.157.358.358,0,0,1,.039-.112.185.185,0,0,1,.061-.068.159.159,0,0,1,.087-.022h5.741a.163.163,0,0,1,.083.022.177.177,0,0,1,.064.068.364.364,0,0,1,.038.112A.831.831,0,0,1,923.233,2584.752Z" transform="translate(-911.77 -2584.283)" fill="#fff"/>
        <path id="Path_44692" data-name="Path 44692" d="M970.622,2592.417a.132.132,0,0,1-.019.071.135.135,0,0,1-.064.052.57.57,0,0,1-.119.032,1.17,1.17,0,0,1-.189.013,1.185,1.185,0,0,1-.186-.013.571.571,0,0,1-.122-.032.134.134,0,0,1-.064-.052.131.131,0,0,1-.019-.071v-8.053a.121.121,0,0,1,.022-.071.153.153,0,0,1,.071-.052.613.613,0,0,1,.122-.032.993.993,0,0,1,.177-.013,1.082,1.082,0,0,1,.189.013.543.543,0,0,1,.119.032.126.126,0,0,1,.083.122Z" transform="translate(-954.08 -2584.127)" fill="#fff"/>
        <path id="Path_44693" data-name="Path 44693" d="M986.625,2584.752a.74.74,0,0,1-.013.148.317.317,0,0,1-.038.106.188.188,0,0,1-.064.064.162.162,0,0,1-.083.022h-2.479v7.481a.135.135,0,0,1-.019.071.132.132,0,0,1-.064.052.542.542,0,0,1-.122.032,1.321,1.321,0,0,1-.372,0,.543.543,0,0,1-.122-.032.132.132,0,0,1-.064-.052.134.134,0,0,1-.019-.071v-7.481h-2.479a.155.155,0,0,1-.087-.022.2.2,0,0,1-.061-.064.322.322,0,0,1-.038-.106.75.75,0,0,1-.013-.148.837.837,0,0,1,.013-.157.368.368,0,0,1,.038-.112.189.189,0,0,1,.061-.068.157.157,0,0,1,.087-.022h5.741a.164.164,0,0,1,.083.022.178.178,0,0,1,.064.068.361.361,0,0,1,.038.112A.826.826,0,0,1,986.625,2584.752Z" transform="translate(-962.62 -2584.283)" fill="#fff"/>
        <path id="Path_44694" data-name="Path 44694" d="M1037.86,2588.009a6.613,6.613,0,0,1-.228,1.8,3.84,3.84,0,0,1-.684,1.374,3.024,3.024,0,0,1-1.15.877,4.432,4.432,0,0,1-3.208.016,2.789,2.789,0,0,1-1.092-.835,3.554,3.554,0,0,1-.629-1.326,7.081,7.081,0,0,1-.2-1.766,6.514,6.514,0,0,1,.225-1.772,3.7,3.7,0,0,1,.684-1.358,3.08,3.08,0,0,1,1.15-.871,3.943,3.943,0,0,1,1.621-.309,3.9,3.9,0,0,1,1.567.289,2.841,2.841,0,0,1,1.095.829,3.532,3.532,0,0,1,.642,1.31A6.65,6.65,0,0,1,1037.86,2588.009Zm-.835.071a6.6,6.6,0,0,0-.138-1.384,3.238,3.238,0,0,0-.456-1.124,2.223,2.223,0,0,0-.844-.751,2.817,2.817,0,0,0-1.3-.273,2.713,2.713,0,0,0-1.3.286,2.43,2.43,0,0,0-.86.767,3.208,3.208,0,0,0-.475,1.124,6.142,6.142,0,0,0-.145,1.355,7.093,7.093,0,0,0,.132,1.409,3.209,3.209,0,0,0,.446,1.134,2.188,2.188,0,0,0,.841.754,2.84,2.84,0,0,0,1.317.273,2.715,2.715,0,0,0,1.317-.292,2.412,2.412,0,0,0,.86-.784,3.3,3.3,0,0,0,.469-1.136A6.346,6.346,0,0,0,1037.025,2588.079Z" transform="translate(-1002.873 -2583.841)" fill="#fff"/>
        <path id="Path_44695" data-name="Path 44695" d="M1082.692,2592.271a.463.463,0,0,1-.035.193.375.375,0,0,1-.09.125.318.318,0,0,1-.122.067.462.462,0,0,1-.125.019h-.16a.812.812,0,0,1-.234-.032.623.623,0,0,1-.205-.112,1.161,1.161,0,0,1-.2-.215,3.664,3.664,0,0,1-.222-.347l-2.928-5.189q-.218-.378-.44-.78t-.421-.78h-.007c0,.313.007.633.007.96v6.342a.136.136,0,0,1-.02.071.134.134,0,0,1-.064.051.534.534,0,0,1-.119.032,1.343,1.343,0,0,1-.375,0,.526.526,0,0,1-.122-.032.135.135,0,0,1-.064-.051.137.137,0,0,1-.019-.071v-7.777a.364.364,0,0,1,.122-.318.408.408,0,0,1,.238-.087h.321a1.071,1.071,0,0,1,.257.026.516.516,0,0,1,.186.087.746.746,0,0,1,.164.173,3.134,3.134,0,0,1,.177.286l2.241,3.975q.212.372.4.716t.369.674q.18.331.357.652t.35.649h.006q-.006-.54-.006-1.125v-5.959a.135.135,0,0,1,.019-.071.153.153,0,0,1,.064-.055.388.388,0,0,1,.119-.032,1.53,1.53,0,0,1,.19-.01,1.488,1.488,0,0,1,.18.01.392.392,0,0,1,.122.032.179.179,0,0,1,.067.055.119.119,0,0,1,.023.071Z" transform="translate(-1039.819 -2584.231)" fill="#fff"/>
      </g>
      <path id="Path_44696" data-name="Path 44696" d="M842.389,2588.877a4.066,4.066,0,0,0,8.132,0c0-.056,0-.114,0-.172h-3.87v.791h3.034l-.066.243a3.275,3.275,0,1,1-1.083-3.393l.562-.562a4.066,4.066,0,0,0-6.7,3.093Z" transform="translate(-842.389 -2584.62)" fill="#fff"/>
    </g>
  </g>
</svg>
