<?xml version="1.0" encoding="utf-8"?>
<!-- Generator: Adobe Illustrator 25.4.1, SVG Export Plug-In . SVG Version: 6.00 Build 0)  -->
<svg version="1.1" id="katman_1" xmlns="http://www.w3.org/2000/svg" xmlns:xlink="http://www.w3.org/1999/xlink" x="0px" y="0px"
	 viewBox="0 0 30 30" style="enable-background:new 0 0 30 30;" xml:space="preserve">
<style type="text/css">
	.st0{fill:#3098FA;}
	.st1{fill:#FDFFFF;}
</style>
<g>
	<g>
		<g>
			<path class="st0" d="M19.7,7.9c0,1.2,0,2.3,0,3.5c0,0.4-0.1,0.6-0.6,0.6c-0.3,0-0.5,0-0.8,0c-1.3,0-1.3,0-1.2-1.3
				c0-1.8,0-3.7,0-5.5c0-1.5-0.8-2.3-2.3-2.3c-1.2,0.1-1.9,0.9-1.9,2.3c0,2-0.1,4,0,6c0,0.4-0.3,0.8-0.8,0.7c-0.3,0-0.7-0.1-1,0
				c-0.7,0.1-1-0.2-0.9-0.9c0.2-2,0-4,0.1-5.9c0.1-2.1,1.5-4,3.6-4.4c2.3-0.5,4.6,0.5,5.5,2.4c0.3,0.7,0.4,1.5,0.4,2.3
				C19.7,6.1,19.7,7,19.7,7.9C19.7,7.9,19.7,7.9,19.7,7.9z"/>
		</g>
	</g>
	<g id="Rectangle_8117_00000063593781536763420390000016685094865098935697_">
		<path class="st1" d="M15,5.8L15,5.8c6.2,0,11.2,5,11.2,11.2v12c0,0.4-0.3,0.7-0.7,0.7h-21c-0.4,0-0.7-0.3-0.7-0.7V17
			C3.8,10.8,8.8,5.8,15,5.8z"/>
	</g>
	<g>
		<path class="st1" d="M27.5,26.8H2.7c-0.3,0-0.6-0.3-0.6-0.6v-4.9c0-0.3,0.3-0.6,0.6-0.6h24.8c0.3,0,0.6,0.3,0.6,0.6v4.9
			C28.1,26.5,27.8,26.8,27.5,26.8z"/>
	</g>
	<g>
		<path class="st0" d="M19.4,24.8l-4.6,1.5l-4.6-1.5c-0.4,0-0.7-0.2-0.7-0.5V20c0-0.3,0.3-0.5,0.7-0.5h9.2c0.4,0,0.7,0.2,0.7,0.5
			v4.3C20.1,24.6,19.8,24.8,19.4,24.8z"/>
	</g>
</g>
</svg>
