<svg xmlns="http://www.w3.org/2000/svg" width="24.651" height="46.603" viewBox="0 0 24.651 46.603">
  <g id="Group_49630" data-name="Group 49630" transform="translate(-1031.654 -1971.999)">
    <g id="mission" transform="translate(1031.654 1971.999)">
      <path id="Path_37897" data-name="Path 37897" d="M24.226,19.617a3.5,3.5,0,0,0-.48.8H10.62A37.464,37.464,0,0,1,9.18,16.575a7.1,7.1,0,0,1,1.12-5.923,19.828,19.828,0,0,1,2.881-3.522A6.345,6.345,0,0,0,15.1,2.809,2.066,2.066,0,0,1,16.543.728,2.156,2.156,0,0,1,19.1.889c3.842,3.522,6.723,7.523,7.043,12.966A12.338,12.338,0,0,1,24.226,19.617Z" transform="translate(-5.338 -0.386)" fill="#01165b"/>
      <path id="Path_37898" data-name="Path 37898" d="M18.6,15.9c0,.16-.16.16-.16.32H12.674a16.608,16.608,0,0,0-.64-1.6,2.926,2.926,0,0,1,.48-2.561,11.215,11.215,0,0,1,1.281-1.6,2.57,2.57,0,0,0,.8-1.761.878.878,0,0,1,.64-.96.986.986,0,0,1,1.12.16A8.177,8.177,0,0,1,19.4,13.5,4.313,4.313,0,0,1,18.6,15.9Z" transform="translate(-3.549 3.968)" fill="#0092ff"/>
      <path id="Path_37899" data-name="Path 37899" d="M26.389,23.425c-.48.32-.8.48-.8,1.12,0,.48-.16.96-.16,1.441l-.96,8.164v.48c-.16,1.12-.32,2.4-.48,3.522s-.64,1.441-1.6,1.441H15.664c-1.12,0-1.441-.32-1.6-1.441-.16-1.281-.32-2.4-.48-3.682a23.881,23.881,0,0,1-.32-3.361c-.16-1.761-.48-3.522-.64-5.442,0-.48-.16-.96-.16-1.281a1.426,1.426,0,0,0-.8-1.281C8.141,21.184,6.7,18.142,6.7,14.3c0-1.12.64-1.6,1.761-1.6H30.23a1.219,1.219,0,0,1,1.12,1.281C31.351,18.3,29.91,21.5,26.389,23.425Z" transform="translate(-6.699 7.011)" fill="#0092ff"/>
      <path id="Path_37900" data-name="Path 37900" d="M23.266,21.06l-.96,8.164v.48H11.26a23.881,23.881,0,0,1-.32-3.361c-.16-1.761-.48-3.522-.64-5.442H23.266Z" transform="translate(-4.537 11.937)" fill="#01165b"/>
    </g>
  </g>
</svg>
