<svg id="Group_50391" data-name="Group 50391" xmlns="http://www.w3.org/2000/svg" width="52.865" height="52.863" viewBox="0 0 52.865 52.863">
  <path id="Path_26807" data-name="Path 26807" d="M16.232,25.051a16.149,16.149,0,0,0,8.817-2.607A26.745,26.745,0,0,0,2.607,0,16.229,16.229,0,0,0,16.232,25.051" transform="translate(27.814)" fill="#4090f7"/>
  <path id="Path_26808" data-name="Path 26808" d="M25.051,8.818A16.152,16.152,0,0,0,22.444,0,26.744,26.744,0,0,0,0,22.444,16.229,16.229,0,0,0,25.051,8.818" fill="#4090f7"/>
  <path id="Path_26809" data-name="Path 26809" d="M0,16.232a16.152,16.152,0,0,0,2.607,8.818A26.745,26.745,0,0,0,25.051,2.607,16.229,16.229,0,0,0,0,16.232" transform="translate(27.814 27.813)" fill="#4090f7"/>
  <path id="Path_26810" data-name="Path 26810" d="M8.818,0A16.152,16.152,0,0,0,0,2.607,26.746,26.746,0,0,0,22.444,25.051,16.229,16.229,0,0,0,8.818,0" transform="translate(0 27.813)" fill="#4090f7"/>
</svg>
