<svg xmlns="http://www.w3.org/2000/svg" width="48" height="51.749" viewBox="0 0 48 51.749">
  <g id="Group_51251" data-name="Group 51251" transform="translate(-2708.401 -5659.412)">
    <g id="Group_51179" data-name="Group 51179" transform="translate(2708.401 5659.412)">
      <path id="Path_44722" data-name="Path 44722" d="M2762.87,5659.432a.712.712,0,0,1,.53,1.209c-.506.519-1.015,1.045-1.48,1.517-.707.715-1.384,1.461-2.094,2.171a1.32,1.32,0,0,0-.39.932q.014,11.816,0,23.634a7.273,7.273,0,0,1-6.083,7.38,7.015,7.015,0,0,1-1.163.078q-8,.012-16,0a7.2,7.2,0,0,1-7.286-7.421q-.07-11.049,0-22.1a7.182,7.182,0,0,1,7.23-7.416c9.261-.015,15.914,0,25.176,0,.143,0,.285.013.428.019A9.2,9.2,0,0,0,2762.87,5659.432Z" transform="translate(-2715.604 -5659.412)" fill="#0092ff"/>
      <path id="Path_44723" data-name="Path 44723" d="M2709.1,5720.122a.679.679,0,0,1-.5-1.152c.482-.494.967-1,1.41-1.444.673-.682,1.318-1.393,1.994-2.07a1.253,1.253,0,0,0,.371-.888q-.013-11.257,0-22.518a6.929,6.929,0,0,1,5.8-7.033,6.723,6.723,0,0,1,1.108-.074q7.623-.011,15.245,0a6.862,6.862,0,0,1,6.943,7.071q.066,10.529,0,21.057a6.843,6.843,0,0,1-6.889,7.066c-8.825.014-15.163,0-23.988,0-.136,0-.271-.011-.408-.018A8.686,8.686,0,0,0,2709.1,5720.122Z" transform="translate(-2708.401 -5668.393)" fill="#01165b"/>
    </g>
    <g id="Group_51181" data-name="Group 51181" transform="translate(2728.189 5666.943)">
      <g id="Group_51180" data-name="Group 51180">
        <path id="Path_44724" data-name="Path 44724" d="M2755.612,5674.063h-15.165a1.516,1.516,0,1,1,0-3.031h15.165a1.516,1.516,0,0,1,0,3.031Z" transform="translate(-2738.931 -5671.032)" fill="#01165b"/>
      </g>
    </g>
    <path id="Path_44725" data-name="Path 44725" d="M2731.9,5709.561a12.3,12.3,0,0,1,.145-1.716,2.748,2.748,0,0,1,2.641-2.233,2.409,2.409,0,0,0,2.422-2.535,2.529,2.529,0,0,0-2.585-2.527c-.461,0-.922-.01-1.383,0a1.972,1.972,0,0,0-1.95,2c-.03.832-.517,1.374-1.209,1.346s-1.137-.594-1.1-1.436a4.3,4.3,0,0,1,4.24-4.3,12.884,12.884,0,0,1,2.423.1,4.909,4.909,0,0,1,3.864,5.463,4.7,4.7,0,0,1-4.449,4.335c-.524.031-.7.216-.7.772-.006.626.007,1.253,0,1.88a1.157,1.157,0,1,1-2.308-.014c-.007-.379,0-.759,0-1.138Z" transform="translate(-7.203 -13.631)" fill="#0092ff"/>
    <path id="Path_44726" data-name="Path 44726" d="M2733.637,5723.514a1.2,1.2,0,0,1,1.193-1.2,1.186,1.186,0,0,1,1.127,1.215,1.161,1.161,0,1,1-2.321-.012Z" transform="translate(-8.879 -22.13)" fill="#0092ff"/>
  </g>
</svg>
