<svg xmlns="http://www.w3.org/2000/svg" width="22.807" height="20.527" viewBox="0 0 22.807 20.527">
  <g id="Message" opacity="0.3">
    <path id="Message-2" data-name="Message" d="M17.036,20.526H5.77A5.771,5.771,0,0,1,0,14.768V5.759A5.771,5.771,0,0,1,5.77,0H17.036a5.806,5.806,0,0,1,4.083,1.689,5.715,5.715,0,0,1,1.688,4.069v9.009A5.771,5.771,0,0,1,17.036,20.526ZM4.6,5.982a.836.836,0,0,0-.609.256.871.871,0,0,0-.081,1.14l.15.148,5.188,4.049a3.568,3.568,0,0,0,2.224.775,3.626,3.626,0,0,0,2.233-.775L18.85,7.458l.091-.091a.883.883,0,0,0-.013-1.14.948.948,0,0,0-.6-.3h-.048a.866.866,0,0,0-.592.229l-5.142,4.105a1.785,1.785,0,0,1-1.136.411,1.816,1.816,0,0,1-1.144-.411L5.132,6.158A.887.887,0,0,0,4.6,5.982Z" transform="translate(0 0)" fill="#01165b"/>
  </g>
</svg>
