<svg xmlns="http://www.w3.org/2000/svg" xmlns:xlink="http://www.w3.org/1999/xlink" width="15.988" height="15.988" viewBox="0 0 15.988 15.988">
  <defs>
    <clipPath id="clip-path">
      <rect id="Rectangle_8133" data-name="Rectangle 8133" width="15.988" height="15.988" fill="#77db77"/>
    </clipPath>
  </defs>
  <g id="Group_46706" data-name="Group 46706" clip-path="url(#clip-path)">
    <path id="Path_36935" data-name="Path 36935" d="M15.988,5.862V3.807A2.178,2.178,0,0,0,13.847,1.6H12.79V.533a.533.533,0,1,0-1.066,0V1.6H4.264V.533A.533.533,0,1,0,3.2.533V1.6H2.141A2.178,2.178,0,0,0,0,3.807V5.862Z" transform="translate(0 0)" fill="#77db77"/>
    <path id="Path_36936" data-name="Path 36936" d="M0,227.5v6.851a2.178,2.178,0,0,0,2.141,2.208H13.847a2.178,2.178,0,0,0,2.141-2.208V227.5Z" transform="translate(0 -220.572)" fill="#77db77"/>
  </g>
</svg>
