<svg xmlns="http://www.w3.org/2000/svg" width="15.027" height="18.338" viewBox="0 0 15.027 18.338">
  <g id="aboutus" transform="translate(-1.1 -0.3)">
    <path id="Path_37966" data-name="Path 37966" d="M16.127,14.9a2,2,0,0,1-2.165,1.656H3.392A2.178,2.178,0,0,1,1.1,14.395a8.6,8.6,0,0,1,.255-1.783A6.536,6.536,0,0,1,7.467,7.9H10.4A6.352,6.352,0,0,1,16,13.249,7.833,7.833,0,0,1,16.127,14.9Z" transform="translate(0 2.078)" fill="#c8d7e0"/>
    <path id="Path_37967" data-name="Path 37967" d="M12.26,4.63a4.33,4.33,0,1,1-8.66,0,4.33,4.33,0,0,1,8.66,0Z" transform="translate(0.684)" fill="#c8d7e0"/>
  </g>
</svg>
