<svg xmlns="http://www.w3.org/2000/svg" width="44.514" height="49.869" viewBox="0 0 44.514 49.869">
  <g id="Group_49622" data-name="Group 49622" transform="translate(-797.001 -230)">
    <g id="highschool" transform="translate(797.001 230)">
      <g id="Group_49557" data-name="Group 49557" transform="translate(13.836)">
        <g id="Group_49556" data-name="Group 49556">
          <path id="Path_37875" data-name="Path 37875" d="M26.478,13.118V19.11c0,.685-.171,1.027-1.027,1.027h-1.37c-2.226,0-2.226,0-2.054-2.226V8.5c0-2.568-1.37-3.938-3.938-3.938C16.034,4.729,14.836,6.1,14.836,8.5c0,3.424-.171,6.848,0,10.272a1.14,1.14,0,0,1-1.37,1.2,5.739,5.739,0,0,0-1.712,0q-1.8.257-1.541-1.541c.342-3.424,0-6.848.171-10.1A7.87,7.87,0,0,1,16.548.791c3.938-.856,7.875.856,9.416,4.109a10.045,10.045,0,0,1,.685,3.938,33.026,33.026,0,0,0-.171,4.28Z" transform="translate(-10.181 -0.572)" fill="#01165b"/>
        </g>
      </g>
      <g id="Rectangle_8117_00000063593781536763420390000016685094865098935697_" transform="translate(2.912 8.951)">
        <path id="Path_37876" data-name="Path 37876" d="M22.975,5.8h0A19.144,19.144,0,0,1,42.15,24.975V45.52a1.17,1.17,0,0,1-1.2,1.2H5a1.17,1.17,0,0,1-1.2-1.2V24.975A19.144,19.144,0,0,1,22.975,5.8Z" transform="translate(-3.8 -5.8)" fill="#0092ff"/>
      </g>
      <g id="Group_49558" data-name="Group 49558" transform="translate(0 34.461)">
        <path id="Path_37877" data-name="Path 37877" d="M45.586,31.144H3.127A1.1,1.1,0,0,1,2.1,30.116V21.727A1.1,1.1,0,0,1,3.127,20.7H45.586a1.1,1.1,0,0,1,1.027,1.027v8.389A1.1,1.1,0,0,1,45.586,31.144Z" transform="translate(-2.1 -20.7)" fill="#0092ff"/>
      </g>
      <g id="Group_49559" data-name="Group 49559" transform="translate(12.67 32.406)">
        <path id="Path_37878" data-name="Path 37878" d="M26.449,28.574l-7.875,2.568L10.7,28.574c-.685,0-1.2-.342-1.2-.856V20.356c0-.514.514-.856,1.2-.856H26.449c.685,0,1.2.342,1.2.856v7.362C27.648,28.231,27.134,28.574,26.449,28.574Z" transform="translate(-9.5 -19.5)" fill="#01165b"/>
      </g>
    </g>
  </g>
</svg>
