<?xml version="1.0" encoding="utf-8"?>
<!-- Generator: Adobe Illustrator 25.4.1, SVG Export Plug-In . SVG Version: 6.00 Build 0)  -->
<svg version="1.1" id="katman_1" xmlns="http://www.w3.org/2000/svg" xmlns:xlink="http://www.w3.org/1999/xlink" x="0px" y="0px"
	 viewBox="0 0 30 30" style="enable-background:new 0 0 30 30;" xml:space="preserve">
<style type="text/css">
	.st0{fill:#3098FA;}
	.st1{fill:#FFFFFF;}
</style>
<g>
	<path class="st0" d="M28.6,29.6H3.7c-1.9,0-3.4-1.5-3.4-3.4v-0.3c0-1.9,1.5-3.4,3.4-3.4h24.9V29.6z"/>
</g>
<g>
	<path class="st1" d="M4.8,22.5h19.7c1.9,0,3.4-1.5,3.4-3.4v-0.3c0-1.9-1.5-3.4-3.4-3.4H4.8V22.5z"/>
</g>
<g>
	<path class="st0" d="M24.4,15.4H4.7c-1.9,0-3.4-1.5-3.4-3.4v-0.3c0-1.9,1.5-3.4,3.4-3.4h19.7C24.4,8.3,24.4,15.4,24.4,15.4z"/>
</g>
<g>
	<circle class="st1" cx="19.5" cy="5.2" r="3.9"/>
</g>
<g>
	<circle class="st1" cx="10.8" cy="5.2" r="3.9"/>
</g>
<g>
	<path class="st1" d="M17,5.9h-4.6c-0.4,0-0.6-0.3-0.6-0.6s0.3-0.6,0.6-0.6H17c0.4,0,0.6,0.3,0.6,0.6S17.3,5.9,17,5.9z"/>
</g>
<g>
	<path class="st0" d="M11.2,7.8c-0.2,0-0.4,0-0.6-0.1c-0.3-0.1-0.5-0.5-0.4-0.8s0.5-0.5,0.8-0.4s0.5,0,0.6-0.3s0.5-0.5,0.8-0.4
		C12.8,6,13,6.4,12.8,6.7C12.5,7.6,11.8,7.8,11.2,7.8z"/>
</g>
<g>
	<path class="st0" d="M20.4,7.8c-0.2,0-0.4,0-0.6-0.1c-0.3-0.1-0.5-0.5-0.4-0.8s0.5-0.5,0.8-0.4s0.5,0,0.6-0.3s0.5-0.5,0.8-0.4
		C22,6,22.2,6.4,22,6.7C21.7,7.6,21,7.8,20.4,7.8z"/>
</g>
</svg>
