<svg id="Group_49294" data-name="Group 49294" xmlns="http://www.w3.org/2000/svg" xmlns:xlink="http://www.w3.org/1999/xlink" width="22.396" height="20.413" viewBox="0 0 22.396 20.413">
  <defs>
    <clipPath id="clip-path">
      <rect id="Rectangle_8729" data-name="Rectangle 8729" width="22.396" height="20.413" fill="#81a4b9"/>
    </clipPath>
  </defs>
  <g id="Group_49293" data-name="Group 49293" clip-path="url(#clip-path)">
    <path id="Path_37775" data-name="Path 37775" d="M22.2,10.647,11.842.279a.9.9,0,0,0-1.3,0L.177,10.647a.709.709,0,0,0,1,1l1.589-1.585v9.425a.92.92,0,0,0,.92.924H7.8a.92.92,0,0,0,.9-.924V15.22a2.563,2.563,0,0,1,2.334-2.6,2.468,2.468,0,0,1,2.6,2.464v4.385a.92.92,0,0,0,.9.924H18.65a.92.92,0,0,0,.9-.924V10.041l1.589,1.585a.724.724,0,0,0,1.068-.978Z" transform="translate(0)" fill="#81a4b9"/>
  </g>
</svg>
