<svg xmlns="http://www.w3.org/2000/svg" width="48" height="49.612" viewBox="0 0 48 49.612">
  <g id="Group_51244" data-name="Group 51244" transform="translate(-782.789 -5196.519)">
    <g id="Group_51221" data-name="Group 51221" transform="translate(782.789 5196.519)">
      <g id="Group_51214" data-name="Group 51214">
        <g id="Group_51213" data-name="Group 51213">
          <path id="Path_44740" data-name="Path 44740" d="M805.677,5246.131H785.6a2.614,2.614,0,0,1-2.815-2.377V5198.9a2.6,2.6,0,0,1,2.815-2.376h42.369a2.616,2.616,0,0,1,2.816,2.376v44.858a2.632,2.632,0,0,1-2.816,2.377h-2.14" transform="translate(-782.789 -5196.519)" fill="#0092ff"/>
        </g>
      </g>
      <g id="Group_51216" data-name="Group 51216" transform="translate(31.587 49.612)">
        <g id="Group_51215" data-name="Group 51215">
          <line id="Line_139" data-name="Line 139" x1="2.731" fill="#0092ff"/>
        </g>
      </g>
      <g id="Group_51218" data-name="Group 51218" transform="translate(8.342 20.483)">
        <g id="Group_51217" data-name="Group 51217">
          <line id="Line_140" data-name="Line 140" x2="8.73" fill="#0092ff"/>
        </g>
      </g>
      <g id="Group_51220" data-name="Group 51220" transform="translate(8.342 11.853)">
        <g id="Group_51219" data-name="Group 51219">
          <line id="Line_141" data-name="Line 141" x2="19.642" fill="#0092ff"/>
        </g>
      </g>
    </g>
    <path id="Path_44741" data-name="Path 44741" d="M788.876,5225.887c-.012-.216-.035-.433-.035-.649,0-5.4,0-14.026,0-19.43,0-1.552.442-2,1.964-2h35.888c1.509,0,1.933.425,1.933,1.932,0,9.552,0,22.324,0,31.875,0,1.575-.443,2.017-2.028,2.017-.337,0-.674-.014-1.011-.021-.051-.318-.319-.474-.519-.674q-6.161-6.171-12.329-12.336a8.388,8.388,0,0,0-.977-.854,1.293,1.293,0,0,0-2.02.135c-.874.866-1.739,1.74-2.611,2.608-.662.658-1.106.656-1.772-.009q-4.044-4.042-8.086-8.085c-1.027-1.026-1.718-1.025-2.758.012q-2.511,2.5-5.019,5.011C789.313,5225.6,789.176,5225.859,788.876,5225.887Zm29.059-11.281c-1.415-.257-2.766,1.438-2.781,2.649a2.857,2.857,0,0,0,2.792,2.836,2.788,2.788,0,0,0,2.726-2.789A2.633,2.633,0,0,0,817.935,5214.606Z" transform="translate(-2.087 -2.514)" fill="#01165b"/>
    <path id="Path_44742" data-name="Path 44742" d="M788.872,5234.218c.3-.028.437-.284.619-.466q2.514-2.5,5.019-5.011c1.04-1.037,1.731-1.038,2.758-.012q4.043,4.043,8.086,8.085c.666.666,1.11.667,1.772.009.872-.868,1.737-1.742,2.611-2.608a1.292,1.292,0,0,1,2.02-.134,8.339,8.339,0,0,1,.977.853q6.165,6.168,12.329,12.336c.2.2.468.355.519.673-.6.009-1.2.025-1.8.025q-16.42,0-32.842,0c-1.625,0-2.106-.483-2.107-2.111q0-5.571,0-11.141C788.831,5234.551,788.858,5234.384,788.872,5234.218Z" transform="translate(-2.083 -10.845)" fill="#0092ff"/>
    <circle id="Ellipse_1675" data-name="Ellipse 1675" cx="2.033" cy="2.033" r="2.033" transform="translate(787.488 5239.278)" fill="#01165b"/>
    <circle id="Ellipse_1676" data-name="Ellipse 1676" cx="2.033" cy="2.033" r="2.033" transform="translate(793.531 5239.278)" fill="#01165b"/>
    <circle id="Ellipse_1677" data-name="Ellipse 1677" cx="2.033" cy="2.033" r="2.033" transform="translate(799.574 5239.278)" fill="#01165b"/>
  </g>
</svg>
