<?xml version="1.0" encoding="utf-8"?>
<!-- Generator: Adobe Illustrator 25.4.1, SVG Export Plug-In . SVG Version: 6.00 Build 0)  -->
<svg version="1.1" id="katman_1" xmlns="http://www.w3.org/2000/svg" xmlns:xlink="http://www.w3.org/1999/xlink" x="0px" y="0px"
	 viewBox="0 0 30 30" style="enable-background:new 0 0 30 30;" xml:space="preserve">
<style type="text/css">
	.st0{fill:#FDFFFF;}
	.st1{fill:#0092FF;}
	.st2{fill:#3098FA;}
</style>
<g>
	<g>
		<path class="st0" d="M13.8,29.7H5.9c-0.6,0-1.1-0.5-1.1-1.1V8.5c0-0.6,0.5-1.1,1.1-1.1h16.5c0.6,0,1.1,0.5,1.1,1.1v20.1
			c0,0.6-0.5,1.1-1.1,1.1h-0.8"/>
	</g>
</g>
<g>
	<g>
		<line class="st1" x1="18.2" y1="29.7" x2="17.2" y2="29.7"/>
	</g>
</g>
<g>
	<g>
		<path class="st2" d="M11.5,18.2H8.1c-0.5,0-0.9-0.4-0.9-0.9s0.4-0.9,0.9-0.9h3.4c0.5,0,0.9,0.4,0.9,0.9S12,18.2,11.5,18.2z"/>
	</g>
</g>
<g>
	<g>
		<path class="st2" d="M15.8,14.3H8.1c-0.5,0-0.9-0.4-0.9-0.9c0-0.5,0.4-0.9,0.9-0.9h7.7c0.5,0,0.9,0.4,0.9,0.9
			C16.6,13.9,16.3,14.3,15.8,14.3z"/>
	</g>
</g>
<path class="st2" d="M29.4,7l-6.5-6.6c-0.1-0.1-0.2-0.1-0.3-0.1l-9.2,0.6c-0.3,0-0.5,0.4-0.3,0.7l2,2.1l-1.5,4
	c-0.1,0.2,0,0.4,0.2,0.6c2.5,2.3,5.5,3.5,8.8,3.9l-0.1,2.4c0,0.4,0.3,0.7,0.6,0.5l1.4-1.6l1.3,2.3c0.2,0.4,0.6,0.2,0.6-0.2l0.3-7.7
	l2.5-0.2C29.5,7.6,29.6,7.2,29.4,7z"/>
</svg>
