<svg xmlns="http://www.w3.org/2000/svg" xmlns:xlink="http://www.w3.org/1999/xlink" width="21.406" height="18.727" viewBox="0 0 21.406 18.727">
  <defs>
    <clipPath id="clip-path">
      <rect id="Rectangle_8184" data-name="Rectangle 8184" width="21.406" height="18.727" fill="none"/>
    </clipPath>
    <clipPath id="clip-path-3">
      <rect id="Rectangle_8180" data-name="Rectangle 8180" width="18.509" height="16.067" fill="none"/>
    </clipPath>
  </defs>
  <g id="Group_46779" data-name="Group 46779" opacity="0.805">
    <g id="Group_46784" data-name="Group 46784" clip-path="url(#clip-path)">
      <g id="Group_46783" data-name="Group 46783" transform="translate(0 0)">
        <g id="Group_46782" data-name="Group 46782" clip-path="url(#clip-path)">
          <g id="Group_46781" data-name="Group 46781" transform="translate(0 2.66)" opacity="0.35">
            <g id="Group_46780" data-name="Group 46780">
              <g id="Group_46779-2" data-name="Group 46779" clip-path="url(#clip-path-3)">
                <path id="Path_36982" data-name="Path 36982" d="M15.755,21.738H0V8.425A2.754,2.754,0,0,1,2.754,5.671h13A2.754,2.754,0,0,1,18.51,8.425V18.984a2.754,2.754,0,0,1-2.754,2.754" transform="translate(0 -5.671)" fill="#558eab"/>
              </g>
            </g>
          </g>
          <path id="Path_36983" data-name="Path 36983" d="M31.813,4.519,29.532,1.5,21.715,7.415l-.778,2.675a.26.26,0,0,0,.267.353l2.789-.02h0Z" transform="translate(-11.11 -0.796)" fill="#c5d9e2"/>
          <path id="Path_36984" data-name="Path 36984" d="M20.4,10.352A.962.962,0,0,1,19.465,9.1l.778-2.674a.707.707,0,0,1,.251-.365L28.311.142A.7.7,0,0,1,29.3.279L31.578,3.3a.7.7,0,0,1-.137.986l-7.79,5.883a.7.7,0,0,1-.343.156.6.6,0,0,1-.13.008l-2.766.02Zm.411-.862h0m.713-2.45-.553,1.9,1.984-.015,7.072-5.341L28.6,1.689Z" transform="translate(-10.314 0)" fill="#fff"/>
          <rect id="Rectangle_8181" data-name="Rectangle 8181" width="8.951" height="1.407" transform="translate(3.967 8.918)" fill="#fff"/>
          <rect id="Rectangle_8182" data-name="Rectangle 8182" width="6.301" height="1.407" transform="translate(3.967 11.785)" fill="#fff"/>
        </g>
      </g>
    </g>
  </g>
</svg>
