<svg xmlns="http://www.w3.org/2000/svg" width="18.687" height="18.583" viewBox="0 0 18.687 18.583">
  <g id="onlineconsulting" transform="translate(-0.1 -0.281)">
    <path id="Path_37933" data-name="Path 37933" d="M18.4,15.152,15.075,18.48a.837.837,0,0,1-1.408,0L9.059,13.872,8.8,13.616a21.815,21.815,0,0,1-2.432,2.432c-.512.512-1.152.384-1.408-.384v-.128c-.768-2.176-1.408-4.224-2.176-6.4-.9-2.56-1.664-4.992-2.56-7.551C.228,1.457.1,1.2.1,1.073A.882.882,0,0,1,1.252.305C2.276.689,3.3.945,4.324,1.329c3.712,1.28,7.423,2.432,11.135,3.712.64.256.9.64.64,1.152,0,.128-.128.256-.256.384-.768.768-1.408,1.536-2.176,2.176v.128a.447.447,0,0,1,.128.256L18.4,13.744C18.915,14.128,18.915,14.64,18.4,15.152Z" transform="translate(0 0)" fill="#c8d7e0"/>
  </g>
</svg>
