<svg xmlns="http://www.w3.org/2000/svg" width="159.76" height="44.172" viewBox="0 0 159.76 44.172">
  <g id="Group_51123" data-name="Group 51123" transform="translate(0)">
    <g id="Group_51107" data-name="Group 51107">
      <g id="Group_51106" data-name="Group 51106">
        <g id="Group_51102" data-name="Group 51102" transform="translate(0 3.895)">
          <g id="Group_51101" data-name="Group 51101">
            <g id="Group_51100" data-name="Group 51100" transform="translate(0 8.643)">
              <path id="Path_44697" data-name="Path 44697" d="M-632.514,2638.467c-1.062-5.4,3.632-8.281,3.975-8.484a8.849,8.849,0,0,0-2.4-2.212,9.516,9.516,0,0,0-8.258-1.017l-.061.027a7.781,7.781,0,0,1-6.224,0l-.061-.027a9.516,9.516,0,0,0-8.258,1.017c-2.807,1.75-5.532,5.7-4.149,13.262a23.512,23.512,0,0,0,6.427,12.162,5.463,5.463,0,0,0,5.573.691,9.078,9.078,0,0,1,3.284-1q.3.007.592,0a9.078,9.078,0,0,1,3.284,1,5.464,5.464,0,0,0,5.573-.691,23.412,23.412,0,0,0,5.5-8.709A8.229,8.229,0,0,1-632.514,2638.467Z" transform="translate(658.321 -2626.221)" fill="#fff"/>
            </g>
            <path id="Path_44698" data-name="Path 44698" d="M-584.583,2592.731s-.889-7.54,7.606-8.89l-.034,1.012a8.177,8.177,0,0,1-7.572,7.878Z" transform="translate(599.642 -2583.841)" fill="#fff"/>
          </g>
        </g>
        <g id="Group_51105" data-name="Group 51105" transform="translate(40.848)">
          <g id="Group_51103" data-name="Group 51103">
            <path id="Path_44699" data-name="Path 44699" d="M-449.887,2574.305a7.855,7.855,0,0,1-.351,2.458,4.646,4.646,0,0,1-1.035,1.783,4.358,4.358,0,0,1-1.689,1.086,6.991,6.991,0,0,1-2.4.368h-2.181a.548.548,0,0,1-.316-.115.485.485,0,0,1-.162-.423v-9.988a.486.486,0,0,1,.162-.424.549.549,0,0,1,.316-.115h2.326a6.486,6.486,0,0,1,2.382.385,4.377,4.377,0,0,1,1.625,1.091,4.625,4.625,0,0,1,.988,1.693A6.844,6.844,0,0,1-449.887,2574.305Zm-1.12.051a6.308,6.308,0,0,0-.244-1.792,3.85,3.85,0,0,0-.753-1.423,3.473,3.473,0,0,0-1.287-.937,5,5,0,0,0-1.984-.338h-1.7v9.2h1.71a5.746,5.746,0,0,0,1.911-.278,3.119,3.119,0,0,0,1.3-.859,3.745,3.745,0,0,0,.782-1.467A7.514,7.514,0,0,0-451.007,2574.356Z" transform="translate(458.019 -2568.08)" fill="#fff"/>
            <path id="Path_44700" data-name="Path 44700" d="M-402.207,2586.96a5.773,5.773,0,0,1-.239,1.7,3.878,3.878,0,0,1-.714,1.351,3.254,3.254,0,0,1-1.184.894,3.981,3.981,0,0,1-1.65.32,4.062,4.062,0,0,1-1.586-.286,3.018,3.018,0,0,1-1.137-.821,3.5,3.5,0,0,1-.684-1.3,6.017,6.017,0,0,1-.227-1.719,5.857,5.857,0,0,1,.235-1.7,3.782,3.782,0,0,1,.71-1.347,3.236,3.236,0,0,1,1.184-.886,4.052,4.052,0,0,1,1.659-.315,4.118,4.118,0,0,1,1.586.282,2.933,2.933,0,0,1,1.133.816,3.588,3.588,0,0,1,.684,1.3A5.89,5.89,0,0,1-402.207,2586.96Zm-1.078.094a5.978,5.978,0,0,0-.128-1.257,3.1,3.1,0,0,0-.427-1.057,2.158,2.158,0,0,0-.8-.727,2.651,2.651,0,0,0-1.257-.269,2.683,2.683,0,0,0-1.2.248,2.211,2.211,0,0,0-.825.688,3.019,3.019,0,0,0-.475,1.039,5.173,5.173,0,0,0-.154,1.291,6.1,6.1,0,0,0,.128,1.27,3.053,3.053,0,0,0,.428,1.056,2.133,2.133,0,0,0,.8.718,2.681,2.681,0,0,0,1.257.265,2.691,2.691,0,0,0,1.2-.248,2.223,2.223,0,0,0,.825-.684,2.982,2.982,0,0,0,.475-1.035A5.212,5.212,0,0,0-403.285,2587.055Z" transform="translate(419.498 -2579.162)" fill="#fff"/>
            <path id="Path_44701" data-name="Path 44701" d="M-355.659,2583.522a.436.436,0,0,1-.013.1c-.009.037-.019.078-.03.125l-2.394,7.533a.216.216,0,0,1-.064.111.339.339,0,0,1-.124.069.854.854,0,0,1-.2.034c-.083.005-.181.008-.3.008s-.222,0-.308-.013a1.124,1.124,0,0,1-.209-.039.338.338,0,0,1-.128-.069.216.216,0,0,1-.064-.1l-1.8-6.106-.017-.068-.017.068-1.676,6.106a.2.2,0,0,1-.069.111.377.377,0,0,1-.141.069,1.088,1.088,0,0,1-.218.034c-.085.005-.182.008-.291.008a2.864,2.864,0,0,1-.291-.013,1.111,1.111,0,0,1-.2-.039.3.3,0,0,1-.124-.069.234.234,0,0,1-.06-.1l-2.377-7.533a.665.665,0,0,1-.039-.12.5.5,0,0,1-.013-.1.2.2,0,0,1,.026-.1.154.154,0,0,1,.085-.064.655.655,0,0,1,.154-.03q.094-.009.231-.009a2.711,2.711,0,0,1,.291.013.585.585,0,0,1,.167.039.178.178,0,0,1,.081.068.416.416,0,0,1,.043.1l2.044,6.755.017.059.017-.059,1.856-6.755a.332.332,0,0,1,.047-.1.207.207,0,0,1,.085-.068.555.555,0,0,1,.154-.039,2.071,2.071,0,0,1,.252-.013,1.877,1.877,0,0,1,.239.013.613.613,0,0,1,.154.039.176.176,0,0,1,.085.068.416.416,0,0,1,.043.1l2,6.755.017.059.009-.059,2.035-6.755a.334.334,0,0,1,.047-.1.2.2,0,0,1,.09-.068.637.637,0,0,1,.167-.039,2.488,2.488,0,0,1,.278-.013q.137,0,.222.009a.4.4,0,0,1,.137.034.139.139,0,0,1,.068.064A.245.245,0,0,1-355.659,2583.522Z" transform="translate(385.417 -2579.529)" fill="#fff"/>
            <path id="Path_44702" data-name="Path 44702" d="M-296.176,2590.911a.179.179,0,0,1-.026.094.18.18,0,0,1-.081.068.634.634,0,0,1-.154.042,1.472,1.472,0,0,1-.244.017,1.54,1.54,0,0,1-.252-.017.634.634,0,0,1-.154-.042.182.182,0,0,1-.081-.068.179.179,0,0,1-.026-.094v-4.592a4.992,4.992,0,0,0-.111-1.167,2.312,2.312,0,0,0-.333-.77,1.516,1.516,0,0,0-.569-.5,1.77,1.77,0,0,0-.808-.175,2.027,2.027,0,0,0-1.18.419,6.413,6.413,0,0,0-1.24,1.231v5.55a.181.181,0,0,1-.025.094.182.182,0,0,1-.081.068.636.636,0,0,1-.154.042,1.538,1.538,0,0,1-.252.017,1.475,1.475,0,0,1-.244-.017.719.719,0,0,1-.158-.042.156.156,0,0,1-.081-.068.208.208,0,0,1-.021-.094v-7.739a.207.207,0,0,1,.021-.094.174.174,0,0,1,.081-.073.481.481,0,0,1,.149-.042,1.778,1.778,0,0,1,.235-.013,1.88,1.88,0,0,1,.239.013.394.394,0,0,1,.145.042.18.18,0,0,1,.073.073.207.207,0,0,1,.021.094v1.095a4.8,4.8,0,0,1,1.308-1.078,2.75,2.75,0,0,1,1.274-.333,2.892,2.892,0,0,1,1.283.256,2.27,2.27,0,0,1,.842.692,2.823,2.823,0,0,1,.462,1.018,6.016,6.016,0,0,1,.141,1.4Z" transform="translate(334.178 -2579.162)" fill="#fff"/>
            <path id="Path_44703" data-name="Path 44703" d="M-256.819,2576.491a.178.178,0,0,1-.026.094.178.178,0,0,1-.081.069.655.655,0,0,1-.154.043,1.51,1.51,0,0,1-.252.017,1.445,1.445,0,0,1-.244-.017.746.746,0,0,1-.158-.043.152.152,0,0,1-.081-.069.206.206,0,0,1-.021-.094v-11.527a.206.206,0,0,1,.021-.094.171.171,0,0,1,.081-.073.508.508,0,0,1,.158-.043,1.937,1.937,0,0,1,.244-.013,2.024,2.024,0,0,1,.252.013.457.457,0,0,1,.154.043.2.2,0,0,1,.081.073.178.178,0,0,1,.026.094Z" transform="translate(298.66 -2564.742)" fill="#fff"/>
            <path id="Path_44704" data-name="Path 44704" d="M-234.271,2586.96a5.768,5.768,0,0,1-.239,1.7,3.881,3.881,0,0,1-.714,1.351,3.256,3.256,0,0,1-1.184.894,3.981,3.981,0,0,1-1.65.32,4.062,4.062,0,0,1-1.586-.286,3.021,3.021,0,0,1-1.137-.821,3.5,3.5,0,0,1-.684-1.3,6.017,6.017,0,0,1-.227-1.719,5.859,5.859,0,0,1,.235-1.7,3.776,3.776,0,0,1,.71-1.347,3.233,3.233,0,0,1,1.184-.886,4.053,4.053,0,0,1,1.659-.315,4.12,4.12,0,0,1,1.586.282,2.93,2.93,0,0,1,1.133.816,3.589,3.589,0,0,1,.684,1.3A5.883,5.883,0,0,1-234.271,2586.96Zm-1.077.094a5.986,5.986,0,0,0-.128-1.257,3.091,3.091,0,0,0-.428-1.057,2.155,2.155,0,0,0-.8-.727,2.652,2.652,0,0,0-1.257-.269,2.685,2.685,0,0,0-1.2.248,2.211,2.211,0,0,0-.825.688,3.018,3.018,0,0,0-.475,1.039,5.161,5.161,0,0,0-.154,1.291,6.1,6.1,0,0,0,.128,1.27,3.048,3.048,0,0,0,.427,1.056,2.137,2.137,0,0,0,.8.718,2.682,2.682,0,0,0,1.257.265,2.69,2.69,0,0,0,1.2-.248,2.222,2.222,0,0,0,.825-.684,2.981,2.981,0,0,0,.475-1.035A5.214,5.214,0,0,0-235.349,2587.055Z" transform="translate(285.81 -2579.162)" fill="#fff"/>
            <path id="Path_44705" data-name="Path 44705" d="M-190.783,2590.911a.165.165,0,0,1-.056.133.345.345,0,0,1-.145.068,1.1,1.1,0,0,1-.244.021,1.242,1.242,0,0,1-.248-.021.355.355,0,0,1-.158-.068.165.165,0,0,1-.055-.133v-.863a3.913,3.913,0,0,1-1.15.872,2.938,2.938,0,0,1-1.3.307,3.5,3.5,0,0,1-1.09-.158,2.288,2.288,0,0,1-.817-.453,1.985,1.985,0,0,1-.513-.714,2.368,2.368,0,0,1-.18-.941,2.256,2.256,0,0,1,.265-1.116,2.24,2.24,0,0,1,.753-.791,3.632,3.632,0,0,1,1.172-.475,6.766,6.766,0,0,1,1.522-.158h1.231v-.667a3.394,3.394,0,0,0-.1-.876,1.534,1.534,0,0,0-.334-.637,1.413,1.413,0,0,0-.6-.385,2.747,2.747,0,0,0-.9-.128,3.193,3.193,0,0,0-.923.124,4.559,4.559,0,0,0-.718.278q-.308.154-.509.278a.682.682,0,0,1-.286.124.246.246,0,0,1-.094-.017.155.155,0,0,1-.073-.064.327.327,0,0,1-.043-.12,1.025,1.025,0,0,1-.013-.175,1.276,1.276,0,0,1,.026-.287.465.465,0,0,1,.133-.214,1.685,1.685,0,0,1,.381-.252,4.54,4.54,0,0,1,.629-.269,5.268,5.268,0,0,1,.765-.2,4.449,4.449,0,0,1,.821-.076,4.076,4.076,0,0,1,1.343.192,2.182,2.182,0,0,1,.885.552,2.071,2.071,0,0,1,.483.885,4.484,4.484,0,0,1,.145,1.193Zm-1.018-3.651h-1.411a4.63,4.63,0,0,0-1.077.111,2.271,2.271,0,0,0-.77.325,1.373,1.373,0,0,0-.458.513,1.513,1.513,0,0,0-.149.685,1.39,1.39,0,0,0,.423,1.064,1.676,1.676,0,0,0,1.193.4,2.179,2.179,0,0,0,1.133-.312,5.048,5.048,0,0,0,1.116-.962Z" transform="translate(250.025 -2579.162)" fill="#fff"/>
            <path id="Path_44706" data-name="Path 44706" d="M-149.44,2576.658a.23.23,0,0,1-.021.1.152.152,0,0,1-.077.068.555.555,0,0,1-.141.039,1.448,1.448,0,0,1-.214.013,1.615,1.615,0,0,1-.227-.013.559.559,0,0,1-.145-.039.207.207,0,0,1-.085-.068.177.177,0,0,1-.03-.1v-1.112a5.507,5.507,0,0,1-1.274,1.047,2.824,2.824,0,0,1-1.437.38,2.919,2.919,0,0,1-1.428-.325,2.717,2.717,0,0,1-.962-.881,3.87,3.87,0,0,1-.543-1.3,7.1,7.1,0,0,1-.171-1.586,6.8,6.8,0,0,1,.214-1.774,3.9,3.9,0,0,1,.633-1.347,2.834,2.834,0,0,1,1.035-.855,3.227,3.227,0,0,1,1.428-.3,2.67,2.67,0,0,1,1.283.312,4.512,4.512,0,0,1,1.146.919v-4.66a.207.207,0,0,1,.021-.094.151.151,0,0,1,.081-.068.717.717,0,0,1,.158-.043,1.421,1.421,0,0,1,.244-.017,1.481,1.481,0,0,1,.252.017.634.634,0,0,1,.154.043.174.174,0,0,1,.081.068.179.179,0,0,1,.026.094Zm-1.018-5.584a6.305,6.305,0,0,0-1.236-1.188,2.156,2.156,0,0,0-1.244-.41,1.765,1.765,0,0,0-1.009.282,2.2,2.2,0,0,0-.684.744,3.491,3.491,0,0,0-.385,1.043,5.825,5.825,0,0,0-.12,1.18,7.463,7.463,0,0,0,.1,1.248,3.622,3.622,0,0,0,.351,1.082,2.088,2.088,0,0,0,.658.761,1.749,1.749,0,0,0,1.026.287,2.107,2.107,0,0,0,.6-.086,2.353,2.353,0,0,0,.6-.282,4.322,4.322,0,0,0,.637-.508,8.277,8.277,0,0,0,.705-.774Z" transform="translate(217.747 -2564.908)" fill="#fff"/>
            <path id="Path_44707" data-name="Path 44707" d="M-85.036,2586.96a5.766,5.766,0,0,1-.239,1.7,3.88,3.88,0,0,1-.714,1.351,3.256,3.256,0,0,1-1.184.894,3.981,3.981,0,0,1-1.65.32,4.062,4.062,0,0,1-1.586-.286,3.021,3.021,0,0,1-1.137-.821,3.5,3.5,0,0,1-.684-1.3,6.017,6.017,0,0,1-.227-1.719,5.858,5.858,0,0,1,.235-1.7,3.776,3.776,0,0,1,.71-1.347,3.234,3.234,0,0,1,1.184-.886,4.052,4.052,0,0,1,1.659-.315,4.12,4.12,0,0,1,1.586.282,2.93,2.93,0,0,1,1.133.816,3.587,3.587,0,0,1,.684,1.3A5.882,5.882,0,0,1-85.036,2586.96Zm-1.077.094a5.988,5.988,0,0,0-.128-1.257,3.1,3.1,0,0,0-.428-1.057,2.155,2.155,0,0,0-.8-.727,2.652,2.652,0,0,0-1.257-.269,2.685,2.685,0,0,0-1.2.248,2.211,2.211,0,0,0-.825.688,3.013,3.013,0,0,0-.475,1.039,5.161,5.161,0,0,0-.154,1.291,6.084,6.084,0,0,0,.128,1.27,3.049,3.049,0,0,0,.427,1.056,2.137,2.137,0,0,0,.8.718,2.682,2.682,0,0,0,1.257.265,2.691,2.691,0,0,0,1.2-.248,2.223,2.223,0,0,0,.825-.684,2.982,2.982,0,0,0,.475-1.035A5.213,5.213,0,0,0-86.114,2587.055Z" transform="translate(167.008 -2579.162)" fill="#fff"/>
            <path id="Path_44708" data-name="Path 44708" d="M-38.589,2590.911a.179.179,0,0,1-.026.094.182.182,0,0,1-.081.068.638.638,0,0,1-.154.042,1.476,1.476,0,0,1-.244.017,1.539,1.539,0,0,1-.252-.017.635.635,0,0,1-.154-.042.181.181,0,0,1-.081-.068.179.179,0,0,1-.026-.094v-4.592a5,5,0,0,0-.111-1.167,2.315,2.315,0,0,0-.334-.77,1.515,1.515,0,0,0-.569-.5,1.769,1.769,0,0,0-.808-.175,2.027,2.027,0,0,0-1.18.419,6.4,6.4,0,0,0-1.24,1.231v5.55a.179.179,0,0,1-.026.094.182.182,0,0,1-.081.068.638.638,0,0,1-.154.042,1.54,1.54,0,0,1-.252.017,1.474,1.474,0,0,1-.244-.017.721.721,0,0,1-.158-.042.155.155,0,0,1-.081-.068.207.207,0,0,1-.021-.094v-7.739a.207.207,0,0,1,.021-.094.173.173,0,0,1,.081-.073.483.483,0,0,1,.15-.042,1.774,1.774,0,0,1,.235-.013,1.877,1.877,0,0,1,.239.013.4.4,0,0,1,.145.042.179.179,0,0,1,.073.073.207.207,0,0,1,.021.094v1.095a4.8,4.8,0,0,1,1.308-1.078,2.749,2.749,0,0,1,1.274-.333,2.891,2.891,0,0,1,1.283.256,2.27,2.27,0,0,1,.842.692,2.823,2.823,0,0,1,.462,1.018,6.028,6.028,0,0,1,.141,1.4Z" transform="translate(129.121 -2579.162)" fill="#fff"/>
            <path id="Path_44709" data-name="Path 44709" d="M18.619,2582.705a1.149,1.149,0,0,1-.03.291.38.38,0,0,1-.094.175.627.627,0,0,1-.188.12,1.6,1.6,0,0,1-.286.094,3.033,3.033,0,0,1-.342.06,2.932,2.932,0,0,1-.351.021,2.74,2.74,0,0,1-.975-.154,1.558,1.558,0,0,1-.658-.466,1.948,1.948,0,0,1-.372-.791,4.869,4.869,0,0,1-.115-1.129v-4.814H14.053a.213.213,0,0,1-.188-.107.6.6,0,0,1-.069-.321.945.945,0,0,1,.017-.192.435.435,0,0,1,.051-.137.222.222,0,0,1,.081-.081.217.217,0,0,1,.107-.026h1.154v-1.9a.205.205,0,0,1,.021-.094.17.17,0,0,1,.081-.073.491.491,0,0,1,.158-.043,1.886,1.886,0,0,1,.244-.013,1.97,1.97,0,0,1,.252.013.442.442,0,0,1,.154.043.2.2,0,0,1,.081.073.178.178,0,0,1,.026.094v1.9h2.138a.217.217,0,0,1,.107.026.22.22,0,0,1,.081.081.435.435,0,0,1,.051.137.945.945,0,0,1,.017.192.573.573,0,0,1-.073.321.216.216,0,0,1-.184.107H16.225v4.677a2.857,2.857,0,0,0,.252,1.342.954.954,0,0,0,.919.462,1.507,1.507,0,0,0,.372-.043,2.509,2.509,0,0,0,.295-.094q.128-.051.218-.094a.372.372,0,0,1,.158-.043.172.172,0,0,1,.077.017.128.128,0,0,1,.055.064.5.5,0,0,1,.034.12A1.088,1.088,0,0,1,18.619,2582.705Z" transform="translate(82.422 -2571.418)" fill="#fff"/>
            <path id="Path_44710" data-name="Path 44710" d="M53.661,2576.491a.172.172,0,0,1-.107.163.655.655,0,0,1-.154.043,1.447,1.447,0,0,1-.244.017,1.507,1.507,0,0,1-.252-.017.657.657,0,0,1-.154-.043.178.178,0,0,1-.081-.069.18.18,0,0,1-.025-.094V2571.9a5,5,0,0,0-.111-1.167,2.312,2.312,0,0,0-.334-.77,1.519,1.519,0,0,0-.569-.5,1.769,1.769,0,0,0-.808-.176,2.027,2.027,0,0,0-1.18.419,6.406,6.406,0,0,0-1.24,1.232v5.549a.172.172,0,0,1-.107.163.655.655,0,0,1-.154.043,1.51,1.51,0,0,1-.252.017,1.443,1.443,0,0,1-.244-.017.747.747,0,0,1-.158-.043.153.153,0,0,1-.081-.069.208.208,0,0,1-.021-.094v-11.527a.208.208,0,0,1,.021-.094.172.172,0,0,1,.081-.073.509.509,0,0,1,.158-.043,1.934,1.934,0,0,1,.244-.013,2.025,2.025,0,0,1,.252.013.457.457,0,0,1,.154.043.2.2,0,0,1,.081.073.178.178,0,0,1,.026.094v4.831a4.616,4.616,0,0,1,1.265-1.03,2.715,2.715,0,0,1,1.266-.329,2.881,2.881,0,0,1,1.283.256,2.265,2.265,0,0,1,.842.692,2.82,2.82,0,0,1,.462,1.018,6.027,6.027,0,0,1,.141,1.4Z" transform="translate(55.684 -2564.742)" fill="#fff"/>
            <path id="Path_44711" data-name="Path 44711" d="M96.207,2586.644a.488.488,0,0,1-.163.424.553.553,0,0,1-.316.115H90.452a5.53,5.53,0,0,0,.141,1.3,2.577,2.577,0,0,0,.466,1,2.1,2.1,0,0,0,.847.637,3.27,3.27,0,0,0,1.283.222,4.53,4.53,0,0,0,.966-.094,5.593,5.593,0,0,0,.74-.209q.312-.116.513-.209a.809.809,0,0,1,.287-.094.172.172,0,0,1,.162.107.53.53,0,0,1,.039.141,1.48,1.48,0,0,1,.013.214.76.76,0,0,1-.009.116.936.936,0,0,1-.021.1.369.369,0,0,1-.038.09.448.448,0,0,1-.069.085,1.28,1.28,0,0,1-.265.15,3.92,3.92,0,0,1-.581.213,7.7,7.7,0,0,1-.834.193,5.8,5.8,0,0,1-1.022.085,4.365,4.365,0,0,1-1.591-.269,2.984,2.984,0,0,1-1.163-.795,3.488,3.488,0,0,1-.714-1.3,6.05,6.05,0,0,1-.244-1.8,5.7,5.7,0,0,1,.252-1.761,3.76,3.76,0,0,1,.723-1.322,3.115,3.115,0,0,1,1.133-.829,3.674,3.674,0,0,1,1.475-.286,3.463,3.463,0,0,1,1.488.291,2.835,2.835,0,0,1,1.013.782,3.16,3.16,0,0,1,.581,1.142,5,5,0,0,1,.184,1.368Zm-1.052-.3a2.782,2.782,0,0,0-.564-1.924,2.133,2.133,0,0,0-1.719-.693,2.229,2.229,0,0,0-1.766.8,2.558,2.558,0,0,0-.466.834,3.577,3.577,0,0,0-.188.987Z" transform="translate(22.27 -2579.162)" fill="#fff"/>
          </g>
          <g id="Group_51104" data-name="Group 51104" transform="translate(18.842 23.726)">
            <path id="Path_44712" data-name="Path 44712" d="M-353.166,2685.812a7.167,7.167,0,0,0-1.011-2.427,5.171,5.171,0,0,0-1.848-1.683,5.643,5.643,0,0,0-2.722-.618,5.725,5.725,0,0,0-1.385.163,5.32,5.32,0,0,0-1.279.508,7.967,7.967,0,0,0-1.212.836q-.239.2-.49.428v-1.936h-2.512v20.446h2.662v-6.437q.18.159.353.3a7.023,7.023,0,0,0,1.075.722,4.807,4.807,0,0,0,1.135.438,5.23,5.23,0,0,0,1.232.141,6.138,6.138,0,0,0,2.7-.579,5.531,5.531,0,0,0,2-1.64,7.34,7.34,0,0,0,1.2-2.527,12.381,12.381,0,0,0,.4-3.261A13.069,13.069,0,0,0-353.166,2685.812Zm-2.657,5.139a5.982,5.982,0,0,1-.637,1.726,3.5,3.5,0,0,1-1.078,1.18,2.663,2.663,0,0,1-1.54.429,3.228,3.228,0,0,1-1.909-.651,10.944,10.944,0,0,1-1.976-1.9v-5.621a12.032,12.032,0,0,1,1.1-1.2,7.5,7.5,0,0,1,1.066-.847,3.7,3.7,0,0,1,.948-.446,3.391,3.391,0,0,1,.94-.133,2.67,2.67,0,0,1,1.551.419,3.179,3.179,0,0,1,1.006,1.167,6.012,6.012,0,0,1,.567,1.762,12.736,12.736,0,0,1,.175,2.132A9.574,9.574,0,0,1-355.823,2690.951Z" transform="translate(365.625 -2681.084)" fill="#fff"/>
            <path id="Path_44713" data-name="Path 44713" d="M-274.623,2685.812a7.179,7.179,0,0,0-1.012-2.427,5.163,5.163,0,0,0-1.847-1.683,5.644,5.644,0,0,0-2.722-.618,5.73,5.73,0,0,0-1.386.163,5.331,5.331,0,0,0-1.279.508,7.983,7.983,0,0,0-1.211.836q-.239.2-.491.428v-1.936h-2.512v20.446h2.663v-6.437c.12.106.237.206.352.3a7.081,7.081,0,0,0,1.076.722,4.793,4.793,0,0,0,1.134.438,5.236,5.236,0,0,0,1.232.141,6.14,6.14,0,0,0,2.7-.579,5.54,5.54,0,0,0,2-1.64,7.34,7.34,0,0,0,1.2-2.527,12.411,12.411,0,0,0,.4-3.261A13.108,13.108,0,0,0-274.623,2685.812Zm-2.658,5.139a5.985,5.985,0,0,1-.637,1.726,3.492,3.492,0,0,1-1.077,1.18,2.662,2.662,0,0,1-1.54.429,3.228,3.228,0,0,1-1.909-.651,10.919,10.919,0,0,1-1.977-1.9v-5.621a11.882,11.882,0,0,1,1.1-1.2,7.433,7.433,0,0,1,1.066-.847,3.682,3.682,0,0,1,.948-.446,3.383,3.383,0,0,1,.94-.133,2.668,2.668,0,0,1,1.55.419,3.169,3.169,0,0,1,1.006,1.167,6.012,6.012,0,0,1,.568,1.762,12.733,12.733,0,0,1,.174,2.132A9.57,9.57,0,0,1-277.281,2690.951Z" transform="translate(303.1 -2681.084)" fill="#fff"/>
            <path id="Path_44714" data-name="Path 44714" d="M-50.448,2683.172a5.616,5.616,0,0,0-2.16-1.558,7.712,7.712,0,0,0-2.959-.53,7.583,7.583,0,0,0-3.1.595,6.141,6.141,0,0,0-2.242,1.677,7.12,7.12,0,0,0-1.332,2.525,10.791,10.791,0,0,0-.433,3.121,11.081,11.081,0,0,0,.417,3.15,6.617,6.617,0,0,0,1.291,2.44,5.759,5.759,0,0,0,2.164,1.563,7.609,7.609,0,0,0,2.962.539,7.46,7.46,0,0,0,3.085-.6,6.183,6.183,0,0,0,2.241-1.692,7.292,7.292,0,0,0,1.338-2.529,10.62,10.62,0,0,0,.441-3.124,10.834,10.834,0,0,0-.425-3.137A6.763,6.763,0,0,0-50.448,2683.172Zm-1.054,5.739a8.778,8.778,0,0,1-.257,2.179,4.831,4.831,0,0,1-.765,1.672,3.5,3.5,0,0,1-1.294,1.072,4.319,4.319,0,0,1-1.916.392,4.322,4.322,0,0,1-2.01-.417A3.341,3.341,0,0,1-59,2692.69a4.956,4.956,0,0,1-.69-1.71,10.342,10.342,0,0,1-.216-2.145,8.709,8.709,0,0,1,.257-2.165,4.913,4.913,0,0,1,.766-1.681,3.472,3.472,0,0,1,1.293-1.077,4.321,4.321,0,0,1,1.915-.392,4.261,4.261,0,0,1,2.008.423,3.382,3.382,0,0,1,1.256,1.134,5.036,5.036,0,0,1,.691,1.712A10.15,10.15,0,0,1-51.5,2688.911Z" transform="translate(124.454 -2681.084)" fill="#fff"/>
          </g>
        </g>
        <path id="Path_44715" data-name="Path 44715" d="M-448.761,2659.6h-3.166l-6.6,19.96h2.7l1.469-5.72h7.935l1.522,5.72h2.734Zm-4.748,11.834,3.072-8.761,3.147,8.761Z" transform="translate(499.269 -2640.254)" fill="#fff"/>
        <path id="Path_44716" data-name="Path 44716" d="M-166.9,2668.059a5.364,5.364,0,0,0-1.131-1.589,7.568,7.568,0,0,0-1.557-1.15c-.553-.311-1.125-.6-1.7-.873s-1.122-.531-1.665-.8a8.143,8.143,0,0,1-1.393-.849,3.734,3.734,0,0,1-.931-1.024,2.527,2.527,0,0,1-.329-1.325,2.771,2.771,0,0,1,.188-1.016,2.212,2.212,0,0,1,.549-.814,2.713,2.713,0,0,1,.948-.561,4.121,4.121,0,0,1,1.4-.215,5.045,5.045,0,0,1,1.482.2,6.625,6.625,0,0,1,1.144.458c.329.174.6.332.818.471l1.1-2.3a2.971,2.971,0,0,0-.693-.454,7.328,7.328,0,0,0-1.074-.449,9.7,9.7,0,0,0-1.253-.323,7.1,7.1,0,0,0-1.331-.128,7.853,7.853,0,0,0-2.4.352,5.59,5.59,0,0,0-1.917,1.039,4.729,4.729,0,0,0-1.259,1.673,5.3,5.3,0,0,0-.445,2.2,5.17,5.17,0,0,0,.432,2.186,5.384,5.384,0,0,0,1.122,1.6,7.66,7.66,0,0,0,1.54,1.158c.55.315,1.12.612,1.7.882s1.119.531,1.657.794a8.3,8.3,0,0,1,1.38.843,3.686,3.686,0,0,1,.923,1.016,2.53,2.53,0,0,1,.329,1.325,3.336,3.336,0,0,1-.27,1.379,2.763,2.763,0,0,1-.748,1,3.482,3.482,0,0,1-1.179.635,5.04,5.04,0,0,1-1.552.227,6.319,6.319,0,0,1-1.851-.244,9.15,9.15,0,0,1-1.392-.544,8.461,8.461,0,0,1-.944-.543l-.549,2.756a8.451,8.451,0,0,0,1.152.518,10.8,10.8,0,0,0,1.538.432,9.1,9.1,0,0,0,1.85.182,8.641,8.641,0,0,0,2.664-.4,6.314,6.314,0,0,0,2.149-1.174,5.386,5.386,0,0,0,1.424-1.89,5.984,5.984,0,0,0,.506-2.5A5.078,5.078,0,0,0-166.9,2668.059Z" transform="translate(276.229 -2636.849)" fill="#fff"/>
        <path id="Path_44717" data-name="Path 44717" d="M-103.537,2683.64a3.829,3.829,0,0,1-.466.148,2.223,2.223,0,0,1-.547.062c-.821,0-1.1-.335-1.236-.586a4.659,4.659,0,0,1-.391-2.155v-7.8h3.239v-2.391h-3.239v-2.907l-2.662,1.174v1.733h-1.445v2.391h1.445v8.04a9.025,9.025,0,0,0,.215,2.089,3.858,3.858,0,0,0,.742,1.567,3.176,3.176,0,0,0,1.34.951,5.26,5.26,0,0,0,1.872.3,5.83,5.83,0,0,0,.669-.041,5.917,5.917,0,0,0,.651-.114,3.259,3.259,0,0,0,.582-.192l-.411-2.423C-103.274,2683.532-103.395,2683.584-103.537,2683.64Z" transform="translate(222.045 -2646.952)" fill="#fff"/>
        <path id="Path_44718" data-name="Path 44718" d="M27.153,2681.085h-.111a4.122,4.122,0,0,0-.984.118,3.355,3.355,0,0,0-1.014.457,5.832,5.832,0,0,0-1.028.887q-.161.171-.332.376v-1.837H21.113v15.579h2.663v-10.051c.348-.553.67-1.029.959-1.414a6.611,6.611,0,0,1,.846-.953,2.806,2.806,0,0,1,.706-.483,1.505,1.505,0,0,1,.622-.136c.062,0,.126,0,.2.009l.467.034V2681.1Z" transform="translate(117.445 -2657.358)" fill="#fff"/>
        <path id="Path_44719" data-name="Path 44719" d="M72.775,2693.309c-.06.024-.124.052-.194.084-.224.1-.516.224-.87.355a9.534,9.534,0,0,1-1.245.352,7.528,7.528,0,0,1-1.608.156,5.355,5.355,0,0,1-2.087-.357,3.274,3.274,0,0,1-1.318-.989,4.128,4.128,0,0,1-.74-1.588,8.853,8.853,0,0,1-.228-1.75h8.845a1.392,1.392,0,0,0,.809-.284,1.262,1.262,0,0,0,.469-1.1v-.361a9.279,9.279,0,0,0-.34-2.527,6.018,6.018,0,0,0-1.1-2.165,5.449,5.449,0,0,0-1.937-1.5,6.553,6.553,0,0,0-2.805-.553,6.943,6.943,0,0,0-2.77.54A5.946,5.946,0,0,0,63.5,2683.2a7.084,7.084,0,0,0-1.357,2.477,10.515,10.515,0,0,0-.465,3.235,11.127,11.127,0,0,0,.449,3.306,6.6,6.6,0,0,0,1.348,2.457,5.713,5.713,0,0,0,2.214,1.515,8.155,8.155,0,0,0,2.958.5,10.654,10.654,0,0,0,1.876-.158,14.352,14.352,0,0,0,1.515-.35c.279-.083.523-.166.735-.249Zm-7.99-7.246a4.109,4.109,0,0,1,.741-1.328,3.489,3.489,0,0,1,2.776-1.246A3.316,3.316,0,0,1,71,2684.557a4.239,4.239,0,0,1,.887,2.669H64.518A5.87,5.87,0,0,1,64.785,2686.064Z" transform="translate(85.151 -2657.358)" fill="#fff"/>
      </g>
    </g>
  </g>
</svg>
