<svg xmlns="http://www.w3.org/2000/svg" width="19.516" height="20.919" viewBox="0 0 19.516 20.919">
  <g id="franchiese" transform="translate(-0.661 -0.2)">
    <path id="Path_37931" data-name="Path 37931" d="M19.216,10.019a3.7,3.7,0,0,1-5.692,0,.139.139,0,0,0-.142-.142,3.736,3.736,0,0,1-5.977,0l-.712.712a3.5,3.5,0,0,1-3.7.427A3.837,3.837,0,0,1,.717,8.027,5.882,5.882,0,0,1,1,5.323l.854-3.415A2.164,2.164,0,0,1,4.132.2H16.655a2.307,2.307,0,0,1,2.277,1.708c.427,1.565.854,2.988,1.138,4.554A4.227,4.227,0,0,1,19.216,10.019Z" fill="#c7d6e0"/>
    <path id="Path_37932" data-name="Path 37932" d="M19.173,8.685v6.688A2.248,2.248,0,0,1,16.9,17.65H13.2v-3.7a1.424,1.424,0,0,0-1.565-1.565H8.785A1.493,1.493,0,0,0,7.219,13.95v3.7h-3.7A2.316,2.316,0,0,1,1.1,15.231V8.4h.142c1.85,1.281,3.7,1.138,5.692.142a.267.267,0,0,1,.427,0,5.169,5.169,0,0,0,5.692,0A.139.139,0,0,0,13.2,8.4a5.128,5.128,0,0,0,5.977,0Z" transform="translate(0.186 3.469)" fill="#c7d6e0"/>
  </g>
</svg>
