<svg xmlns="http://www.w3.org/2000/svg" width="34.614" height="46.964" viewBox="0 0 34.614 46.964">
  <g id="vision" transform="translate(-0.002)">
    <path id="Path_37917" data-name="Path 37917" d="M37.389,44.7h-3.9c-.975-8.775-1.788-17.713-2.763-26.488h1.95a1.463,1.463,0,1,0,0-2.925H30.4c-.163-1.138-.163-2.275-.325-3.25h1.463a1.463,1.463,0,0,0,0-2.925H29.751c-.325-.65-.488-1.3-.813-1.95-.975-1.625-2.763-2.6-5.038-3.25-.163,0-.488-.163-.488-.325h-.325V1.963a1.463,1.463,0,1,0-2.925,0V3.425a3.013,3.013,0,0,1-1.138.325A8.29,8.29,0,0,0,14.15,6.675c-.488.65-.65,1.463-1.138,2.113H10.25a1.5,1.5,0,0,0-1.463,1.625,1.364,1.364,0,0,0,1.463,1.463h2.6c-.163,1.138-.163,2.275-.325,3.25H9.113a1.463,1.463,0,0,0,0,2.925H12.2c-.975,8.775-1.788,17.713-2.763,26.488H5.863A1.456,1.456,0,0,0,4.4,46a1.561,1.561,0,0,0,1.138,1.463H37.551A1.456,1.456,0,0,0,39.014,46,1.75,1.75,0,0,0,37.389,44.7Z" transform="translate(-4.398 -0.5)" fill="#0092ff"/>
    <path id="Path_37918" data-name="Path 37918" d="M21.513,11.713H12.738A1.111,1.111,0,0,1,11.6,10.575V8.138A1.111,1.111,0,0,1,12.738,7h8.775A1.111,1.111,0,0,1,22.65,8.138v2.438A1.111,1.111,0,0,1,21.513,11.713Z" transform="translate(0.102 3.563)" fill="#01165b"/>
    <path id="Path_37919" data-name="Path 37919" d="M14.288,24.2h2.925a.519.519,0,0,1,.488.488V29.4a.519.519,0,0,1-.488.488H14.288A.519.519,0,0,1,13.8,29.4V24.688A.431.431,0,0,1,14.288,24.2Z" transform="translate(1.477 14.314)" fill="#01165b"/>
  </g>
</svg>
