<?xml version="1.0" encoding="utf-8"?>
<!-- Generator: Adobe Illustrator 26.5.0, SVG Export Plug-In . SVG Version: 6.00 Build 0)  -->
<svg version="1.1" id="Layer_1" xmlns="http://www.w3.org/2000/svg" xmlns:xlink="http://www.w3.org/1999/xlink" x="0px" y="0px"
	 viewBox="0 0 64 64" style="enable-background:new 0 0 64 64;" xml:space="preserve">
<style type="text/css">
	.st0{fill:#004990;}
	.st1{fill:#FFFFFF;}
	.st2{fill:#EF3E42;}
</style>
<g>
	<g>
		<path class="st0" d="M37.6,1.4v3.1l-10.9,7.3h10.9v9.3h-11l11,7.3V32h-5.4L19,23.2V32H9.6v-8.8l-8.6,5.7c-0.1,1-0.2,2.1-0.2,3.1
			c0,17.2,13.9,31.1,31.1,31.1c17.2,0,31.1-13.9,31.1-31.1C63.1,16.7,52.1,4.1,37.6,1.4z M17.5,54.4L14.3,51l-3.2,3.4l0.6-4.6
			l-4.6-0.4l4-2.4l-2.6-3.9l4.3,1.6l1.4-4.4l1.4,4.4l4.3-1.6L17.5,47l4,2.4l-4.6,0.4L17.5,54.4z M50.8,31.5l-1.6-1.6l-1.6,1.6
			l0.3-2.2L45.8,29l2-1.2L46.5,26l2.1,0.8l0.7-2.2l0.7,2.2l2.1-0.8l-1.3,1.9l2,1.2l-2.3,0.2L50.8,31.5z M32,0.9c-4.7,0-9.1,1-13,2.9
			v6l13.3-8.9C32.2,0.9,32.1,0.9,32,0.9z"/>
		<polygon class="st1" points="23.8,13.7 37.6,13.7 37.6,11.8 26.7,11.8 		"/>
		<polygon class="st1" points="17,21.9 17,32 19,32 19,23.2 		"/>
		<polygon class="st1" points="26.6,21.1 37.6,21.1 37.6,19.2 23.7,19.2 		"/>
		<path class="st1" d="M19,9.8v-6c-0.7,0.3-1.3,0.6-1.9,1v6.3L19,9.8z"/>
		<path class="st1" d="M11.6,8.6C11,9,10.5,9.5,10,10l1.6,1V8.6z"/>
		<path class="st1" d="M3.7,19.2c-0.2,0.4-0.3,0.7-0.5,1.1l1.7-1.1H3.7z"/>
		<polygon class="st1" points="9.6,23.2 9.6,32 11.6,32 11.6,21.9 		"/>
		<polygon class="st1" points="23.7,19.2 17,19.2 17,21.9 19,23.2 32.2,32 37.6,32 37.6,31.9 21.4,21.1 25.1,21.1 37.6,29.5
			37.6,28.4 26.6,21.1 		"/>
		<path class="st1" d="M11.6,11.1L10,10c-1.2,1.1-2.2,2.4-3.2,3.7h4.7V11.1z"/>
		<path class="st1" d="M17,11.1v2.7h6.8l2.9-1.9l10.9-7.3V1.4c-0.2,0-0.4-0.1-0.6-0.1L21.3,11.8H19v-0.9L33.8,1
			c-0.5,0-1.1,0-1.6-0.1L19,9.8L17,11.1z"/>
		<path class="st1" d="M11.6,21.9v-2.7H4.9l-1.7,1.1c-0.6,1.4-1.1,2.9-1.4,4.5l5.4-3.6h2.4V22l-8.4,5.6c-0.1,0.4-0.1,0.9-0.2,1.3
			l8.6-5.7L11.6,21.9z"/>
		<path class="st2" d="M11.6,19.2v2.7V32H17V21.9v-2.7h6.7h13.9v-5.4H23.8H17v-2.7V4.8c-2,1.1-3.8,2.4-5.4,3.8v2.5v2.7H6.9
			c-1.2,1.7-2.3,3.5-3.2,5.4h1.2H11.6z"/>
		<polygon class="st2" points="21.4,21.1 37.6,31.9 37.6,29.5 25.1,21.1 		"/>
		<path class="st2" d="M19,11.8h2.3L37,1.3C36,1.2,34.9,1,33.8,1L19,10.9V11.8z"/>
		<path class="st2" d="M9.6,21.1H7.2l-5.4,3.6c-0.2,0.9-0.4,1.9-0.5,2.8L9.6,22V21.1z"/>
		<polygon class="st1" points="17.5,47 20.1,43.2 15.7,44.8 14.3,40.4 12.9,44.8 8.5,43.2 11.1,47 7.1,49.4 11.7,49.8 11.1,54.4
			14.3,51 17.5,54.4 16.9,49.8 21.5,49.4 		"/>
		<polygon class="st1" points="50.8,27.9 52.1,26 50,26.8 49.3,24.6 48.6,26.8 46.5,26 47.7,27.9 45.8,29 48,29.2 47.7,31.5
			49.3,29.8 50.8,31.5 50.5,29.2 52.8,29 		"/>
	</g>
</g>
</svg>
