<?xml version="1.0" encoding="utf-8"?>
<!-- Generator: Adobe Illustrator 26.5.0, SVG Export Plug-In . SVG Version: 6.00 Build 0)  -->
<svg version="1.1" id="Layer_1" xmlns="http://www.w3.org/2000/svg" xmlns:xlink="http://www.w3.org/1999/xlink" x="0px" y="0px"
	 viewBox="0 0 64 64" style="enable-background:new 0 0 64 64;" xml:space="preserve">
<style type="text/css">
	.st0{fill:#008D46;}
	.st1{fill:#D2232C;}
	.st2{fill:#FFFFFF;}
</style>
<g>
	<g>
		<path class="st0" d="M32,62.7c12.4,0,23.1-7.3,27.9-17.9H4.1C8.9,55.4,19.6,62.7,32,62.7z"/>
		<path class="st1" d="M32,1.3C19.6,1.3,8.9,8.6,4.1,19.2h55.8C55.1,8.6,44.4,1.3,32,1.3z"/>
		<path class="st2" d="M1.3,32c0,4.6,1,8.9,2.8,12.8h55.8c1.8-3.9,2.8-8.2,2.8-12.8c0-4.6-1-8.9-2.8-12.8H4.1
			C2.3,23.1,1.3,27.4,1.3,32z"/>
	</g>
</g>
</svg>
