<svg xmlns="http://www.w3.org/2000/svg" width="156.353" height="41.996" viewBox="0 0 156.353 41.996">
  <g id="Group_46358" data-name="Group 46358" transform="translate(-100.595 -36.8)">
    <g id="Group_46351" data-name="Group 46351" transform="translate(100.595 36.8)">
      <g id="Group_46348" data-name="Group 46348" transform="translate(52.732 0)">
        <g id="Group_46349" data-name="Group 46349" transform="translate(0)">
          <path id="Path_26793" data-name="Path 26793" d="M80.894,16.053l-10.832-.034q.437,2.668,3.77,2.674a4.236,4.236,0,0,0,3.368-1.4L80.008,19a7.992,7.992,0,0,1-6.583,3.013,7.068,7.068,0,0,1-5.494-2.142,6.578,6.578,0,0,1-1.59-5.358,8.28,8.28,0,0,1,8.374-7.451A6.124,6.124,0,0,1,79.688,9.22a6.757,6.757,0,0,1,1.506,5.329,10.371,10.371,0,0,1-.3,1.5M70.3,13.187l7.322.022a3.15,3.15,0,0,0-1.054-2.128,3.344,3.344,0,0,0-2.206-.742,4.276,4.276,0,0,0-2.55.742A4.1,4.1,0,0,0,70.3,13.187" transform="translate(-66.267 -2.639)" fill="#01165b"/>
          <path id="Path_26794" data-name="Path 26794" d="M93.864,7.116a4.638,4.638,0,0,1,3.715,1.567,5.421,5.421,0,0,1,1.1,4.309l-.918,8.692-3.707-.011.87-8.238a2.687,2.687,0,0,0-.535-2.154,2.548,2.548,0,0,0-2-.77,3.342,3.342,0,0,0-2.407.884,4.04,4.04,0,0,0-1.124,2.615l-.807,7.644-3.706-.012L85.839,7.486l3.706.013-.167,1.585a5.306,5.306,0,0,1,4.49-1.968" transform="translate(-68.097 -2.645)" fill="#01165b"/>
          <path id="Path_26795" data-name="Path 26795" d="M114.593,8.822l.445-5.871,3.707.012-1.762,18.355-3.707-.012.176-1.67a6.214,6.214,0,0,1-4.872,2.052,5.977,5.977,0,0,1-4.745-2.168,6.878,6.878,0,0,1-1.478-5.329,8.32,8.32,0,0,1,2.6-5.289,7.338,7.338,0,0,1,5.2-2.163,5.02,5.02,0,0,1,4.436,2.082m-7.713,8.273a3.66,3.66,0,0,0,2.757,1.113,4.273,4.273,0,0,0,2.961-1.1,4.381,4.381,0,0,0,1.425-2.884,3.511,3.511,0,0,0-.819-2.863,3.461,3.461,0,0,0-2.725-1.141,4.332,4.332,0,0,0-2.993,1.123,4.28,4.28,0,0,0-1.422,2.855,3.6,3.6,0,0,0,.815,2.89" transform="translate(-69.914 -2.224)" fill="#01165b"/>
          <path id="Path_26796" data-name="Path 26796" d="M125.728,21.342l-3.706-.012,1.762-18.355,3.707.011Z" transform="translate(-71.912 -2.227)" fill="#01165b"/>
          <path id="Path_26797" data-name="Path 26797" d="M144.075,16.248l-10.832-.031q.437,2.668,3.77,2.674a4.234,4.234,0,0,0,3.368-1.406l2.809,1.709a7.993,7.993,0,0,1-6.583,3.013,7.068,7.068,0,0,1-5.494-2.142,6.578,6.578,0,0,1-1.59-5.358A8.28,8.28,0,0,1,137.9,7.257a6.124,6.124,0,0,1,4.973,2.168,6.761,6.761,0,0,1,1.507,5.329,10.365,10.365,0,0,1-.3,1.5m-10.59-2.869,7.322.022a3.15,3.15,0,0,0-1.054-2.128,3.344,3.344,0,0,0-2.206-.742,4.276,4.276,0,0,0-2.55.742,4.1,4.1,0,0,0-1.515,2.106" transform="translate(-72.664 -2.659)" fill="#01165b"/>
          <path id="Path_26798" data-name="Path 26798" d="M151.878,11.715q-.1.907,2.45,1.565a12.169,12.169,0,0,1,1.618.473,6.489,6.489,0,0,1,1.427.769,2.987,2.987,0,0,1,1.053,1.32,3.815,3.815,0,0,1,.231,1.9,4.388,4.388,0,0,1-2.022,3.363,7.574,7.574,0,0,1-4.23,1.147q-4.429-.015-5.677-3.387l3.405-1.774a2.386,2.386,0,0,0,2.623,1.85q1.982.005,2.109-1.212.1-.906-2.448-1.565a16.43,16.43,0,0,1-1.614-.515,7.533,7.533,0,0,1-1.416-.755,2.87,2.87,0,0,1-1.087-1.278,3.6,3.6,0,0,1-.223-1.827,4.395,4.395,0,0,1,1.9-3.28,6.764,6.764,0,0,1,4.036-1.2,6.136,6.136,0,0,1,3.107.789,4.945,4.945,0,0,1,2.035,2.23l-3.343,1.689a2.092,2.092,0,0,0-2.146-1.452,2.217,2.217,0,0,0-1.226.323,1.112,1.112,0,0,0-.563.834" transform="translate(-74.413 -2.665)" fill="#01165b"/>
          <path id="Path_26799" data-name="Path 26799" d="M165.753,11.759q-.1.907,2.45,1.565a12.209,12.209,0,0,1,1.618.473,6.51,6.51,0,0,1,1.427.769,2.987,2.987,0,0,1,1.053,1.32,3.815,3.815,0,0,1,.231,1.9,4.389,4.389,0,0,1-2.024,3.363,7.581,7.581,0,0,1-4.229,1.147q-4.429-.015-5.678-3.387l3.406-1.774a2.386,2.386,0,0,0,2.622,1.85q1.982.005,2.11-1.212.1-.906-2.449-1.565a16.247,16.247,0,0,1-1.612-.515,7.562,7.562,0,0,1-1.416-.755,2.871,2.871,0,0,1-1.087-1.278,3.613,3.613,0,0,1-.224-1.827,4.4,4.4,0,0,1,1.9-3.28,6.764,6.764,0,0,1,4.036-1.2,6.137,6.137,0,0,1,3.107.789,4.945,4.945,0,0,1,2.035,2.23l-3.342,1.689a2.1,2.1,0,0,0-2.146-1.452,2.214,2.214,0,0,0-1.227.323,1.108,1.108,0,0,0-.562.834" transform="translate(-75.817 -2.669)" fill="#01165b"/>
          <path id="Path_26800" data-name="Path 26800" d="M178.144.634a2.372,2.372,0,1,1-2.608,2.109A2.372,2.372,0,0,1,178.144.634m.065-.617a2.992,2.992,0,1,1-3.289,2.661A2.992,2.992,0,0,1,178.209.017" transform="translate(-77.265 0)" fill="#01165b" fill-rule="evenodd"/>
          <path id="Path_26801" data-name="Path 26801" d="M177.639,2.751l.4.042a1.75,1.75,0,0,0,.484.012.3.3,0,0,0,.164-.117.476.476,0,0,0,.078-.232.431.431,0,0,0-.044-.265.317.317,0,0,0-.187-.145A3.812,3.812,0,0,0,178.141,2l-.417-.044Zm-.728,1.761.333-3.15,1.126.119a1.651,1.651,0,0,1,.607.15.643.643,0,0,1,.277.333,1.044,1.044,0,0,1,.064.509.947.947,0,0,1-.236.567.79.79,0,0,1-.553.235,1.288,1.288,0,0,1,.256.3,3.577,3.577,0,0,1,.249.544l.258.648-.634-.067-.31-.728a4.7,4.7,0,0,0-.234-.492.429.429,0,0,0-.147-.147.79.79,0,0,0-.265-.063l-.108-.012-.138,1.316Z" transform="translate(-77.468 -0.138)" fill="#01165b"/>
        </g>
      </g>
      <g id="Group_46350" data-name="Group 46350" transform="translate(41.889 0.107) rotate(90)">
        <path id="Path_26807" data-name="Path 26807" d="M12.862,19.85a12.8,12.8,0,0,0,6.987-2.066A21.192,21.192,0,0,0,2.066,0a12.859,12.859,0,0,0,10.8,19.85" transform="translate(22.039 0)" fill="#4090f7"/>
        <path id="Path_26808" data-name="Path 26808" d="M19.85,6.987A12.8,12.8,0,0,0,17.784,0,21.192,21.192,0,0,0,0,17.784a12.859,12.859,0,0,0,19.85-10.8" transform="translate(0 0)" fill="#4090f7"/>
        <path id="Path_26809" data-name="Path 26809" d="M0,12.862A12.8,12.8,0,0,0,2.066,19.85,21.192,21.192,0,0,0,19.85,2.066,12.859,12.859,0,0,0,0,12.862" transform="translate(22.039 22.039)" fill="#4090f7"/>
        <path id="Path_26810" data-name="Path 26810" d="M6.987,0A12.8,12.8,0,0,0,0,2.066,21.193,21.193,0,0,0,17.784,19.85,12.859,12.859,0,0,0,6.987,0" transform="translate(0 22.039)" fill="#4090f7"/>
      </g>
    </g>
    <g id="Group_46355" data-name="Group 46355" transform="translate(150.37 58.931)">
      <path id="Path_26811" data-name="Path 26811" d="M75.283,33.042l.176-1.671,3.707.012L77.672,45.539l-3.707-.011.176-1.673a6.3,6.3,0,0,1-4.9,2.053,5.945,5.945,0,0,1-4.715-2.168,6.875,6.875,0,0,1-1.478-5.329,8.315,8.315,0,0,1,2.6-5.289,7.309,7.309,0,0,1,5.171-2.167,5.1,5.1,0,0,1,4.465,2.082M67.57,41.311A3.511,3.511,0,0,0,70.3,42.425a4.283,4.283,0,0,0,2.961-1.1,4.329,4.329,0,0,0,1.453-2.884,3.465,3.465,0,0,0-3.572-4,4.235,4.235,0,0,0-2.964,1.124,4.28,4.28,0,0,0-1.422,2.855,3.6,3.6,0,0,0,.815,2.89" transform="translate(-62.977 -27.19)" fill="#4090f7"/>
      <path id="Path_26812" data-name="Path 26812" d="M91.989,30.6A5.855,5.855,0,0,1,96.7,32.791a6.785,6.785,0,0,1,1.509,5.3,8.226,8.226,0,0,1-2.63,5.316,7.212,7.212,0,0,1-5.169,2.136,5.02,5.02,0,0,1-4.436-2.082L85.8,45.134l-3.707-.012L84.03,26.767l3.707.012-.619,5.867a6.216,6.216,0,0,1,4.872-2.052M87.36,40.947a3.512,3.512,0,0,0,2.728,1.114,4.275,4.275,0,0,0,2.961-1.1A4.328,4.328,0,0,0,94.5,38.081a3.462,3.462,0,0,0-2.876-3.964,3.4,3.4,0,0,0-.7-.04A4.234,4.234,0,0,0,87.967,35.2a4.278,4.278,0,0,0-1.423,2.855,3.6,3.6,0,0,0,.816,2.89" transform="translate(-64.912 -26.767)" fill="#4090f7"/>
      <path id="Path_26813" data-name="Path 26813" d="M106.529,31.483l-.257,2.435a4.387,4.387,0,0,1,1.88-2.019,5.621,5.621,0,0,1,2.774-.686l-.431,4.078a4.543,4.543,0,0,0-3.116.665,3.635,3.635,0,0,0-1.629,2.913l-.715,6.767-3.706-.012,1.494-14.156Z" transform="translate(-66.859 -27.217)" fill="#4090f7"/>
      <path id="Path_26814" data-name="Path 26814" d="M124.52,43.931a8.162,8.162,0,0,1-5.628,2.135,6.677,6.677,0,0,1-5.175-2.168,6.547,6.547,0,0,1-1.622-5.325,7.983,7.983,0,0,1,2.742-5.287,8.183,8.183,0,0,1,5.632-2.162,6.686,6.686,0,0,1,5.172,2.2,6.525,6.525,0,0,1,1.653,5.3,8.037,8.037,0,0,1-2.774,5.313M116.6,41.389a3.442,3.442,0,0,0,2.67,1.113,4.305,4.305,0,0,0,4.32-3.894,3.378,3.378,0,0,0-2.791-3.878,3.309,3.309,0,0,0-.706-.04,4.212,4.212,0,0,0-2.9,1.095,4.328,4.328,0,0,0-1.388,2.8,3.554,3.554,0,0,0,.8,2.807" transform="translate(-67.942 -27.208)" fill="#4090f7"/>
      <path id="Path_26815" data-name="Path 26815" d="M142.543,33.253l.176-1.671,3.706.012L144.932,45.75l-3.707-.011.176-1.673a6.3,6.3,0,0,1-4.9,2.053,5.945,5.945,0,0,1-4.715-2.168,6.875,6.875,0,0,1-1.478-5.329,8.315,8.315,0,0,1,2.6-5.289,7.309,7.309,0,0,1,5.171-2.167,5.1,5.1,0,0,1,4.465,2.082m-7.713,8.273a3.511,3.511,0,0,0,2.728,1.114,4.284,4.284,0,0,0,2.961-1.1,4.329,4.329,0,0,0,1.453-2.884,3.465,3.465,0,0,0-3.572-4,4.235,4.235,0,0,0-2.964,1.124,4.28,4.28,0,0,0-1.422,2.855,3.6,3.6,0,0,0,.815,2.89" transform="translate(-69.787 -27.211)" fill="#4090f7"/>
      <path id="Path_26816" data-name="Path 26816" d="M161.747,32.888l.619-5.871,3.707.012-1.937,18.355-3.706-.012.176-1.671a6.214,6.214,0,0,1-4.872,2.052,5.977,5.977,0,0,1-4.745-2.168,6.878,6.878,0,0,1-1.478-5.329,8.319,8.319,0,0,1,2.6-5.289,7.338,7.338,0,0,1,5.2-2.163,5.02,5.02,0,0,1,4.436,2.082m-7.713,8.273a3.66,3.66,0,0,0,2.757,1.113,4.273,4.273,0,0,0,2.96-1.1,4.381,4.381,0,0,0,1.425-2.884,3.514,3.514,0,0,0-.819-2.863,3.461,3.461,0,0,0-2.725-1.141,4.332,4.332,0,0,0-2.993,1.123,4.277,4.277,0,0,0-1.423,2.855,3.6,3.6,0,0,0,.816,2.89" transform="translate(-71.731 -26.792)" fill="#4090f7"/>
    </g>
  </g>
</svg>
