<?xml version="1.0" encoding="utf-8"?>
<!-- Generator: Adobe Illustrator 26.5.0, SVG Export Plug-In . SVG Version: 6.00 Build 0)  -->
<svg version="1.1" id="Layer_1" xmlns="http://www.w3.org/2000/svg" xmlns:xlink="http://www.w3.org/1999/xlink" x="0px" y="0px"
	 viewBox="0 0 64 64" style="enable-background:new 0 0 64 64;" xml:space="preserve">
<style type="text/css">
	.st0{fill:#FFFFFF;}
	.st1{fill:#E31937;}
	.st2{fill:#004990;}
</style>
<g>
	<g>
		<path class="st0" d="M47.3,31.2l2-1.5l2,1.5l-0.8-2.4l2-1.5h-2.5L49.3,25l-0.8,2.4H46l2,1.5L47.3,31.2z M47.1,27.7h1.6l0.5-1.6
			l0.5,1.6h1.7l-1.3,1l0.5,1.6l-1.3-1l-1.3,1l0.5-1.6L47.1,27.7z"/>
		<polygon class="st1" points="47.9,30.2 49.3,29.3 50.6,30.2 50.1,28.7 51.4,27.7 49.8,27.7 49.3,26.1 48.8,27.7 47.1,27.7
			48.5,28.7 		"/>
		<g>
			<path class="st2" d="M37.6,1.4v3.1l-10.9,7.3h10.9v9.3h-11l11,7.3V32h-5.4L19,23.2V32H9.6v-8.8l-8.6,5.7c-0.1,1-0.2,2.1-0.2,3.1
				l0,0c0,17.2,13.9,31.1,31.1,31.1S63.1,49.2,63.1,32C63.1,16.7,52.1,4.1,37.6,1.4z M51.3,31.2l-2-1.5l-2,1.5l0.8-2.4l-2-1.5h2.5
				l0.8-2.4l0.8,2.4h2.5l-2,1.5L51.3,31.2z M32.1,0.9h-0.1c-4.6,0-9,1-13,2.9v6l13.3-8.9C32.2,0.9,32.1,0.9,32.1,0.9z"/>
			<polygon class="st0" points="17,21.9 17,32 19,32 19,23.2 			"/>
			<polygon class="st0" points="26.6,21.1 37.6,21.1 37.6,19.2 23.7,19.2 			"/>
			<polygon class="st0" points="9.6,23.2 9.6,32 11.6,32 11.6,21.9 			"/>
			<path class="st0" d="M19,9.8v-6c-0.7,0.3-1.3,0.6-1.9,1v6.3L19,9.8z"/>
			<path class="st0" d="M3.7,19.2c-0.2,0.4-0.3,0.7-0.5,1.1l1.7-1.1H3.7z"/>
			<polygon class="st0" points="37.6,11.8 26.7,11.8 23.8,13.7 37.6,13.7 			"/>
			<path class="st0" d="M11.6,8.6C11,9,10.5,9.5,10,10l1.6,1V8.6z"/>
			<polygon class="st0" points="23.7,19.2 17,19.2 17,21.9 19,23.2 32.2,32 37.6,32 37.6,31.9 21.4,21.1 25.1,21.1 37.6,29.5
				37.6,28.4 26.6,21.1 			"/>
			<path class="st0" d="M11.6,11.1L10,10c-1.1,1.1-2.2,2.4-3.2,3.7h4.7V11.1z"/>
			<path class="st0" d="M17,11.1v2.7h6.8l2.9-1.9l10.9-7.3V1.4c-0.2,0-0.4-0.1-0.6-0.1L21.3,11.8H19v-0.9L33.8,1
				c-0.5,0-1.1-0.1-1.6-0.1L19,9.8L17,11.1z"/>
			<path class="st0" d="M11.6,21.9v-2.7H4.9l-1.7,1.1c-0.6,1.4-1.1,2.9-1.4,4.5l5.4-3.6h2.4V22l-8.4,5.6c-0.1,0.4-0.1,0.9-0.2,1.3
				l8.6-5.7L11.6,21.9z"/>
			<path class="st1" d="M11.6,19.2v2.7V32H17V21.9v-2.7h6.7h13.9v-5.4H23.8H17v-2.7V4.8c-1.9,1.1-3.8,2.4-5.4,3.8v2.5v2.7H6.8
				c-1.2,1.7-2.3,3.5-3.2,5.4h1.2H11.6z"/>
			<polygon class="st1" points="21.4,21.1 37.6,31.9 37.6,29.5 25.1,21.1 			"/>
			<path class="st1" d="M19,11.8h2.3L37,1.3C36,1.1,34.9,1,33.8,1L19,10.9V11.8z"/>
			<path class="st1" d="M9.6,21.1H7.2l-5.4,3.6c-0.2,0.9-0.4,1.9-0.5,2.8L9.6,22V21.1z"/>
		</g>
	</g>
</g>
</svg>
