<?xml version="1.0" encoding="utf-8"?>
<!-- Generator: Adobe Illustrator 26.5.0, SVG Export Plug-In . SVG Version: 6.00 Build 0)  -->
<svg version="1.1" id="Layer_1" xmlns="http://www.w3.org/2000/svg" xmlns:xlink="http://www.w3.org/1999/xlink" x="0px" y="0px"
	 viewBox="0 0 64 64" style="enable-background:new 0 0 64 64;" xml:space="preserve">
<style type="text/css">
	.st0{fill:#FF0000;}
	.st1{fill:#FFFFFF;}
	.st2{fill:#0000FF;}
</style>
<g>
	<g>
		<path class="st0" d="M32,63.1c12.5,0,23.3-7.4,28.3-18.1H3.7C8.7,55.7,19.5,63.1,32,63.1z"/>
		<path class="st1" d="M32,0.9C19.5,0.9,8.7,8.3,3.7,19h56.5C55.3,8.3,44.5,0.9,32,0.9z"/>
		<path class="st2" d="M0.9,32c0,4.6,1,9,2.8,13h56.5c1.8-3.9,2.8-8.3,2.8-13c0-4.6-1-9-2.8-13H3.7C1.9,23,0.9,27.4,0.9,32z"/>
	</g>
</g>
</svg>
