<?xml version="1.0" encoding="utf-8"?>
<!-- Generator: Adobe Illustrator 26.5.0, SVG Export Plug-In . SVG Version: 6.00 Build 0)  -->
<svg version="1.1" id="Layer_1" xmlns="http://www.w3.org/2000/svg" xmlns:xlink="http://www.w3.org/1999/xlink" x="0px" y="0px"
	 viewBox="0 0 64 64" style="enable-background:new 0 0 64 64;" xml:space="preserve">
<style type="text/css">
	.st0{fill:#009A00;}
	.st1{fill:#FFFFFF;}
	.st2{fill:#CE1126;}
</style>
<g>
	<g>
		<path d="M32.1,62.5c12.3,0,22.9-7.3,27.7-17.8H4.4C9.2,55.2,19.8,62.5,32.1,62.5z"/>
		<path class="st0" d="M32.1,1.5C19.8,1.5,9.2,8.8,4.4,19.3h55.4C55,8.8,44.4,1.5,32.1,1.5z"/>
		<path class="st1" d="M1.6,32c0,4.5,1,8.8,2.8,12.7h55.4c1.8-3.9,2.8-8.2,2.8-12.7c0-4.5-1-8.8-2.8-12.7H4.4
			C2.6,23.2,1.6,27.5,1.6,32z"/>
		<path class="st2" d="M1.6,32c0,12.3,7.3,22.9,17.8,27.7V4.3C8.9,9.1,1.6,19.7,1.6,32z"/>
	</g>
</g>
</svg>
