<svg xmlns="http://www.w3.org/2000/svg" width="62" height="62" viewBox="0 0 62 62">
  <g id="Group_50392" data-name="Group 50392" transform="translate(-1363 -8138)">
    <g id="Rectangle_8072" data-name="Rectangle 8072" transform="translate(1363 8138)" fill="#fff" stroke="rgba(214,221,232,0.6)" stroke-width="1">
      <rect width="62" height="62" rx="31" stroke="none"/>
      <rect x="0.5" y="0.5" width="61" height="61" rx="30.5" fill="none"/>
    </g>
    <g id="Group_3465" data-name="Group 3465" transform="translate(1381.703 8157)">
      <path id="Path_1334" data-name="Path 1334" d="M24.521,7.227a9.028,9.028,0,0,0-.572-2.985,6.027,6.027,0,0,0-1.418-2.178A6.028,6.028,0,0,0,20.353.645,9.025,9.025,0,0,0,17.368.074C16.056.014,15.637,0,12.3,0S8.539.014,7.227.074A9.029,9.029,0,0,0,4.242.646,6.027,6.027,0,0,0,2.064,2.064,6.027,6.027,0,0,0,.645,4.242,9.026,9.026,0,0,0,.074,7.227C.014,8.539,0,8.958,0,12.3s.014,3.759.074,5.07a9.026,9.026,0,0,0,.572,2.985,6.026,6.026,0,0,0,1.418,2.178,6.025,6.025,0,0,0,2.178,1.418,9.024,9.024,0,0,0,2.985.572c1.312.06,1.73.074,5.07.074s3.759-.014,5.07-.074a9.024,9.024,0,0,0,2.985-.572,6.287,6.287,0,0,0,3.6-3.6,9.026,9.026,0,0,0,.572-2.985c.06-1.312.074-1.73.074-5.07S24.581,8.539,24.521,7.227Zm-2.214,10.04a6.8,6.8,0,0,1-.423,2.283,4.072,4.072,0,0,1-2.334,2.334,6.8,6.8,0,0,1-2.283.423c-1.3.059-1.685.072-4.969.072s-3.673-.012-4.969-.072a6.806,6.806,0,0,1-2.283-.423,3.811,3.811,0,0,1-1.414-.92,3.809,3.809,0,0,1-.92-1.414,6.8,6.8,0,0,1-.423-2.283c-.059-1.3-.072-1.686-.072-4.969s.013-3.673.072-4.969a6.809,6.809,0,0,1,.423-2.283,3.812,3.812,0,0,1,.92-1.414,3.807,3.807,0,0,1,1.414-.92,6.8,6.8,0,0,1,2.283-.424c1.3-.059,1.686-.072,4.969-.072h0c3.284,0,3.673.013,4.969.072a6.805,6.805,0,0,1,2.283.423,3.812,3.812,0,0,1,1.414.92,3.807,3.807,0,0,1,.92,1.414,6.8,6.8,0,0,1,.424,2.283c.059,1.3.072,1.686.072,4.969S22.367,15.97,22.308,17.267Z" transform="translate(0 0)" fill="#01165b"/>
      <path id="Path_1335" data-name="Path 1335" d="M130.2,124.539a5.656,5.656,0,1,0,5.656,5.656A5.656,5.656,0,0,0,130.2,124.539Zm0,9.328a3.672,3.672,0,1,1,3.672-3.672A3.672,3.672,0,0,1,130.2,133.867Z" transform="translate(-117.898 -117.898)" fill="#01165b"/>
      <path id="Path_1336" data-name="Path 1336" d="M365.206,90.263a1.638,1.638,0,1,1-1.638-1.638A1.638,1.638,0,0,1,365.206,90.263Z" transform="translate(-344.804 -84.432)" fill="#01165b"/>
    </g>
  </g>
</svg>
