<?xml version="1.0" encoding="utf-8"?>
<!-- Generator: Adobe Illustrator 26.5.0, SVG Export Plug-In . SVG Version: 6.00 Build 0)  -->
<svg version="1.1" id="Layer_1" xmlns="http://www.w3.org/2000/svg" xmlns:xlink="http://www.w3.org/1999/xlink" x="0px" y="0px"
	 viewBox="0 0 64 64" style="enable-background:new 0 0 64 64;" xml:space="preserve">
<style type="text/css">
	.st0{fill:#E31937;}
	.st1{fill:#FFFFFF;}
</style>
<g>
	<g>
		<path class="st0" d="M1.6,32c0,9.9,4.8,18.8,12.2,24.3V7.7C6.4,13.2,1.6,22.1,1.6,32z"/>
		<path class="st0" d="M62.4,32c0-9.9-4.8-18.8-12.2-24.3v48.7C57.6,50.8,62.4,41.9,62.4,32z"/>
		<path class="st1" d="M13.8,7.7v48.7c5.1,3.8,11.4,6.1,18.2,6.1c6.8,0,13.2-2.3,18.2-6.1V7.7C45.2,3.9,38.8,1.6,32,1.6
			C25.2,1.6,18.8,3.9,13.8,7.7z"/>
		<path class="st0" d="M32,49.7h0.6l-0.2-8.3c0-0.3,0.3-0.5,0.6-0.5c2.6,0.3,4.9,0.6,7.5,0.9l-0.7-2.3c-0.1-0.4,0-0.8,0.3-1.1
			l7.5-6.4l-1.6-0.8c-0.7-0.3-0.5-0.7-0.2-1.6l1.1-4.4l-4.4,1c-0.4,0.1-0.7-0.2-0.8-0.5l-0.6-2.1l-3.5,4.1c-0.5,0.6-1.5,0.6-1.2-0.9
			l1.5-8.2l-2,1.1c-0.6,0.3-1.1,0.4-1.4-0.2L32,14.3l-2.8,5.3c-0.3,0.6-0.9,0.5-1.4,0.2l-2-1.1l1.5,8.2c0.3,1.5-0.7,1.5-1.2,0.9
			l-3.5-4.1l-0.6,2.1c-0.1,0.3-0.3,0.6-0.8,0.5l-4.4-1l1.1,4.4c0.2,1,0.4,1.4-0.2,1.6l-1.6,0.8l7.5,6.4c0.3,0.2,0.5,0.7,0.3,1.1
			l-0.7,2.3c2.6-0.3,4.9-0.6,7.5-0.9c0.2,0,0.6,0.2,0.6,0.5l-0.2,8.3H32z"/>
	</g>
</g>
</svg>
