<?xml version="1.0" encoding="utf-8"?>
<!-- Generator: Adobe Illustrator 26.5.0, SVG Export Plug-In . SVG Version: 6.00 Build 0)  -->
<svg version="1.1" id="Layer_1" xmlns="http://www.w3.org/2000/svg" xmlns:xlink="http://www.w3.org/1999/xlink" x="0px" y="0px"
	 viewBox="0 0 64 64" style="enable-background:new 0 0 64 64;" xml:space="preserve">
<style type="text/css">
	.st0{fill:#008D46;}
	.st1{fill:#D2232C;}
	.st2{fill:#FFFFFF;}
</style>
<g>
	<g>
		<path class="st0" d="M0.9,32c0,12.5,7.4,23.3,18.1,28.3V3.7C8.4,8.7,0.9,19.5,0.9,32z"/>
		<path class="st1" d="M63.1,32c0-12.5-7.4-23.3-18.1-28.3v56.5C55.7,55.3,63.1,44.5,63.1,32z"/>
		<path class="st2" d="M32,0.9c-4.6,0-9,1-13,2.8v56.5c3.9,1.8,8.3,2.8,13,2.8c4.6,0,9-1,13-2.8V3.7C41,1.9,36.6,0.9,32,0.9z"/>
	</g>
</g>
</svg>
