<?xml version="1.0" encoding="utf-8"?>
<!-- Generator: Adobe Illustrator 26.5.0, SVG Export Plug-In . SVG Version: 6.00 Build 0)  -->
<svg version="1.1" id="Layer_1" xmlns="http://www.w3.org/2000/svg" xmlns:xlink="http://www.w3.org/1999/xlink" x="0px" y="0px"
	 viewBox="0 0 64 64" style="enable-background:new 0 0 64 64;" xml:space="preserve">
<style type="text/css">
	.st0{fill:#FFFFFF;}
	.st1{fill:#CF142B;}
	.st2{fill:#E60D2E;}
	.st3{fill:#96877D;}
	.st4{fill:#CCCCCC;}
	.st5{fill:#95877E;}
	.st6{fill:#010101;}
	.st7{fill:#D0D0D0;}
</style>
<g>
	<g>
		<g>
			<path class="st0" d="M1.4,32.1C1.4,49,15.1,62.7,32,62.7V1.5C15.1,1.5,1.4,15.2,1.4,32.1z"/>
			<path class="st1" d="M62.6,32.1C62.6,15.2,48.9,1.5,32,1.5v61.2C48.9,62.7,62.6,49,62.6,32.1z"/>
		</g>
		<g>
			<g>
				<path id="_x3C_Path_x3E__80_" class="st2" d="M6,18.8v4h4c0,0.7,0.7,1.3,1.3,1.3v4h4v-4c0.7,0,1.3-0.7,1.3-1.3h4v-4h-4
					c0-0.7-0.7-1.3-1.3-1.3v-4h-4v4c-0.7,0-1.3,0.7-1.3,1.3H6z"/>
				<path id="_x3C_Path_x3E__9_" class="st1" d="M6.2,18.9v3.7h4c0,0.7,0.7,1.3,1.3,1.3v4h3.7v-4c0.7,0,1.3-0.7,1.3-1.3h4v-3.7h-4
					c0-0.7-0.7-1.3-1.3-1.3v-4h-3.7v4c-0.7,0-1.3,0.7-1.3,1.3H6.2z"/>
				<path id="_x3C_Path_x3E__6_" class="st3" d="M6.3,19.1v3.5h4c0,0.7,0.7,1.3,1.3,1.3v4h3.5v-4c0.7,0,1.3-0.7,1.3-1.3h4v-3.5h-4
					c0-0.7-0.7-1.3-1.3-1.3v-4h-3.5v4c-0.7,0-1.3,0.7-1.3,1.3H6.3z"/>
				<path id="_x3C_Path_x3E__5_" class="st4" d="M6.4,19.2v3.2h4c0,0.7,0.7,1.3,1.3,1.3v4H15v-4c0.7,0,1.3-0.7,1.3-1.3h4v-3.2h-4
					c0-0.7-0.7-1.3-1.3-1.3v-4h-3.2v4c-0.7,0-1.3,0.7-1.3,1.3H6.4z"/>
			</g>
			<path class="st5" d="M13.3,18c0.3,0,0.6,0,0.9,0.1c0.5,0.1,0.9,0.4,1.2,0.7c0.3,0.3,0.6,0.8,0.7,1.2c0.1,0.4,0.1,0.9,0,1.4
				c-0.1,0.3-0.2,0.7-0.4,1c-0.2,0.3-0.4,0.5-0.7,0.7c-0.3,0.2-0.7,0.4-1.1,0.4c-0.5,0.1-1,0.1-1.4-0.1c-0.5-0.1-0.9-0.4-1.2-0.8
				c-0.3-0.4-0.5-0.8-0.6-1.2c-0.1-0.3-0.1-0.7,0-1c0.1-0.5,0.2-0.9,0.5-1.3c0.3-0.4,0.7-0.7,1.1-0.9C12.6,18.1,12.9,18,13.3,18
				L13.3,18z"/>
			<path class="st4" d="M12.4,18.2c0.6-0.2,1.2-0.2,1.8-0.1c0.5,0.1,0.9,0.4,1.3,0.8c0.3,0.3,0.5,0.7,0.6,1.1c0.1,0.5,0.1,1,0,1.4
				c-0.1,0.4-0.3,0.7-0.5,1c-0.2,0.3-0.5,0.5-0.7,0.7c-0.3,0.2-0.7,0.3-1,0.4c-0.1,0-0.2,0-0.4,0c0,0,0-0.1,0-0.1c0-0.1,0-0.1,0-0.2
				c0.1,0,0.1,0,0.2,0c0,0,0.1,0,0.1,0c0,0,0-0.1,0-0.1c0,0-0.1,0-0.1,0c-0.1,0-0.1,0-0.2,0c0-0.1,0-0.1,0-0.2c0,0,0-0.1,0-0.1
				c0,0-0.1,0-0.1,0c0,0,0,0.1,0,0.1c0,0,0,0.1,0,0.1c-0.1,0-0.1,0-0.2,0c0,0-0.1,0-0.1,0c0,0,0,0.1,0,0.1c0,0,0.1,0,0.1,0
				c0.1,0,0.1,0,0.2,0c0,0,0,0.1,0,0.1c0,0,0,0.1,0,0.1l0,0c-0.5,0-1-0.2-1.4-0.4c-0.4-0.3-0.7-0.6-1-1c-0.1-0.2-0.2-0.4-0.2-0.6
				c-0.1-0.3-0.1-0.7,0-1.1c0.1-0.5,0.3-0.9,0.6-1.3C11.5,18.7,11.9,18.4,12.4,18.2L12.4,18.2z"/>
			<path class="st6" d="M13.3,18.1c0.1,0,0.1,0,0.2,0c0,0,0,0,0,0c0,0-0.1,0-0.1,0c0,0,0,0.1,0,0.1c0,0.1,0,0.1,0,0.2
				c0,0,0,0.1,0,0.1c0,0,0.1,0,0.1,0c0,0,0.1,0,0.1,0c0,0,0,0,0-0.1c0,0.1,0,0.1,0,0.1c-0.1,0-0.2,0-0.4,0c0,0,0,0,0,0
				c0,0,0.1,0,0.1,0c0-0.1,0-0.2,0-0.3C13.3,18.3,13.4,18.2,13.3,18.1C13.3,18.2,13.3,18.1,13.3,18.1C13.3,18.1,13.3,18.1,13.3,18.1
				L13.3,18.1z"/>
			<path class="st6" d="M14,18.2c0.1,0,0.1,0,0.2,0.1c0,0,0,0-0.1,0c0,0,0,0,0,0c0,0.1-0.1,0.2-0.1,0.3c0,0,0,0,0,0.1
				c0,0,0.1,0,0.1,0c0,0,0.1,0,0.1-0.1c0,0,0,0,0,0c0,0-0.1,0.1-0.1,0.1c-0.1,0-0.2-0.1-0.4-0.1c0,0,0,0,0,0c0,0,0,0,0,0
				c0-0.1,0.1-0.2,0.1-0.3C14.1,18.3,14.1,18.3,14,18.2C14.1,18.2,14.1,18.2,14,18.2C14,18.2,14,18.2,14,18.2L14,18.2z"/>
			<path class="st6" d="M12.7,18.3C12.7,18.2,12.7,18.2,12.7,18.3C12.7,18.2,12.7,18.2,12.7,18.3c0.1,0.1,0.2,0.2,0.3,0.3
				c0,0,0,0,0.1,0c0,0,0,0,0,0v0c-0.1,0-0.1,0-0.2,0c0,0,0,0,0,0c0,0,0,0,0,0c0,0,0-0.1-0.1-0.1c-0.1,0-0.1,0-0.2,0c0,0,0,0.1,0,0.1
				c0,0,0,0,0.1,0v0c0,0-0.1,0-0.1,0c0,0,0,0,0,0c0,0,0-0.1,0-0.1C12.6,18.5,12.7,18.4,12.7,18.3L12.7,18.3z"/>
			<path class="st4" d="M12.7,18.5c0-0.1,0-0.1,0-0.2c0,0.1,0.1,0.1,0.1,0.2C12.8,18.5,12.7,18.5,12.7,18.5L12.7,18.5z"/>
			<path class="st6" d="M12.1,18.5C12.1,18.5,12.1,18.5,12.1,18.5c0,0,0.1,0.1,0.1,0.1c0,0,0,0,0,0C12.1,18.5,12,18.5,12.1,18.5
				c-0.1,0.1-0.2,0.1-0.2,0.2c0,0.1,0,0.1,0,0.2c0,0.1,0.1,0.1,0.2,0.1c0.1,0,0.1,0,0.2-0.1c0-0.1-0.1-0.1-0.1-0.1c0,0-0.1,0-0.1,0
				l0,0c0,0,0.1-0.1,0.1-0.1c0,0,0,0,0,0c0,0,0,0,0,0c0,0,0,0,0,0c0,0.1,0.1,0.1,0.1,0.1c0,0.1-0.1,0.1-0.2,0.2
				c-0.1,0-0.2,0-0.2-0.1c-0.1-0.1-0.1-0.2-0.1-0.3C11.9,18.6,12,18.5,12.1,18.5C12,18.5,12.1,18.5,12.1,18.5
				C12.1,18.5,12.1,18.5,12.1,18.5L12.1,18.5z"/>
			<path class="st6" d="M14.9,18.6C14.9,18.6,14.9,18.6,14.9,18.6C14.9,18.6,14.9,18.7,14.9,18.6c0,0.2,0,0.3-0.1,0.4
				c0,0,0,0.1,0,0.1c0,0,0,0,0,0c0,0,0,0,0,0c0,0-0.1-0.1-0.1-0.1c0,0,0,0,0,0c0,0,0,0,0.1,0c0,0,0-0.1,0-0.1c0,0-0.1-0.1-0.1-0.1
				c0,0,0,0,0,0c0,0-0.1,0-0.1,0c0,0,0,0,0,0.1l0,0c0,0-0.1-0.1-0.1-0.1c0,0,0,0,0.1,0c0,0,0,0,0.1,0C14.7,18.8,14.8,18.7,14.9,18.6
				L14.9,18.6z"/>
			<path class="st5" d="M13.3,18.7c0.3,0,0.6,0,0.9,0.2c0.4,0.2,0.8,0.5,1,0.8c0.1,0.2,0.2,0.5,0.3,0.7c0.1,0.3,0.1,0.6,0,0.9
				c-0.1,0.4-0.3,0.8-0.6,1.1c-0.3,0.3-0.7,0.5-1,0.6c-0.3,0.1-0.6,0.1-0.9,0c-0.5-0.1-0.9-0.3-1.2-0.7c-0.3-0.4-0.5-0.9-0.6-1.4
				c0-0.4,0.1-0.8,0.3-1.1c0.2-0.4,0.6-0.7,0.9-0.8C12.8,18.7,13,18.7,13.3,18.7L13.3,18.7z"/>
			<path class="st4" d="M14.7,18.8c0.1,0,0.1-0.1,0.2-0.1c0,0.1,0,0.1,0,0.2C14.8,18.9,14.7,18.8,14.7,18.8L14.7,18.8z"/>
			<path class="st4" d="M13.2,18.7c0.2,0,0.5,0,0.7,0.1c0.4,0.1,0.8,0.4,1.1,0.7c0.1,0.2,0.3,0.4,0.3,0.6c0.2,0.5,0.1,1-0.1,1.4
				c-0.2,0.4-0.4,0.7-0.7,0.9c-0.2,0.1-0.4,0.2-0.6,0.3c-0.5,0.1-1,0.1-1.5-0.1c-0.4-0.2-0.7-0.5-0.9-0.9c-0.1-0.3-0.2-0.6-0.2-0.9
				c0-0.1,0-0.1,0-0.2c0-0.4,0.2-0.9,0.4-1.2c0.3-0.3,0.6-0.6,1-0.7C12.9,18.8,13.1,18.7,13.2,18.7L13.2,18.7z"/>
			<path class="st6" d="M13.3,18.9c0,0,0.1,0,0.1,0c0.1,0,0.2,0.1,0.2,0.1c0,0,0,0.1,0,0.2c0,0,0.1,0,0.1,0c0,0,0.1-0.1,0.1-0.1
				c0,0,0,0.1,0,0.1c0.1,0,0.3,0,0.4,0.1c0,0,0,0,0.1,0c0,0,0,0.1,0,0.1c0,0,0,0.1,0,0.1c0,0,0,0-0.1,0c0,0-0.1,0-0.1,0
				c-0.1,0.1-0.1,0.1-0.2,0.2c0,0.1,0.1,0.1,0.1,0.2c0,0,0,0.1,0,0.1c0.1,0,0.1,0.1,0.2,0.2c0.1-0.1,0.2-0.1,0.3-0.2
				c0.1,0,0.1,0,0.2,0.1c0.1,0,0.2,0.1,0.2,0.1c0,0,0,0,0,0c0.1,0.1,0.2,0.1,0.2,0.2c0,0,0,0,0,0c0,0-0.1,0-0.1,0c0,0-0.1,0-0.1-0.1
				c-0.1,0-0.1,0-0.2-0.1c-0.1,0-0.2-0.1-0.3-0.1c0,0,0,0,0,0c0,0.1-0.1,0.2-0.2,0.3c0.1,0,0.2,0,0.3,0c0.1,0.1,0.2,0.2,0.3,0.2
				c0,0,0,0,0,0c0.1,0.1,0.1,0.2,0.2,0.3c-0.1,0-0.1,0-0.2,0c0,0,0-0.1-0.1-0.1c0,0,0,0,0,0c0,0,0,0,0-0.1c0-0.1-0.1-0.1-0.2-0.2
				c0,0-0.1,0-0.1,0c0,0,0,0-0.1,0c-0.1,0-0.2,0.1-0.4,0.1c0,0-0.1,0-0.2,0c0,0-0.1,0-0.1,0c0,0,0,0.1,0.1,0.1c0,0,0,0,0,0
				c0.1,0.1,0.1,0.1,0.2,0.1c0,0,0,0,0,0c0.1-0.1,0.1-0.1,0.2-0.2c0,0,0.1,0,0.1,0c-0.1,0.1-0.1,0.2-0.2,0.3c0,0,0,0.1,0,0.1h0
				c0,0,0.1-0.1,0.1,0c0.1,0,0.1,0.1,0.2,0.1c0,0,0.1,0,0.1,0c0,0,0,0,0-0.1c0,0-0.1-0.1-0.1-0.1c0,0-0.1,0-0.1,0c0,0,0,0,0-0.1
				c0,0,0,0,0,0c0,0,0,0,0,0c0,0-0.1-0.1-0.1-0.1c0,0,0,0,0,0c0.1,0,0.1,0.1,0.2,0.1c0,0-0.1-0.1-0.1-0.1c0-0.1,0-0.1,0.1-0.1
				c0,0,0.1,0,0.1-0.1c0,0.1,0,0.1,0.1,0.2c0,0,0,0,0.1,0c0,0,0,0,0,0c0,0,0.1,0.1,0.1,0.2c0,0,0.1,0,0.1,0c0,0,0,0,0,0
				c0,0,0.1,0,0.1,0c0,0,0,0-0.1,0c0,0,0,0,0.1,0c0,0-0.1,0-0.1,0c0,0,0,0,0,0.1c0,0-0.1,0-0.1-0.1c0,0.1-0.1,0.1-0.1,0.2
				c0,0-0.1,0-0.1,0c0,0-0.1-0.1-0.1-0.1c0,0,0,0,0,0c0,0,0,0.1,0,0.1c0,0.1,0.1,0.1,0.1,0.2c0.1,0,0.1-0.1,0.2-0.1
				c0-0.1,0-0.1,0-0.2c0,0,0,0,0.1-0.1c0,0,0,0,0,0c0,0,0.1,0,0.1,0.1c0,0,0,0,0,0c0,0,0,0,0,0.1c0,0-0.1,0-0.1,0
				c0,0.1,0,0.1-0.1,0.2c0,0.1-0.1,0.1-0.2,0.2c0,0,0.1,0.1,0.1,0.1c0,0,0-0.1,0.1-0.1c0,0,0,0,0,0c0,0,0,0,0,0c0,0,0,0,0,0
				c0,0,0,0,0,0c0,0.1-0.1,0.1-0.2,0.1c-0.1,0-0.2,0-0.2-0.1c0,0,0,0-0.1,0c0,0,0,0,0,0c0,0,0,0,0,0c0.1,0.1,0.2,0.1,0.3,0.2
				c-0.1,0-0.1,0.1-0.2,0.1c0,0,0,0,0,0c-0.4,0-0.8,0-1.2,0c-0.1,0-0.1,0-0.2,0c-0.2,0-0.4,0-0.6,0c-0.1,0-0.1,0-0.2,0c0,0,0,0,0,0
				c-0.1-0.1-0.1-0.1-0.2-0.1c0.1,0,0.3,0,0.4,0c0,0,0,0,0,0c0,0-0.1,0-0.1,0c-0.2,0-0.3-0.1-0.5-0.1c0,0,0,0,0,0c0.1,0,0.3,0,0.4,0
				c0.1,0,0.2,0,0.3,0c0,0,0.1-0.1,0.1-0.1c0,0,0,0,0,0c0.1,0,0.1,0,0.2,0c0,0,0,0,0,0c0,0,0,0,0-0.1c-0.1,0-0.1-0.1-0.2-0.1
				c0,0-0.1,0-0.1,0c0,0,0,0,0,0c0-0.1,0.1-0.2,0-0.3c-0.1,0-0.2-0.1-0.3-0.2c-0.1-0.1-0.1-0.1-0.1-0.2c0,0-0.1,0-0.1,0
				c-0.1,0-0.1-0.1-0.2-0.1c0,0-0.1,0-0.1,0c0,0,0,0,0,0c0,0.1,0.1,0.1,0.1,0.2c0,0,0,0.1,0,0.1c0,0-0.1,0.1-0.1,0.1
				c0,0,0,0.1,0.1,0.1c0,0,0,0,0,0c0,0,0,0.1,0,0.1c0,0,0,0-0.1,0.1c0,0-0.1,0-0.1,0c0,0.1,0,0.1,0,0.2c0,0,0,0,0,0c0,0,0,0,0-0.1
				c0,0,0,0,0,0c0,0,0-0.1,0-0.1c0,0,0-0.1,0-0.1c0,0-0.1,0-0.1-0.1c0,0,0-0.1,0-0.1c0,0,0.1-0.1,0.1-0.1c0,0,0.1,0,0.1-0.1
				c0,0,0-0.1,0-0.1c0-0.1-0.1-0.2-0.1-0.3c0-0.1,0-0.1,0.1-0.1c0,0,0.1,0,0.1,0c0.1,0,0.2,0.1,0.3,0.1c0,0,0.1,0,0.1,0
				c0-0.1,0.1-0.2,0.2-0.3c-0.1-0.1-0.1-0.1-0.2-0.2c0,0,0,0,0,0c0,0-0.1,0-0.1,0c0,0,0,0,0,0c0,0,0,0,0,0c0,0-0.1-0.1-0.1-0.1
				c0,0,0.1,0,0.1,0c0,0,0-0.1,0-0.1c-0.1,0.1-0.2,0.2-0.3,0.2c0,0-0.1,0-0.2,0c-0.1,0-0.1-0.1-0.2-0.1c0,0,0,0,0.1,0c0,0,0,0,0,0
				c0,0,0,0,0,0c0,0-0.1,0-0.1,0c0,0,0,0,0-0.1c0,0,0-0.1,0-0.1c0-0.1,0-0.1,0-0.2c0,0,0.1,0,0.1-0.1c0,0,0-0.1,0-0.1
				c0-0.1,0.1-0.1,0.1-0.1c0,0,0.1,0,0.1,0c0-0.1,0-0.1,0.1-0.2c0,0,0,0,0.1,0c0-0.1,0.1-0.1,0.1-0.1c0,0,0,0,0.1,0
				c0.1,0,0.1,0,0.2,0.1c0,0,0.1-0.1,0.1-0.1c0,0,0.1,0,0.1,0c0,0,0,0,0.1-0.1c0.1,0,0.1,0,0.2,0c0,0,0.1,0,0.1,0
				C13.1,19,13.2,19,13.3,18.9L13.3,18.9z"/>
			<path class="st5" d="M13.2,19c0.1,0,0.2-0.1,0.2,0c0.1,0,0.2,0.1,0.2,0.2c0,0,0,0.1,0,0.1c0,0.1-0.1,0.1-0.1,0.2c0,0,0-0.1,0-0.1
				c0-0.1,0-0.1,0-0.2c-0.1-0.1-0.2-0.1-0.3-0.1c0,0,0,0-0.1,0.1c0,0-0.1,0-0.1,0C13.1,19.1,13.2,19,13.2,19L13.2,19z"/>
			<path class="st6" d="M15.4,19C15.4,19,15.4,19,15.4,19c0,0,0.1,0.1,0.1,0.1c0,0.2-0.1,0.3-0.1,0.5c0.1-0.1,0.2-0.1,0.2-0.2
				c0,0,0-0.1,0-0.1c0,0,0,0,0,0c0,0,0.1,0.1,0.1,0.1c0,0,0,0,0,0c0,0,0,0,0,0c0,0,0,0-0.1,0c-0.1,0.1-0.2,0.2-0.3,0.2c0,0,0,0,0,0
				c0-0.2,0.1-0.3,0.1-0.5c-0.1,0.1-0.1,0.1-0.2,0.2c0,0,0,0,0,0.1c0,0,0,0,0,0c0,0,0,0,0,0c0,0-0.1-0.1-0.1-0.1c0,0,0,0,0,0
				c0,0,0,0,0,0c0,0,0,0,0.1,0c0.1-0.1,0.2-0.1,0.3-0.2C15.4,19.1,15.4,19.1,15.4,19C15.4,19,15.4,19,15.4,19L15.4,19z"/>
			<path class="st5" d="M13.2,19.2c0,0,0.1-0.1,0.1-0.1c0.1,0,0.1,0,0.2,0.1c0,0,0,0.1,0,0.1c0,0-0.1,0-0.1,0
				C13.4,19.3,13.3,19.3,13.2,19.2C13.2,19.3,13.2,19.3,13.2,19.2c-0.1,0.1-0.2,0.1-0.2,0.2c0,0,0,0-0.1,0c-0.1,0-0.1,0-0.2-0.1
				c-0.1,0-0.1,0-0.2,0c0-0.1,0.1-0.1,0.2-0.1c0,0,0-0.1,0.1-0.1c0.1,0,0.1,0,0.2,0c0,0,0.1,0,0.1,0C13.1,19.2,13.2,19.2,13.2,19.2
				L13.2,19.2z"/>
			<path class="st5" d="M13.8,19.2C13.8,19.2,13.8,19.2,13.8,19.2C13.9,19.2,13.9,19.3,13.8,19.2c0.2,0.1,0.4,0.1,0.6,0.1
				c0,0,0,0.1,0,0.2c0,0,0,0-0.1,0c0,0,0,0-0.1,0c0,0,0,0,0.1-0.1c0,0,0,0-0.1,0c0,0,0,0.1-0.1,0.1c0,0,0,0-0.1,0
				c-0.1,0-0.1,0-0.2,0c0,0,0.1,0.1,0.1,0.1c-0.1,0.1-0.3,0.2-0.4,0.3c0,0,0-0.1,0-0.1c0-0.1,0-0.1,0-0.2c0-0.1,0.1-0.2,0.2-0.3
				C13.7,19.4,13.7,19.3,13.8,19.2C13.8,19.3,13.8,19.2,13.8,19.2L13.8,19.2z"/>
			<path class="st5" d="M13.7,19.2C13.7,19.2,13.7,19.2,13.7,19.2c0.1,0,0,0.1,0,0.1c-0.1,0.1-0.1,0.2-0.2,0.3c0,0.1,0,0.2,0,0.2
				c0,0,0,0.1,0,0.1c0,0,0,0-0.1,0c0-0.1,0-0.1-0.1-0.2c0,0,0-0.1,0-0.1c0-0.1,0-0.1,0-0.2c0,0,0.1-0.1,0.1-0.1
				C13.5,19.4,13.6,19.3,13.7,19.2L13.7,19.2z"/>
			<path class="st5" d="M12.2,19.4c0-0.1,0.1-0.1,0.1-0.1c0,0,0.1,0,0.1,0c0.1,0,0.3,0.1,0.5,0.1c0,0,0.1,0,0.1,0c0,0,0.1,0,0.1,0
				c0,0-0.1,0-0.1,0c-0.1,0-0.1,0-0.2,0.1c0,0,0,0,0,0c-0.1,0-0.1,0.1-0.1,0.1c0,0,0,0-0.1,0c0,0-0.1,0.1-0.1,0.1c0,0-0.1,0-0.1,0.1
				c-0.1,0.1-0.1,0.1-0.1,0.2c-0.1,0-0.1,0.1-0.2,0.2c0,0-0.1,0.1-0.2,0.1c-0.1,0-0.1,0-0.2-0.1c0,0,0,0,0,0c0,0,0-0.1,0-0.1
				c0,0-0.1,0-0.1,0c0,0,0,0,0,0c0,0,0-0.1,0-0.1c0-0.1,0-0.1,0.1-0.2c0,0,0.1,0,0.1,0c0,0,0-0.1,0-0.1c0-0.1,0-0.1,0.1-0.2
				c0,0,0.1,0,0.1,0c0,0,0-0.1,0-0.1C12,19.4,12.1,19.4,12.2,19.4L12.2,19.4z"/>
			<path class="st5" d="M13.2,19.3c0.1,0,0.2,0,0.4,0c0,0,0,0,0,0.1c0,0,0,0.1,0,0.1c0,0,0,0-0.1,0c0,0-0.1,0.1-0.1,0.1c0,0,0,0,0,0
				c0,0,0,0,0,0c0,0-0.1-0.1-0.1-0.1c0,0,0.1,0,0.1,0C13.2,19.4,13.2,19.3,13.2,19.3L13.2,19.3z"/>
			<path class="st5" d="M13.1,19.3C13.1,19.3,13.1,19.3,13.1,19.3C13.2,19.3,13.2,19.3,13.1,19.3C13.2,19.4,13.2,19.4,13.1,19.3
				C13.1,19.4,13.1,19.3,13.1,19.3L13.1,19.3z"/>
			<path class="st4" d="M12.5,19.3c0.1,0,0.1,0,0.2,0C12.7,19.3,12.6,19.3,12.5,19.3L12.5,19.3z"/>
			<path class="st4" d="M13,19.4c0,0,0.1-0.1,0.1-0.1c0,0,0,0.1,0.1,0.1c0,0,0,0,0,0C13.1,19.4,13,19.4,13,19.4L13,19.4z"/>
			<path class="st5" d="M12.9,19.5c0,0,0.1,0,0.2,0c0,0,0,0,0.1,0c0,0.1,0.1,0.1,0.1,0.1c0,0,0.1,0,0.1,0.1c0,0,0,0,0,0.1
				c0,0,0,0-0.1-0.1c0,0-0.1,0-0.1,0c0,0,0,0,0.1,0.1c0,0,0,0,0,0c0,0,0,0,0.1,0c0,0,0,0,0,0c0,0,0,0,0,0.1c0,0.1,0,0.2,0,0.2
				c0,0,0,0.1,0.1,0.1c0,0.1,0,0.1,0,0.1c-0.1-0.1-0.2-0.1-0.2-0.2c0,0-0.1-0.1-0.1-0.1c0-0.1,0-0.2-0.1-0.2
				C13,19.6,12.9,19.6,12.9,19.5C12.9,19.5,12.9,19.5,12.9,19.5L12.9,19.5z"/>
			<path class="st5" d="M12.7,19.6c0,0,0.1-0.1,0.1-0.1c0,0,0,0,0,0.1c0,0.1,0.1,0.1,0.1,0.2c0,0.1,0,0.2,0.1,0.3
				c0,0.1,0.1,0.1,0.2,0.2c0,0,0.1,0.1,0.1,0.1c0,0,0,0.1,0,0.1c0.1,0,0.3,0,0.4,0.1c0,0,0,0.1,0,0.1c0,0.1,0.1,0.3,0.1,0.4
				c0,0,0,0.1,0,0.1c0.1,0.1,0.2,0.1,0.3,0.2c0,0,0,0,0.1,0.1c-0.1,0-0.1,0-0.2,0c0,0,0,0-0.1,0c0,0,0,0,0,0c0,0-0.1,0-0.1,0
				c0,0,0,0,0-0.1c-0.1-0.1-0.2-0.2-0.3-0.3c0-0.1-0.1-0.2-0.1-0.3c-0.1,0-0.1,0-0.2,0c-0.1,0-0.2,0-0.4-0.1c0,0,0,0-0.1,0
				c0,0-0.1-0.1-0.1-0.1c0-0.1-0.1-0.1-0.1-0.2c0,0-0.1-0.1-0.1-0.2c0-0.1,0-0.1,0.1-0.2c0,0,0,0,0,0c0,0-0.1,0.1-0.1,0.1
				c0,0-0.1,0-0.1,0c0,0.1-0.1,0.2-0.2,0.2c0,0,0,0.1,0,0.1c0,0,0,0.1,0,0.1c0,0,0,0,0,0.1c0,0,0,0-0.1,0c0,0,0,0.1,0,0.1
				c0,0-0.1,0-0.1,0c0,0,0,0,0,0c0,0,0,0,0,0c0,0,0,0,0-0.1c0,0,0-0.1,0-0.1c0-0.1,0-0.2,0.1-0.3c0,0,0-0.1,0.1-0.1c0,0,0,0,0.1,0
				c0-0.1,0.1-0.1,0.1-0.1c0,0,0,0,0.1,0C12.6,19.7,12.6,19.6,12.7,19.6C12.7,19.6,12.7,19.6,12.7,19.6L12.7,19.6z"/>
			<path class="st4" d="M13.3,19.6c0,0,0.1,0,0.1-0.1c0,0,0,0,0.1,0C13.5,19.6,13.4,19.6,13.3,19.6C13.4,19.6,13.4,19.6,13.3,19.6
				C13.4,19.6,13.3,19.6,13.3,19.6C13.3,19.6,13.3,19.6,13.3,19.6L13.3,19.6z"/>
			<path class="st5" d="M14.2,19.5C14.2,19.5,14.2,19.5,14.2,19.5c-0.1,0.2-0.3,0.4-0.5,0.5c-0.1,0-0.2,0.1-0.3,0.1c0,0-0.1,0-0.1,0
				c0,0,0-0.1,0-0.2c0,0,0-0.1,0-0.1c0,0,0,0.1,0,0.1c0,0,0,0.1,0,0.1c0,0,0,0,0,0c0,0,0,0,0.1,0c0.2-0.1,0.4-0.2,0.5-0.3
				C14.1,19.7,14.1,19.6,14.2,19.5L14.2,19.5z"/>
			<path class="st4" d="M13.9,19.7c0.1,0,0.1,0,0.2-0.1C14.1,19.7,14,19.7,13.9,19.7C14,19.7,13.9,19.7,13.9,19.7L13.9,19.7z"/>
			<path class="st5" d="M13.2,19.6c0,0,0.1,0,0.1,0c0,0,0,0,0.1,0c0,0,0,0,0,0.1c0,0,0,0,0,0C13.3,19.7,13.3,19.7,13.2,19.6
				C13.3,19.7,13.3,19.7,13.2,19.6C13.2,19.6,13.2,19.6,13.2,19.6L13.2,19.6z"/>
			<path class="st6" d="M15.8,19.8c0,0,0.1,0,0.1,0c0,0.1,0.1,0.2,0.1,0.4c0,0,0,0,0,0c0,0-0.1,0-0.1,0c0,0,0,0,0,0c0,0,0,0,0-0.1
				c0,0,0-0.1,0-0.1c-0.1,0-0.2,0.1-0.3,0.1c0,0,0,0,0,0c0,0,0,0,0,0c0,0,0,0,0,0c0-0.1,0-0.1-0.1-0.2c0,0,0,0,0,0c0,0,0,0,0,0
				c0,0,0.1,0,0.1,0c0.1,0,0.2-0.1,0.3-0.1C15.9,19.9,15.9,19.8,15.8,19.8C15.8,19.8,15.8,19.8,15.8,19.8L15.8,19.8z"/>
			<path class="st6" d="M10.9,19.8c0.1,0,0.1,0,0.2,0c0,0,0,0.1,0,0.1c0.1,0,0.1,0,0.2,0c0,0,0.1,0,0.1-0.1c0,0,0,0,0,0
				c0,0,0,0.1,0,0.1c-0.1,0-0.2,0-0.3,0.1c0,0,0,0,0,0c0.1,0,0.1,0,0.2,0.1c0,0,0,0,0.1,0c0,0,0,0,0,0c0,0.1,0,0.1-0.1,0.2
				c0,0,0,0,0,0c0,0,0,0,0-0.1c0,0,0,0,0,0c-0.1,0-0.2-0.1-0.3-0.1c0,0,0,0-0.1,0c0,0,0,0,0,0.1c0,0,0,0,0,0c0-0.1,0-0.1,0.1-0.2
				C10.9,19.9,10.9,19.8,10.9,19.8L10.9,19.8z"/>
			<path class="st5" d="M13.5,20.1c0.2-0.1,0.3-0.2,0.5-0.3c0,0.1,0.1,0.1,0.1,0.2c0,0,0,0.1,0,0.1c0.1,0,0.1,0.1,0.2,0.2
				c0.1-0.1,0.2-0.1,0.3-0.2c0.1,0,0.1,0,0.2,0c0.1,0,0.2,0.1,0.2,0.1c0,0,0,0,0,0c0.1,0,0.1,0.1,0.2,0.1c0,0,0,0,0,0
				c0,0-0.1,0-0.1,0c0,0,0,0-0.1-0.1c-0.1,0-0.1,0-0.2-0.1c-0.1-0.1-0.2-0.1-0.3,0c0,0.1-0.1,0.2-0.2,0.3c0,0-0.1,0-0.1,0.1l0,0
				c0,0,0.1,0,0.1,0c0.1,0,0.1,0,0.2,0c0,0,0,0,0.1,0.1c0.1,0.1,0.2,0.1,0.2,0.2c0,0,0,0,0,0c0,0.1,0.1,0.2,0.1,0.2c0,0-0.1,0-0.1,0
				c0,0-0.1-0.1-0.1-0.1c0,0,0,0,0,0.1c0,0,0,0,0-0.1c-0.1-0.1-0.1-0.2-0.2-0.2c0,0-0.1,0-0.1,0c0,0,0,0,0,0c-0.1,0-0.2,0.1-0.2,0.1
				c-0.1,0-0.2,0-0.3,0c0,0-0.1,0-0.1,0c0-0.1-0.1-0.2-0.1-0.3c0,0,0,0,0-0.1c-0.1-0.1-0.2-0.2-0.4-0.2c0,0,0-0.1,0-0.1
				C13.5,20.2,13.5,20.1,13.5,20.1L13.5,20.1z"/>
			<path class="st4" d="M10.9,19.9c0,0,0.1,0,0.1,0.1c0,0,0,0.1,0,0.1c-0.1,0-0.1,0-0.2-0.1C10.9,19.9,10.9,19.9,10.9,19.9
				L10.9,19.9z"/>
			<path class="st5" d="M12.7,19.9C12.7,19.9,12.8,19.9,12.7,19.9C12.8,19.9,12.7,19.9,12.7,19.9c0,0.1-0.1,0.1-0.1,0.1
				C12.6,20,12.6,20,12.7,19.9C12.6,19.9,12.7,19.9,12.7,19.9L12.7,19.9z"/>
			<path class="st5" d="M13.4,19.9c0,0.1,0,0.1,0.1,0.2c0,0,0,0,0,0C13.4,20,13.4,19.9,13.4,19.9L13.4,19.9z"/>
			<path class="st4" d="M12.5,20.1c0.1,0,0.2-0.1,0.2-0.2c0,0.1,0,0.2,0.1,0.3c0,0.1,0.1,0.2,0.1,0.3c0,0,0,0,0.1,0.1
				c-0.1,0-0.2,0-0.3,0.1c-0.1-0.1-0.2-0.1-0.3-0.2c0,0,0,0,0,0c0,0,0-0.1,0-0.1c0,0-0.1-0.1,0-0.1C12.4,20.2,12.4,20.2,12.5,20.1
				C12.5,20.1,12.5,20.1,12.5,20.1L12.5,20.1z"/>
			<path class="st5" d="M13.5,20.1C13.5,20.1,13.5,20.1,13.5,20.1C13.5,20.1,13.5,20.1,13.5,20.1c0,0.1,0,0.1,0,0.1
				C13.4,20.2,13.4,20.1,13.5,20.1L13.5,20.1z"/>
			<path class="st4" d="M13.4,20.3C13.4,20.3,13.4,20.3,13.4,20.3C13.4,20.3,13.4,20.3,13.4,20.3C13.4,20.3,13.4,20.3,13.4,20.3
				L13.4,20.3z"/>
			<path class="st5" d="M12.1,20.3C12.2,20.3,12.2,20.3,12.1,20.3C12.2,20.3,12.2,20.4,12.1,20.3C12.2,20.4,12.1,20.3,12.1,20.3
				L12.1,20.3z"/>
			<path class="st5" d="M12.4,20.4c0.2,0.1,0.3,0.2,0.4,0.3c0,0,0,0,0,0c0,0.1,0.1,0.1,0.1,0.2c-0.1,0-0.1-0.1-0.2-0.1
				c0,0-0.1,0-0.1-0.1c-0.1-0.1-0.2-0.2-0.3-0.3C12.4,20.5,12.4,20.4,12.4,20.4L12.4,20.4z"/>
			<path class="st6" d="M10.9,20.5c0,0,0.1,0,0.1,0c0.1,0,0.1,0.1,0.1,0.2c0,0.1,0,0.1,0,0.2c0,0.1-0.1,0.1-0.2,0.1c0,0-0.1,0-0.1,0
				c-0.1,0-0.1,0-0.1-0.1c0-0.1,0-0.1,0-0.2C10.7,20.5,10.8,20.5,10.9,20.5L10.9,20.5z"/>
			<path class="st6" d="M16,20.5L16,20.5c0,0.1,0,0.2,0,0.2c0,0,0,0.1,0,0.1c0,0-0.1,0-0.1,0c0,0,0-0.1-0.1-0.1c0,0-0.1,0.1-0.1,0.1
				c0,0,0,0-0.1,0.1c0,0,0,0,0,0.1c0,0,0,0,0,0c0,0,0-0.1,0-0.1c0.1-0.1,0.1-0.1,0.2-0.2c0,0,0,0,0-0.1c0,0-0.1,0-0.1,0
				c0,0-0.1,0-0.1,0c0,0,0,0,0,0.1h0c0-0.1,0-0.1,0-0.2c0,0,0,0,0,0c0,0,0,0,0,0.1c0,0,0.1,0,0.1,0c0.1,0,0.1,0,0.2,0
				C16,20.5,16,20.5,16,20.5C16.1,20.5,16,20.5,16,20.5L16,20.5z"/>
			<path class="st4" d="M10.8,20.5c0.1,0,0.1,0,0.2,0c0,0,0.1,0,0.1,0.1c0,0,0,0.1,0,0.2c0,0-0.1,0.1-0.1,0.1c-0.1,0-0.1,0-0.2,0
				c0,0-0.1,0-0.1-0.1c0,0,0-0.1,0-0.1C10.8,20.6,10.8,20.6,10.8,20.5L10.8,20.5z"/>
			<path class="st5" d="M12.8,20.6c0.1,0,0.2,0,0.3-0.1c0.1,0,0.2,0,0.3,0.1c0.1,0,0.2,0,0.3,0c0,0.1,0,0.2,0.1,0.3
				c-0.1,0.1-0.2,0.1-0.3,0.2c0,0-0.1,0-0.1,0c0,0-0.1,0-0.1,0c0,0.1,0,0.1,0,0.2c0,0,0,0,0,0c0,0,0,0.1,0,0.1
				c0,0.1-0.1,0.1-0.1,0.1c0,0.1,0.1,0.1,0.1,0.2c0,0,0.1,0.1,0.1,0.1c0,0,0.1,0,0.1,0c0,0,0.1,0,0.1,0.1c0,0.1,0.1,0.1,0.1,0.2
				c0,0-0.1,0-0.1,0c0,0,0,0-0.1-0.1c0,0,0,0,0,0c-0.1-0.1-0.2-0.1-0.3-0.2c0,0-0.1,0-0.1,0c0,0,0,0,0,0c0,0,0-0.1,0-0.1
				c0-0.1,0-0.1,0-0.2c-0.1,0-0.2-0.1-0.3-0.2c-0.1-0.1-0.1-0.1-0.2-0.2c0,0,0-0.1,0-0.1c0-0.1,0.1-0.2,0.2-0.3c0,0,0.1,0.1,0.1,0.1
				c0,0,0,0,0.1,0.1c0.1,0,0.2,0.1,0.3,0.1c0-0.1-0.1-0.1-0.1-0.2C12.9,20.7,12.9,20.7,12.8,20.6C12.8,20.7,12.8,20.6,12.8,20.6
				L12.8,20.6z"/>
			<path class="st4" d="M15.8,20.6c0.1,0,0.1,0,0.2,0c0,0,0,0.1,0,0.1c0,0.1-0.1,0.1-0.2,0C15.8,20.7,15.8,20.6,15.8,20.6L15.8,20.6
				z"/>
			<path class="st5" d="M14.6,21c0,0,0.1-0.1,0.1-0.1c0,0,0,0.1,0.1,0.1c0,0,0,0,0.1,0c0,0.1,0.1,0.1,0.1,0.2c0,0,0,0,0,0.1
				c0,0.1,0,0.1-0.1,0.2c0,0-0.1,0.1-0.1,0.1c-0.1,0-0.1-0.1-0.2-0.1c0,0,0,0-0.1,0c0,0,0,0,0,0.1c0,0,0,0,0,0.1
				c0,0.1,0.1,0.1,0.1,0.2c0,0,0,0,0,0.1c0.1,0,0.1-0.1,0.2-0.1c0,0,0,0,0,0c0-0.1,0-0.1,0-0.2c0,0,0,0,0,0c0,0,0,0,0,0
				c0,0,0,0,0.1,0c0,0,0,0,0,0c0,0,0,0,0,0c0,0,0,0,0,0c0,0-0.1,0-0.1,0c0,0,0,0.1-0.1,0.1c-0.1,0.1-0.1,0.2-0.2,0.2
				c0,0-0.1,0-0.1-0.1c0,0,0,0,0,0c0,0,0.1,0.1,0.1,0.1c0,0,0.1,0,0.1,0c0,0,0-0.1,0-0.1c0,0,0,0,0,0c0,0,0,0,0,0
				c0,0.1-0.1,0.1-0.2,0.1c-0.1,0-0.2-0.1-0.2-0.1c0,0,0,0,0,0c0,0,0,0,0,0c0,0-0.1,0-0.1,0c0,0-0.1,0-0.1,0c0,0-0.1,0-0.1,0
				c0,0-0.1,0-0.1,0c0,0,0,0-0.1,0c0,0-0.1,0-0.1,0c0,0,0,0,0,0c0,0,0,0,0,0c0,0,0,0,0-0.1c0,0,0,0-0.1,0c0,0-0.1,0.1-0.1,0.1
				c0,0,0,0,0,0c0,0,0-0.1,0-0.1c0,0,0,0,0,0.1c0,0-0.1,0.1-0.1,0.1c0,0,0,0,0,0c0.1,0,0.1,0,0.2-0.1c0,0,0,0,0,0c0,0,0,0,0,0.1
				c0,0,0,0,0,0.1c0,0,0,0-0.1,0c0,0,0,0,0,0c0,0-0.1,0-0.1-0.1c-0.1,0-0.1,0.1-0.2,0.1c0,0-0.1,0-0.1,0c0,0,0,0,0.1-0.1
				c0-0.1,0-0.1,0-0.2l0,0c0,0,0,0,0,0.1c0,0-0.1,0-0.1-0.1c0,0,0-0.1,0-0.1c0,0,0,0-0.1,0c0,0-0.1,0-0.1,0c0,0,0,0-0.1,0
				c0-0.1,0.1-0.1,0.2-0.1c0.1,0,0.1,0,0.1,0c0.1,0,0.2-0.1,0.3-0.1c0.1,0,0.1,0,0.2,0c0,0,0,0,0,0c0.1,0,0.1,0,0.2,0.1c0,0,0,0,0,0
				c0,0,0.1,0,0.1,0c0,0,0,0,0,0c0,0,0.1,0,0.1,0c0,0,0,0,0,0c0,0-0.1,0-0.1,0c0,0-0.1,0-0.1-0.1c0,0,0,0,0,0c0,0,0-0.1-0.1-0.1
				c0,0,0,0-0.1,0c0,0,0,0,0,0c0,0,0,0-0.1,0c0,0,0-0.1,0-0.1c0,0,0,0-0.1,0c0,0,0-0.1,0-0.1c0,0-0.1,0-0.1,0c0,0,0-0.1-0.1-0.1
				c0,0-0.1,0-0.2,0c0.1-0.1,0.3,0,0.4,0c0.2,0.1,0.3,0.2,0.4,0.3c0,0,0,0.1,0.1,0.1c0,0,0,0,0,0c0,0,0,0,0.1,0
				c-0.1,0-0.1-0.1-0.1-0.2c0-0.1,0.1-0.1,0.1-0.1c0.1,0,0.1,0.1,0.2,0.1c0,0,0.1,0,0.1,0c0,0,0-0.1,0-0.1c0,0-0.1-0.1-0.1-0.1
				c0,0-0.1,0-0.1,0c0,0,0,0,0,0c0.1,0,0.1,0,0.2,0C14.7,21.1,14.6,21.1,14.6,21C14.6,21.1,14.6,21,14.6,21L14.6,21z"/>
			<path class="st5" d="M11.9,20.9c0.1,0,0.1,0,0.2,0c0.1,0,0.2,0.1,0.3,0.1c0,0,0,0.1,0,0.1c0,0-0.1,0-0.1,0
				c-0.1,0-0.1-0.1-0.2-0.1c0,0-0.1,0-0.1,0c0,0,0,0,0,0.1c0,0.1,0.1,0.1,0.1,0.2c0,0,0,0.1,0,0.1c0,0-0.1,0.1-0.1,0.1
				c0,0,0,0.1,0,0.1h0c0,0,0,0.1,0,0.1c0,0,0,0,0,0c0,0-0.1,0-0.1,0c0,0.1,0,0.1,0,0.2c0,0,0-0.1-0.1-0.1c0,0,0,0,0,0c0,0,0,0,0,0
				c0,0,0-0.1,0-0.1c0,0,0-0.1,0-0.1c0,0-0.1,0-0.1-0.1c0,0,0-0.1,0-0.1c0.1-0.1,0.1-0.1,0.2-0.1c0,0,0-0.1,0-0.1
				c-0.1-0.1-0.1-0.2-0.1-0.3C11.8,21,11.8,20.9,11.9,20.9L11.9,20.9z"/>
			<path class="st5" d="M14.4,21c0,0,0.1,0,0.1,0c-0.1,0.1-0.1,0.2-0.2,0.3c0,0.1,0,0.2-0.1,0.3c-0.1-0.1-0.2-0.1-0.2-0.2
				c0,0,0,0,0,0c0,0,0.1,0,0.2,0c0,0,0,0,0,0c0,0-0.1-0.1-0.1-0.1C14.3,21.1,14.4,21.1,14.4,21L14.4,21z"/>
			<path class="st4" d="M13.4,21.2c0.1,0,0.2-0.1,0.3-0.2c0,0.1,0.1,0.1,0.2,0.2c0,0,0,0.1,0,0.1c0,0,0.1,0,0.1,0c0,0,0,0,0.1,0
				c0,0,0,0,0,0c0,0,0,0,0,0c-0.1-0.1-0.2-0.1-0.4-0.1c-0.1,0-0.2,0-0.3,0.1c0,0,0,0,0,0c0.1,0,0.1,0,0.2,0c0,0,0.1,0,0.1,0.1
				c0,0,0.1,0,0.1,0c0,0,0,0.1,0,0.1c0,0,0.1,0,0.1,0c0,0,0,0.1,0,0.1c0,0,0.1,0,0.1,0c0,0,0,0,0,0c0,0,0,0,0.1,0c0,0,0,0,0,0
				c-0.1,0-0.1,0-0.2,0c-0.1-0.1-0.1-0.1-0.2-0.1c0,0,0,0-0.1,0c-0.1,0-0.1,0-0.2,0c-0.1,0-0.1,0-0.2,0c0,0,0-0.1,0-0.1
				c0,0,0-0.1,0-0.1C13.4,21.3,13.4,21.2,13.4,21.2L13.4,21.2z"/>
			<path class="st5" d="M14.5,21.1c0.1,0,0.1,0.1,0.2,0.1C14.7,21.2,14.6,21.2,14.5,21.1C14.6,21.2,14.6,21.1,14.5,21.1L14.5,21.1z"
				/>
			<path class="st5" d="M13.2,21.2C13.2,21.2,13.2,21.1,13.2,21.2c0.1,0,0.1,0,0.1,0c0,0.1,0,0.1,0,0.2c0,0,0,0,0,0.1
				c0,0,0,0.1,0,0.1c0,0,0,0,0.1,0c0.1,0,0.2,0,0.3,0c0,0,0,0,0,0c0.1,0,0.1,0.1,0.2,0.2c-0.1,0-0.1,0-0.2,0c0,0,0,0,0-0.1
				c0,0,0,0-0.1,0c0,0,0,0,0,0c0,0,0,0-0.1,0c-0.1,0-0.2,0-0.3,0c0,0-0.1,0-0.1,0c0,0,0,0,0,0c0-0.1,0-0.1,0-0.2c0,0,0,0,0-0.1
				c0,0,0,0,0,0C13.2,21.3,13.2,21.2,13.2,21.2L13.2,21.2z"/>
			<path class="st5" d="M15,21.2C15,21.2,15,21.2,15,21.2C15,21.2,15,21.2,15,21.2c0.1,0,0.1,0,0.1,0.1C15.1,21.3,15.1,21.3,15,21.2
				c0.1,0.1,0.1,0.1,0.2,0.1C15.1,21.3,15,21.3,15,21.2c0.1,0.1,0.1,0.1,0.1,0.2c0,0-0.1,0-0.1-0.1C15,21.3,15,21.3,15,21.2L15,21.2
				z"/>
			<path class="st6" d="M10.7,21.3c0,0,0.1,0,0.1,0C10.8,21.3,10.8,21.3,10.7,21.3C10.8,21.3,10.8,21.3,10.7,21.3
				c0.1,0.1,0.1,0.2,0.1,0.2c0.1,0,0.1,0,0.2,0c0,0,0-0.1,0-0.1c0,0,0,0,0,0c0,0,0,0-0.1,0l0,0c0.1,0,0.1,0,0.2,0c0,0,0,0,0,0
				c0,0,0,0,0,0c0,0,0,0.1,0,0.1c0.1,0,0.1,0,0.2-0.1c0,0,0-0.1,0-0.1c0,0,0,0,0,0.1c0,0.1,0,0.1,0,0.2h0c0,0,0,0,0-0.1
				c0,0,0,0-0.1,0c-0.1,0-0.2,0.1-0.3,0.1c0,0,0,0-0.1,0c0,0,0,0,0,0.1h0C10.8,21.5,10.8,21.4,10.7,21.3L10.7,21.3z"/>
			<path class="st6" d="M16,21.3C16,21.3,16,21.3,16,21.3c0.1,0,0,0.1,0,0.1h0C16,21.4,16,21.4,16,21.3C16,21.4,16,21.4,16,21.3
				c-0.1,0.1-0.2,0.1-0.2,0.2c0,0,0.1,0.1,0.1,0.1c0,0,0,0,0,0c0,0,0,0,0,0c0,0,0,0,0,0c0,0,0,0.1,0,0.2h0c0,0,0-0.1,0-0.1
				c-0.1-0.1-0.1-0.1-0.2-0.2c0,0-0.1,0-0.2,0c0,0,0,0,0,0.1c0,0,0,0,0,0c0-0.1,0-0.1,0.1-0.2l0,0c0,0,0,0,0,0.1c0,0,0,0,0,0
				c0,0,0.1,0,0.1,0c0,0,0,0,0,0C15.8,21.4,15.9,21.3,16,21.3L16,21.3z"/>
			<path class="st4" d="M13,21.6c0.1-0.1,0.1-0.2,0.1-0.2c0,0.1,0,0.2,0,0.2c0,0,0,0,0,0c0,0,0.1,0,0.1,0c0.1,0,0.2,0,0.3,0
				c0,0,0,0,0.1,0c0,0,0,0,0,0c0,0,0,0,0,0.1c0,0,0,0-0.1,0c-0.1,0-0.1,0-0.2,0.1c-0.1,0-0.1-0.1-0.2,0c-0.1,0-0.1,0.1-0.1,0.1
				C13.1,21.8,13.1,21.7,13,21.6L13,21.6z"/>
			<path class="st4" d="M14.3,21.6c0,0,0-0.1,0-0.1c0,0.1,0.1,0.1,0.1,0.1C14.4,21.6,14.4,21.6,14.3,21.6
				C14.4,21.6,14.4,21.6,14.3,21.6L14.3,21.6z"/>
			<path class="st5" d="M13.5,21.9C13.4,21.9,13.5,21.9,13.5,21.9C13.5,21.9,13.5,21.9,13.5,21.9L13.5,21.9z"/>
			<path class="st5" d="M13.5,21.9C13.5,21.9,13.5,21.9,13.5,21.9C13.5,21.9,13.5,22,13.5,21.9c0.1,0.1,0.1,0.1,0.2,0.1
				c0,0,0,0.1,0,0.1c0,0-0.1,0,0,0.1c0.1,0,0.1,0,0.1,0c0.1,0,0.1,0,0.2,0c0,0,0.1,0.1,0.1,0.1c0,0,0,0,0,0c0,0,0.1,0,0.1,0
				c0,0,0,0,0.1,0c0,0,0,0,0.1,0c0,0,0.1,0,0.1,0c0,0,0.1,0,0.1,0c0,0,0,0,0.1,0c0.1,0.1,0.2,0.1,0.3,0.1c-0.1,0-0.1,0.1-0.2,0.1
				c-0.7,0-1.5,0-2.2,0c0,0,0,0-0.1,0c0,0-0.1-0.1-0.1-0.1c0.2,0,0.4,0,0.6,0c0,0,0,0,0,0c-0.2,0-0.4-0.1-0.6-0.1c0.1,0,0.1,0,0.2,0
				c0.1,0,0.3,0,0.4,0c0,0,0.1-0.1,0.1-0.1c0.1,0,0.1,0,0.2,0c0,0,0,0,0,0c0.1,0,0.2,0,0.2,0c0,0,0,0,0,0c0,0,0,0,0,0
				c0,0,0,0,0.1,0.1c0.1,0,0.1,0,0.2,0C13.6,22,13.5,22,13.5,21.9L13.5,21.9z"/>
			<path class="st5" d="M13.1,22c0,0,0.1-0.1,0.1-0.1c0,0,0.1,0,0.1,0.1C13.2,22,13.1,22,13.1,22L13.1,22z"/>
			<path class="st5" d="M13.7,22.1C13.8,22,13.8,22,13.7,22.1C13.8,22,13.8,22,13.7,22.1C13.8,22.1,13.8,22.1,13.7,22.1L13.7,22.1z"
				/>
			<path class="st6" d="M12.3,22.9c0.1,0,0.2,0,0.2,0.1c0,0.1-0.1,0.1-0.1,0.1c-0.1,0-0.1-0.1-0.1-0.1C12.2,23,12.2,22.9,12.3,22.9
				L12.3,22.9z"/>
			<path class="st6" d="M14.4,22.9c0,0,0.1,0,0.1,0c0,0,0.1,0.1,0.1,0.1c0,0.1,0,0.1-0.1,0.1c0,0-0.1,0-0.1,0
				C14.3,23.1,14.3,23.1,14.4,22.9C14.3,23,14.4,22.9,14.4,22.9L14.4,22.9z"/>
			<path class="st6" d="M13.3,23c0,0,0.1,0,0.1,0c0,0,0,0,0,0.1c0,0.1,0,0.1,0,0.2c0.1,0,0.1,0,0.2,0c0,0,0.1,0,0.1,0
				c0,0,0,0.1,0,0.1c0,0-0.1,0-0.1,0c-0.1,0-0.1,0-0.2,0c0,0.1,0,0.1,0,0.2c0,0,0,0.1,0,0.1c0,0-0.1,0-0.1,0c0,0,0-0.1,0-0.1
				c0,0,0-0.1,0-0.1c-0.1,0-0.1,0-0.2,0c0,0-0.1,0-0.1,0c0,0,0-0.1,0-0.1c0,0,0.1,0,0.1,0c0.1,0,0.1,0,0.2,0
				C13.3,23.1,13.3,23.1,13.3,23C13.3,23,13.3,23,13.3,23L13.3,23z"/>
			<polygon class="st7" points="10.6,18.4 10.6,18.4 10.6,18.4 			"/>
			<polygon class="st7" points="10.6,18.4 10.6,18.4 10.6,18.4 			"/>
			<g>
				<path class="st7" d="M11.8,17.6c0.2,0.2,0,0.8-0.4,1.3c-0.5,0.5-1,0.6-1.3,0.4c-0.2-0.2,0-0.8,0.4-1.3
					C11,17.5,11.6,17.3,11.8,17.6z"/>
				<path class="st5" d="M11.5,17.9c0.2,0.2,0.2,0.7-0.1,1c-0.3,0.3-0.8,0.4-1,0.1c-0.2-0.2-0.2-0.7,0.1-1
					C10.9,17.7,11.3,17.6,11.5,17.9z"/>

					<rect x="11.2" y="17.8" transform="matrix(0.7129 -0.7013 0.7013 0.7129 -9.5543 13.1053)" class="st7" width="0.1" height="0.8"/>
				<polygon class="st7" points="10.7,18.2 10.9,18.6 10.5,18.4 10.4,18.5 11.1,18.9 11.1,18.9 11.1,18.9 10.8,18.1 				"/>
			</g>
			<g>
				<path class="st7" d="M16.6,22.4c-0.2-0.2-0.8,0-1.3,0.4c-0.5,0.5-0.7,1-0.4,1.3c0.2,0.2,0.8,0,1.3-0.4
					C16.7,23.2,16.9,22.6,16.6,22.4z"/>
				<path class="st5" d="M16.3,22.7c-0.2-0.2-0.7-0.2-1,0.1c-0.3,0.3-0.4,0.8-0.1,1c0.2,0.2,0.7,0.2,1-0.1
					C16.5,23.3,16.6,22.9,16.3,22.7z"/>
				<polygon class="st7" points="15.8,22.6 15.7,22.7 16.2,23.3 16.3,23.2 				"/>
				<polygon class="st7" points="16,23.5 15.6,23.3 15.8,23.7 15.7,23.8 15.3,23.1 15.3,23.1 15.3,23.1 16.1,23.4 				"/>
			</g>
			<g>
				<path class="st7" d="M15,17.6c-0.2,0.2,0,0.8,0.4,1.3c0.5,0.5,1,0.7,1.3,0.4c0.2-0.2,0-0.8-0.4-1.3C15.8,17.5,15.2,17.3,15,17.6
					z"/>
				<path class="st5" d="M15.2,17.8c-0.2,0.2-0.2,0.7,0.1,1c0.3,0.3,0.8,0.4,1,0.1c0.2-0.2,0.2-0.7-0.1-1
					C15.9,17.7,15.5,17.6,15.2,17.8z"/>
				<polygon class="st7" points="15.2,18.4 15.3,18.5 15.9,18 15.8,17.9 				"/>
				<polygon class="st7" points="16.1,18.2 15.9,18.6 16.3,18.4 16.4,18.5 15.6,18.9 15.6,18.9 15.6,18.9 16,18.1 				"/>
			</g>
			<g>
				<path class="st7" d="M10.1,22.4c0.2-0.2,0.8,0,1.3,0.4c0.5,0.5,0.7,1,0.4,1.3c-0.2,0.2-0.8,0-1.3-0.4
					C10.1,23.2,9.9,22.6,10.1,22.4z"/>
				<path class="st5" d="M10.4,22.6c0.2-0.2,0.7-0.2,1,0.1c0.3,0.3,0.4,0.8,0.1,1c-0.2,0.2-0.7,0.2-1-0.1
					C10.3,23.3,10.2,22.9,10.4,22.6z"/>
				<polygon class="st7" points="11,22.6 11.1,22.7 10.6,23.3 10.5,23.2 				"/>
				<polygon class="st7" points="10.8,23.5 11.2,23.3 11,23.7 11.1,23.8 11.4,23.1 11.4,23.1 11.4,23.1 10.7,23.4 				"/>
			</g>
		</g>
	</g>
</g>
</svg>
