<?xml version="1.0" encoding="utf-8"?>
<!-- Generator: Adobe Illustrator 26.5.0, SVG Export Plug-In . SVG Version: 6.00 Build 0)  -->
<svg version="1.1" id="Layer_1" xmlns="http://www.w3.org/2000/svg" xmlns:xlink="http://www.w3.org/1999/xlink" x="0px" y="0px"
	 viewBox="0 0 64 64" style="enable-background:new 0 0 64 64;" xml:space="preserve">
<style type="text/css">
	.st0{fill:#01247D;}
	.st1{fill:#FFFFFF;}
	.st2{fill:#CF142B;}
</style>
<g>
	<g>
		<path class="st0" d="M2.7,19.8c-0.4,0.9-0.7,1.8-1,2.7h5L2.7,19.8z"/>
		<path class="st0" d="M61.2,44.2c0.4-0.9,0.7-1.8,1-2.7h-5.1L61.2,44.2z"/>
		<path class="st0" d="M9.5,54.3c3.6,3.6,8,6.4,13,7.9V45.7L9.5,54.3z"/>
		<path class="st0" d="M22.5,1.8c-5,1.6-9.4,4.3-13,7.9l13,8.7V1.8z"/>
		<path class="st0" d="M62.2,22.5c-0.3-0.9-0.6-1.8-1-2.7l-4,2.7H62.2z"/>
		<path class="st0" d="M41.5,62.2c5-1.6,9.4-4.3,13-7.9l-13-8.7V62.2z"/>
		<path class="st0" d="M1.8,41.5c0.3,0.9,0.6,1.8,1,2.7l4.1-2.7H1.8z"/>
		<path class="st0" d="M54.5,9.7c-3.6-3.6-8-6.4-13-7.9v16.6L54.5,9.7z"/>
		<path class="st1" d="M63.2,37.5H37.5v25.6c1.3-0.2,2.7-0.6,4-1V45.7l13,8.7c1.5-1.5,2.8-3.1,3.9-4.8l-12-8H54l6.5,4.3
			c0.3-0.5,0.5-1.1,0.7-1.6l-4.1-2.7h5.1C62.6,40.2,62.9,38.9,63.2,37.5z"/>
		<path class="st1" d="M22.5,1.8v16.6l-13-8.7c-1.4,1.4-2.7,3-3.8,4.7l12.1,8.1h-7.5l-6.7-4.4c-0.3,0.6-0.6,1.2-0.8,1.8l4,2.7h-5
			c-0.4,1.3-0.7,2.6-1,4h25.6V0.8C25.1,1.1,23.8,1.4,22.5,1.8z"/>
		<path class="st1" d="M0.8,37.5c0.2,1.4,0.6,2.7,1,4h5.1l-4.1,2.7c0.8,1.9,1.7,3.6,2.8,5.3l12-8h4.9v1.7L8.1,52.8
			c0.5,0.5,0.9,1,1.4,1.5l13-8.7v16.6c1.3,0.4,2.6,0.7,4,1V37.5H0.8z"/>
		<path class="st1" d="M62.2,22.5h-5l4-2.7c-0.8-1.9-1.8-3.7-2.9-5.4l-12.2,8.1h-4.7v-1.9l14.3-9.5c-0.4-0.5-0.8-0.9-1.3-1.4
			l-13,8.7V1.8c-1.3-0.4-2.6-0.7-4-1v25.6h25.6C62.9,25.1,62.6,23.8,62.2,22.5z"/>
		<path class="st2" d="M63.2,26.5H37.5V0.8c-1.8-0.3-3.7-0.5-5.5-0.5c-1.9,0-3.7,0.2-5.5,0.5v25.6H0.8c-0.3,1.8-0.5,3.7-0.5,5.5
			c0,1.9,0.2,3.7,0.5,5.5h25.6v25.6c1.8,0.3,3.7,0.5,5.5,0.5c1.9,0,3.7-0.2,5.5-0.5V37.5h25.6c0.3-1.8,0.5-3.7,0.5-5.5
			C63.7,30.1,63.5,28.3,63.2,26.5z"/>
		<path class="st2" d="M46.5,41.5l12,8c0.8-1.2,1.5-2.4,2.1-3.6L54,41.5H46.5z"/>
		<path class="st2" d="M41.5,22.5h4.7l12.2-8.1c-0.8-1.2-1.6-2.3-2.5-3.3l-14.3,9.5V22.5z"/>
		<path class="st2" d="M22.5,41.5h-4.9l-12,8c0.8,1.2,1.6,2.3,2.5,3.3l14.4-9.6V41.5z"/>
		<path class="st2" d="M17.8,22.5L5.6,14.4c-0.8,1.2-1.5,2.4-2.1,3.6l6.7,4.4H17.8z"/>
	</g>
</g>
</svg>
