<svg xmlns="http://www.w3.org/2000/svg" xmlns:xlink="http://www.w3.org/1999/xlink" width="18" height="18" viewBox="0 0 18 18">
  <defs>
    <clipPath id="clip-path">
      <rect id="Rectangle_8621" data-name="Rectangle 8621" width="9.637" height="9.241" transform="translate(0 0)" fill="#fff"/>
    </clipPath>
  </defs>
  <g id="Group_51159" data-name="Group 51159" transform="translate(0.537 5.5)">
    <g id="Group_5076" data-name="Group 5076" transform="translate(-0.537 -5.5)">
      <rect id="Rectangle_556" data-name="Rectangle 556" width="18" height="18" rx="9" transform="translate(0 0)" fill="#4090f7"/>
    </g>
    <g id="Group_48114" data-name="Group 48114" transform="translate(3.642 -1.384)">
      <g id="Group_48116" data-name="Group 48116" transform="translate(0 0)" clip-path="url(#clip-path)">
        <path id="Path_44402" data-name="Path 44402" d="M4.819,8.024,2.674,9.151a.769.769,0,0,1-1.116-.811l.41-2.388L.233,4.262A.769.769,0,0,1,.659,2.95l2.4-.348L4.129.429a.769.769,0,0,1,1.379,0L6.58,2.6l2.4.348A.769.769,0,0,1,9.4,4.262L7.669,5.953l.41,2.388a.769.769,0,0,1-1.116.811Z" transform="translate(0 0)" fill="#fff"/>
      </g>
    </g>
  </g>
</svg>
