<svg xmlns="http://www.w3.org/2000/svg" width="28.399" height="28.387" viewBox="0 0 28.399 28.387">
  <g id="Group_47387" data-name="Group 47387" transform="translate(0.199 0.2)">
    <g id="Group_46359" data-name="Group 46359" transform="translate(0 0)">
      <path id="Path_25807" data-name="Path 25807" d="M27.931,22.171a3.31,3.31,0,0,0-.187-.639,4.371,4.371,0,0,0-.657-1.143,10.622,10.622,0,0,0-3.7-2.791,4.187,4.187,0,0,0-4.677.749c-.448.388-.879.821-1.3,1.24l-.394.393a.541.541,0,0,1-.731.1A24.736,24.736,0,0,1,7.875,11.63a1.079,1.079,0,0,0-.113-.159l-.214-.265.294-.172c.039-.022.081-.043.122-.063a.6.6,0,0,0,.124-.071c.18-.192.366-.381.551-.57a16.043,16.043,0,0,0,1.33-1.477,4.039,4.039,0,0,0,.44-4.223A10.963,10.963,0,0,0,8.29,1.566,4.312,4.312,0,0,0,6.442.239C6.233.169,6.018.117,5.8.066L5.534,0H4.719a1.411,1.411,0,0,1-.184.046A3.827,3.827,0,0,0,2.218,1.27,8.421,8.421,0,0,0,.054,6.389a13.376,13.376,0,0,0,.694,5.54,22.029,22.029,0,0,0,3.518,6.283,25.54,25.54,0,0,0,6.23,6.3c.065.051.13.106.194.157a.944.944,0,0,0,.262.144A19.281,19.281,0,0,0,14.9,26.8a15.732,15.732,0,0,0,4.835,1.158,9.305,9.305,0,0,0,6.488-1.751,4.157,4.157,0,0,0,1.635-2.291c.038-.146.069-.294.1-.443l.04-.187v-.825c-.025-.1-.047-.194-.069-.291" transform="translate(0)" fill="#4090f7" stroke="#4090f7" stroke-width="0.4"/>
    </g>
  </g>
</svg>
