<svg xmlns="http://www.w3.org/2000/svg" width="62" height="62" viewBox="0 0 62 62">
  <g id="Group_50391" data-name="Group 50391" transform="translate(-1523 -8138)">
    <g id="Rectangle_8050" data-name="Rectangle 8050" transform="translate(1523 8138)" fill="#fff" stroke="rgba(214,221,232,0.6)" stroke-width="1">
      <rect width="62" height="62" rx="31" stroke="none"/>
      <rect x="0.5" y="0.5" width="61" height="61" rx="30.5" fill="none"/>
    </g>
    <path id="Path_20722" data-name="Path 20722" d="M27.942,50.688a11.943,11.943,0,0,1-3.3.9,5.7,5.7,0,0,0,2.52-3.166,11.448,11.448,0,0,1-3.632,1.387A5.728,5.728,0,0,0,13.62,53.73a5.9,5.9,0,0,0,.133,1.306A16.214,16.214,0,0,1,1.945,49.044,5.73,5.73,0,0,0,3.706,56.7a5.657,5.657,0,0,1-2.588-.706v.063a5.755,5.755,0,0,0,4.589,5.629,5.717,5.717,0,0,1-1.5.189,5.065,5.065,0,0,1-1.085-.1,5.783,5.783,0,0,0,5.353,3.99,11.51,11.51,0,0,1-7.1,2.443A10.73,10.73,0,0,1,0,68.132,16.127,16.127,0,0,0,8.788,70.7c10.541,0,16.3-8.732,16.3-16.3,0-.253-.009-.5-.021-.74A11.428,11.428,0,0,0,27.942,50.688Z" transform="translate(1541.857 8109)" fill="#044a75" opacity="0.401"/>
  </g>
</svg>
